%TF.GenerationSoftware,KiCad,Pcbnew,(6.0.7)*%
%TF.CreationDate,2023-09-09T12:04:14+08:00*%
%TF.ProjectId,Milling test pcb,4d696c6c-696e-4672-9074-657374207063,rev?*%
%TF.SameCoordinates,Original*%
%TF.FileFunction,Copper,L1,Top*%
%TF.FilePolarity,Positive*%
%FSLAX46Y46*%
G04 Gerber Fmt 4.6, Leading zero omitted, Abs format (unit mm)*
G04 Created by KiCad (PCBNEW (6.0.7)) date 2023-09-09 12:04:14*
%MOMM*%
%LPD*%
G01*
G04 APERTURE LIST*
%TA.AperFunction,ComponentPad*%
%ADD10R,1.600000X1.600000*%
%TD*%
%TA.AperFunction,ComponentPad*%
%ADD11O,1.600000X1.600000*%
%TD*%
%TA.AperFunction,ComponentPad*%
%ADD12C,1.600000*%
%TD*%
%TA.AperFunction,ComponentPad*%
%ADD13R,1.700000X1.700000*%
%TD*%
%TA.AperFunction,ComponentPad*%
%ADD14O,1.700000X1.700000*%
%TD*%
%TA.AperFunction,ComponentPad*%
%ADD15R,1.800000X1.800000*%
%TD*%
%TA.AperFunction,ComponentPad*%
%ADD16C,1.800000*%
%TD*%
%TA.AperFunction,Conductor*%
%ADD17C,0.250000*%
%TD*%
G04 APERTURE END LIST*
D10*
%TO.P,U1,1,GND*%
%TO.N,GND*%
X112600000Y-70600000D03*
D11*
%TO.P,U1,2,TR*%
%TO.N,/THR*%
X112600000Y-73140000D03*
%TO.P,U1,3,Q*%
%TO.N,/out*%
X112600000Y-75680000D03*
%TO.P,U1,4,R*%
%TO.N,+5V*%
X112600000Y-78220000D03*
%TO.P,U1,5,CV*%
%TO.N,Net-(C1-Pad1)*%
X120220000Y-78220000D03*
%TO.P,U1,6,THR*%
%TO.N,/THR*%
X120220000Y-75680000D03*
%TO.P,U1,7,DIS*%
%TO.N,/dis*%
X120220000Y-73140000D03*
%TO.P,U1,8,VCC*%
%TO.N,+5V*%
X120220000Y-70600000D03*
%TD*%
D12*
%TO.P,R3,1*%
%TO.N,/dis*%
X139200000Y-80000000D03*
D11*
%TO.P,R3,2*%
%TO.N,/THR*%
X139200000Y-92700000D03*
%TD*%
D12*
%TO.P,R2,1*%
%TO.N,+5V*%
X139100000Y-64800000D03*
D11*
%TO.P,R2,2*%
%TO.N,/dis*%
X139100000Y-77500000D03*
%TD*%
D12*
%TO.P,R1,1*%
%TO.N,/out*%
X108000000Y-75750000D03*
D11*
%TO.P,R1,2*%
%TO.N,Net-(D1-Pad2)*%
X108000000Y-88450000D03*
%TD*%
D13*
%TO.P,J1,1,Pin_1*%
%TO.N,+5V*%
X117575000Y-65500000D03*
D14*
%TO.P,J1,2,Pin_2*%
%TO.N,GND*%
X115035000Y-65500000D03*
%TD*%
D15*
%TO.P,D1,1,K*%
%TO.N,GND*%
X117675000Y-88500000D03*
D16*
%TO.P,D1,2,A*%
%TO.N,Net-(D1-Pad2)*%
X115135000Y-88500000D03*
%TD*%
D10*
%TO.P,C2,1*%
%TO.N,/THR*%
X126102651Y-88500000D03*
D12*
%TO.P,C2,2*%
%TO.N,GND*%
X121102651Y-88500000D03*
%TD*%
D10*
%TO.P,C1,1*%
%TO.N,Net-(C1-Pad1)*%
X128900000Y-76897349D03*
D12*
%TO.P,C1,2*%
%TO.N,GND*%
X128900000Y-81897349D03*
%TD*%
D17*
%TO.N,GND*%
X108600000Y-70600000D02*
X112600000Y-70600000D01*
X105600000Y-73600000D02*
X108600000Y-70600000D01*
X105600000Y-83200000D02*
X105600000Y-73600000D01*
X108500000Y-86100000D02*
X105600000Y-83200000D01*
X117675000Y-88500000D02*
X115275000Y-86100000D01*
X115275000Y-86100000D02*
X108500000Y-86100000D01*
%TO.N,/THR*%
X106500000Y-75100000D02*
X108460000Y-73140000D01*
X106500000Y-77900000D02*
X106500000Y-75100000D01*
X109900000Y-81300000D02*
X106500000Y-77900000D01*
X108460000Y-73140000D02*
X112600000Y-73140000D01*
X114600000Y-81300000D02*
X109900000Y-81300000D01*
X120220000Y-75680000D02*
X114600000Y-81300000D01*
%TO.N,+5V*%
X116100000Y-73500000D02*
X116100000Y-77500000D01*
X119000000Y-70600000D02*
X116100000Y-73500000D01*
X120220000Y-70600000D02*
X119000000Y-70600000D01*
X116100000Y-77500000D02*
X115380000Y-78220000D01*
X115380000Y-78220000D02*
X112600000Y-78220000D01*
X133300000Y-70600000D02*
X139100000Y-64800000D01*
X120220000Y-70600000D02*
X133300000Y-70600000D01*
%TO.N,/THR*%
X133900000Y-77100000D02*
X133900000Y-85800000D01*
X131500000Y-74700000D02*
X133900000Y-77100000D01*
X125320000Y-75680000D02*
X126300000Y-74700000D01*
X126300000Y-74700000D02*
X131500000Y-74700000D01*
X133900000Y-85800000D02*
X131200000Y-88500000D01*
X120220000Y-75680000D02*
X125320000Y-75680000D01*
X131200000Y-88500000D02*
X126102651Y-88500000D01*
X135400000Y-92700000D02*
X131200000Y-88500000D01*
X139200000Y-92700000D02*
X135400000Y-92700000D01*
%TO.N,/dis*%
X137400000Y-77500000D02*
X133040000Y-73140000D01*
X133040000Y-73140000D02*
X120220000Y-73140000D01*
X139100000Y-77500000D02*
X137400000Y-77500000D01*
X139100000Y-79900000D02*
X139200000Y-80000000D01*
X139100000Y-77500000D02*
X139100000Y-79900000D01*
%TO.N,+5V*%
X117575000Y-67955000D02*
X120220000Y-70600000D01*
X117575000Y-65500000D02*
X117575000Y-67955000D01*
%TO.N,GND*%
X115035000Y-68165000D02*
X112600000Y-70600000D01*
X115035000Y-65500000D02*
X115035000Y-68165000D01*
%TO.N,/out*%
X112530000Y-75750000D02*
X112600000Y-75680000D01*
X108000000Y-75750000D02*
X112530000Y-75750000D01*
%TO.N,Net-(D1-Pad2)*%
X115135000Y-88500000D02*
X108050000Y-88500000D01*
X108050000Y-88500000D02*
X108000000Y-88450000D01*
%TO.N,GND*%
X121102651Y-88500000D02*
X117675000Y-88500000D01*
X127705302Y-81897349D02*
X121102651Y-88500000D01*
X128900000Y-81897349D02*
X127705302Y-81897349D01*
%TO.N,Net-(C1-Pad1)*%
X120220000Y-78220000D02*
X127577349Y-78220000D01*
X127577349Y-78220000D02*
X128900000Y-76897349D01*
%TD*%
M02*
