M48
; DRILL file {KiCad (6.0.7)} date Sat Sep  9 12:04:11 2023
; FORMAT={-:-/ absolute / inch / decimal}
; #@! TF.CreationDate,2023-09-09T12:04:11+08:00
; #@! TF.GenerationSoftware,Kicad,Pcbnew,(6.0.7)
; #@! TF.FileFunction,Plated,1,2,PTH
FMAT,2
INCH
; #@! TA.AperFunction,Plated,PTH,ComponentDrill
T1C0.0315
; #@! TA.AperFunction,Plated,PTH,ComponentDrill
T2C0.0354
; #@! TA.AperFunction,Plated,PTH,ComponentDrill
T3C0.0394
%
G90
G05
T1
X4.252Y-2.9823
X4.252Y-3.4823
X4.4331Y-2.7795
X4.4331Y-2.8795
X4.4331Y-2.9795
X4.4331Y-3.0795
X4.7331Y-2.7795
X4.7331Y-2.8795
X4.7331Y-2.9795
X4.7331Y-3.0795
X4.7678Y-3.4843
X4.9647Y-3.4843
X5.0748Y-3.0275
X5.0748Y-3.2243
X5.4764Y-2.5512
X5.4764Y-3.0512
X5.4803Y-3.1496
X5.4803Y-3.6496
T2
X4.5329Y-3.4843
X4.6329Y-3.4843
T3
X4.5289Y-2.5787
X4.6289Y-2.5787
T0
M30
