%TF.GenerationSoftware,KiCad,Pcbnew,(6.0.7)*%
%TF.CreationDate,2023-09-09T12:04:14+08:00*%
%TF.ProjectId,Milling test pcb,4d696c6c-696e-4672-9074-657374207063,rev?*%
%TF.SameCoordinates,Original*%
%TF.FileFunction,Legend,Top*%
%TF.FilePolarity,Positive*%
%FSLAX46Y46*%
G04 Gerber Fmt 4.6, Leading zero omitted, Abs format (unit mm)*
G04 Created by KiCad (PCBNEW (6.0.7)) date 2023-09-09 12:04:14*
%MOMM*%
%LPD*%
G01*
G04 APERTURE LIST*
%ADD10C,0.300000*%
%ADD11C,0.150000*%
%ADD12C,0.120000*%
G04 APERTURE END LIST*
D10*
X106349999Y-59792857D02*
X105849999Y-59792857D01*
X105849999Y-60578571D02*
X105849999Y-59078571D01*
X106564285Y-59078571D01*
X108278571Y-59792857D02*
X109421428Y-59792857D01*
X109421428Y-60221428D02*
X108278571Y-60221428D01*
X112064285Y-60578571D02*
X111207142Y-60578571D01*
X111635714Y-60578571D02*
X111635714Y-59078571D01*
X111492857Y-59292857D01*
X111349999Y-59435714D01*
X111207142Y-59507142D01*
X113778571Y-59007142D02*
X112492857Y-60935714D01*
X114707142Y-61150000D02*
X114635714Y-61078571D01*
X114492857Y-60864285D01*
X114421428Y-60721428D01*
X114349999Y-60507142D01*
X114278571Y-60150000D01*
X114278571Y-59864285D01*
X114349999Y-59507142D01*
X114421428Y-59292857D01*
X114492857Y-59150000D01*
X114635714Y-58935714D01*
X114707142Y-58864285D01*
X115492857Y-60578571D02*
X115349999Y-60507142D01*
X115278571Y-60364285D01*
X115278571Y-59078571D01*
X116064285Y-59578571D02*
X116064285Y-60578571D01*
X116064285Y-59721428D02*
X116135714Y-59650000D01*
X116278571Y-59578571D01*
X116492857Y-59578571D01*
X116635714Y-59650000D01*
X116707142Y-59792857D01*
X116707142Y-60578571D01*
X117849999Y-61150000D02*
X117778571Y-61078571D01*
X117635714Y-60864285D01*
X117564285Y-60721428D01*
X117492857Y-60507142D01*
X117421428Y-60150000D01*
X117421428Y-59864285D01*
X117492857Y-59507142D01*
X117564285Y-59292857D01*
X117635714Y-59150000D01*
X117778571Y-58935714D01*
X117849999Y-58864285D01*
X118349999Y-59221428D02*
X118421428Y-59150000D01*
X118564285Y-59078571D01*
X118921428Y-59078571D01*
X119064285Y-59150000D01*
X119135714Y-59221428D01*
X119207142Y-59364285D01*
X119207142Y-59507142D01*
X119135714Y-59721428D01*
X118278571Y-60578571D01*
X119207142Y-60578571D01*
X119707142Y-61150000D02*
X119778571Y-61078571D01*
X119921428Y-60864285D01*
X119992857Y-60721428D01*
X120064285Y-60507142D01*
X120135714Y-60150000D01*
X120135714Y-59864285D01*
X120064285Y-59507142D01*
X119992857Y-59292857D01*
X119921428Y-59150000D01*
X119778571Y-58935714D01*
X119707142Y-58864285D01*
X122207142Y-59078571D02*
X122207142Y-59435714D01*
X121849999Y-59292857D02*
X122207142Y-59435714D01*
X122564285Y-59292857D01*
X121992857Y-59721428D02*
X122207142Y-59435714D01*
X122421428Y-59721428D01*
X123564285Y-61150000D02*
X123492857Y-61078571D01*
X123349999Y-60864285D01*
X123278571Y-60721428D01*
X123207142Y-60507142D01*
X123135714Y-60150000D01*
X123135714Y-59864285D01*
X123207142Y-59507142D01*
X123278571Y-59292857D01*
X123349999Y-59150000D01*
X123492857Y-58935714D01*
X123564285Y-58864285D01*
X124992857Y-60578571D02*
X124492857Y-59864285D01*
X124135714Y-60578571D02*
X124135714Y-59078571D01*
X124707142Y-59078571D01*
X124849999Y-59150000D01*
X124921428Y-59221428D01*
X124992857Y-59364285D01*
X124992857Y-59578571D01*
X124921428Y-59721428D01*
X124849999Y-59792857D01*
X124707142Y-59864285D01*
X124135714Y-59864285D01*
X126421428Y-60578571D02*
X125564285Y-60578571D01*
X125992857Y-60578571D02*
X125992857Y-59078571D01*
X125849999Y-59292857D01*
X125707142Y-59435714D01*
X125564285Y-59507142D01*
X128207142Y-60007142D02*
X129349999Y-60007142D01*
X128778571Y-60578571D02*
X128778571Y-59435714D01*
X132064285Y-60578571D02*
X131564285Y-59864285D01*
X131207142Y-60578571D02*
X131207142Y-59078571D01*
X131778571Y-59078571D01*
X131921428Y-59150000D01*
X131992857Y-59221428D01*
X132064285Y-59364285D01*
X132064285Y-59578571D01*
X131992857Y-59721428D01*
X131921428Y-59792857D01*
X131778571Y-59864285D01*
X131207142Y-59864285D01*
X132635714Y-59221428D02*
X132707142Y-59150000D01*
X132849999Y-59078571D01*
X133207142Y-59078571D01*
X133349999Y-59150000D01*
X133421428Y-59221428D01*
X133492857Y-59364285D01*
X133492857Y-59507142D01*
X133421428Y-59721428D01*
X132564285Y-60578571D01*
X133492857Y-60578571D01*
X133992857Y-61150000D02*
X134064285Y-61078571D01*
X134207142Y-60864285D01*
X134278571Y-60721428D01*
X134350000Y-60507142D01*
X134421428Y-60150000D01*
X134421428Y-59864285D01*
X134350000Y-59507142D01*
X134278571Y-59292857D01*
X134207142Y-59150000D01*
X134064285Y-58935714D01*
X133992857Y-58864285D01*
X136492857Y-59078571D02*
X136492857Y-59435714D01*
X136135714Y-59292857D02*
X136492857Y-59435714D01*
X136850000Y-59292857D01*
X136278571Y-59721428D02*
X136492857Y-59435714D01*
X136707142Y-59721428D01*
X139421428Y-60435714D02*
X139350000Y-60507142D01*
X139135714Y-60578571D01*
X138992857Y-60578571D01*
X138778571Y-60507142D01*
X138635714Y-60364285D01*
X138564285Y-60221428D01*
X138492857Y-59935714D01*
X138492857Y-59721428D01*
X138564285Y-59435714D01*
X138635714Y-59292857D01*
X138778571Y-59150000D01*
X138992857Y-59078571D01*
X139135714Y-59078571D01*
X139350000Y-59150000D01*
X139421428Y-59221428D01*
X139921428Y-61150000D02*
X139992857Y-61078571D01*
X140135714Y-60864285D01*
X140207142Y-60721428D01*
X140278571Y-60507142D01*
X140350000Y-60150000D01*
X140350000Y-59864285D01*
X140278571Y-59507142D01*
X140207142Y-59292857D01*
X140135714Y-59150000D01*
X139992857Y-58935714D01*
X139921428Y-58864285D01*
D11*
%TO.C,U1*%
X115648095Y-67722380D02*
X115648095Y-68531904D01*
X115695714Y-68627142D01*
X115743333Y-68674761D01*
X115838571Y-68722380D01*
X116029047Y-68722380D01*
X116124285Y-68674761D01*
X116171904Y-68627142D01*
X116219523Y-68531904D01*
X116219523Y-67722380D01*
X117219523Y-68722380D02*
X116648095Y-68722380D01*
X116933809Y-68722380D02*
X116933809Y-67722380D01*
X116838571Y-67865238D01*
X116743333Y-67960476D01*
X116648095Y-68008095D01*
%TO.C,R3*%
X142372380Y-86516666D02*
X141896190Y-86850000D01*
X142372380Y-87088095D02*
X141372380Y-87088095D01*
X141372380Y-86707142D01*
X141420000Y-86611904D01*
X141467619Y-86564285D01*
X141562857Y-86516666D01*
X141705714Y-86516666D01*
X141800952Y-86564285D01*
X141848571Y-86611904D01*
X141896190Y-86707142D01*
X141896190Y-87088095D01*
X141372380Y-86183333D02*
X141372380Y-85564285D01*
X141753333Y-85897619D01*
X141753333Y-85754761D01*
X141800952Y-85659523D01*
X141848571Y-85611904D01*
X141943809Y-85564285D01*
X142181904Y-85564285D01*
X142277142Y-85611904D01*
X142324761Y-85659523D01*
X142372380Y-85754761D01*
X142372380Y-86040476D01*
X142324761Y-86135714D01*
X142277142Y-86183333D01*
%TO.C,R2*%
X142272380Y-71316666D02*
X141796190Y-71650000D01*
X142272380Y-71888095D02*
X141272380Y-71888095D01*
X141272380Y-71507142D01*
X141320000Y-71411904D01*
X141367619Y-71364285D01*
X141462857Y-71316666D01*
X141605714Y-71316666D01*
X141700952Y-71364285D01*
X141748571Y-71411904D01*
X141796190Y-71507142D01*
X141796190Y-71888095D01*
X141367619Y-70935714D02*
X141320000Y-70888095D01*
X141272380Y-70792857D01*
X141272380Y-70554761D01*
X141320000Y-70459523D01*
X141367619Y-70411904D01*
X141462857Y-70364285D01*
X141558095Y-70364285D01*
X141700952Y-70411904D01*
X142272380Y-70983333D01*
X142272380Y-70364285D01*
%TO.C,R1*%
X111172380Y-82266666D02*
X110696190Y-82600000D01*
X111172380Y-82838095D02*
X110172380Y-82838095D01*
X110172380Y-82457142D01*
X110220000Y-82361904D01*
X110267619Y-82314285D01*
X110362857Y-82266666D01*
X110505714Y-82266666D01*
X110600952Y-82314285D01*
X110648571Y-82361904D01*
X110696190Y-82457142D01*
X110696190Y-82838095D01*
X111172380Y-81314285D02*
X111172380Y-81885714D01*
X111172380Y-81600000D02*
X110172380Y-81600000D01*
X110315238Y-81695238D01*
X110410476Y-81790476D01*
X110458095Y-81885714D01*
%TO.C,J1*%
X120166666Y-65052380D02*
X120166666Y-65766666D01*
X120119047Y-65909523D01*
X120023809Y-66004761D01*
X119880952Y-66052380D01*
X119785714Y-66052380D01*
X121166666Y-66052380D02*
X120595238Y-66052380D01*
X120880952Y-66052380D02*
X120880952Y-65052380D01*
X120785714Y-65195238D01*
X120690476Y-65290476D01*
X120595238Y-65338095D01*
%TO.C,D1*%
X115666904Y-91912380D02*
X115666904Y-90912380D01*
X115905000Y-90912380D01*
X116047857Y-90960000D01*
X116143095Y-91055238D01*
X116190714Y-91150476D01*
X116238333Y-91340952D01*
X116238333Y-91483809D01*
X116190714Y-91674285D01*
X116143095Y-91769523D01*
X116047857Y-91864761D01*
X115905000Y-91912380D01*
X115666904Y-91912380D01*
X117190714Y-91912380D02*
X116619285Y-91912380D01*
X116905000Y-91912380D02*
X116905000Y-90912380D01*
X116809761Y-91055238D01*
X116714523Y-91150476D01*
X116619285Y-91198095D01*
%TO.C,C2*%
X123435984Y-94107142D02*
X123388365Y-94154761D01*
X123245508Y-94202380D01*
X123150270Y-94202380D01*
X123007412Y-94154761D01*
X122912174Y-94059523D01*
X122864555Y-93964285D01*
X122816936Y-93773809D01*
X122816936Y-93630952D01*
X122864555Y-93440476D01*
X122912174Y-93345238D01*
X123007412Y-93250000D01*
X123150270Y-93202380D01*
X123245508Y-93202380D01*
X123388365Y-93250000D01*
X123435984Y-93297619D01*
X123816936Y-93297619D02*
X123864555Y-93250000D01*
X123959793Y-93202380D01*
X124197889Y-93202380D01*
X124293127Y-93250000D01*
X124340746Y-93297619D01*
X124388365Y-93392857D01*
X124388365Y-93488095D01*
X124340746Y-93630952D01*
X123769317Y-94202380D01*
X124388365Y-94202380D01*
%TO.C,C1*%
X128633333Y-74457142D02*
X128585714Y-74504761D01*
X128442857Y-74552380D01*
X128347619Y-74552380D01*
X128204761Y-74504761D01*
X128109523Y-74409523D01*
X128061904Y-74314285D01*
X128014285Y-74123809D01*
X128014285Y-73980952D01*
X128061904Y-73790476D01*
X128109523Y-73695238D01*
X128204761Y-73600000D01*
X128347619Y-73552380D01*
X128442857Y-73552380D01*
X128585714Y-73600000D01*
X128633333Y-73647619D01*
X129585714Y-74552380D02*
X129014285Y-74552380D01*
X129300000Y-74552380D02*
X129300000Y-73552380D01*
X129204761Y-73695238D01*
X129109523Y-73790476D01*
X129014285Y-73838095D01*
D12*
%TO.C,U1*%
X119060000Y-69270000D02*
X117410000Y-69270000D01*
X113760000Y-69270000D02*
X113760000Y-79550000D01*
X119060000Y-79550000D02*
X119060000Y-69270000D01*
X115410000Y-69270000D02*
X113760000Y-69270000D01*
X113760000Y-79550000D02*
X119060000Y-79550000D01*
X115410000Y-69270000D02*
G75*
G03*
X117410000Y-69270000I1000000J0D01*
G01*
%TO.C,R3*%
X140920000Y-81730000D02*
X137480000Y-81730000D01*
X139200000Y-81040000D02*
X139200000Y-81730000D01*
X139200000Y-91660000D02*
X139200000Y-90970000D01*
X137480000Y-90970000D02*
X140920000Y-90970000D01*
X137480000Y-81730000D02*
X137480000Y-90970000D01*
X140920000Y-90970000D02*
X140920000Y-81730000D01*
%TO.C,R2*%
X140820000Y-66530000D02*
X137380000Y-66530000D01*
X139100000Y-65840000D02*
X139100000Y-66530000D01*
X139100000Y-76460000D02*
X139100000Y-75770000D01*
X137380000Y-75770000D02*
X140820000Y-75770000D01*
X137380000Y-66530000D02*
X137380000Y-75770000D01*
X140820000Y-75770000D02*
X140820000Y-66530000D01*
%TO.C,R1*%
X109720000Y-77480000D02*
X106280000Y-77480000D01*
X108000000Y-76790000D02*
X108000000Y-77480000D01*
X108000000Y-87410000D02*
X108000000Y-86720000D01*
X106280000Y-86720000D02*
X109720000Y-86720000D01*
X106280000Y-77480000D02*
X106280000Y-86720000D01*
X109720000Y-86720000D02*
X109720000Y-77480000D01*
%TO.C,J1*%
X117575000Y-64170000D02*
X118905000Y-64170000D01*
X113705000Y-64170000D02*
X113705000Y-66830000D01*
X116305000Y-64170000D02*
X113705000Y-64170000D01*
X116305000Y-64170000D02*
X116305000Y-66830000D01*
X118905000Y-64170000D02*
X118905000Y-65500000D01*
X116305000Y-66830000D02*
X113705000Y-66830000D01*
%TO.C,D1*%
X117965000Y-89736000D02*
X117965000Y-89580000D01*
X117965000Y-87420000D02*
X117965000Y-87264000D01*
X115363870Y-89579837D02*
G75*
G03*
X117445961Y-89580000I1041130J1079837D01*
G01*
X117965000Y-87264484D02*
G75*
G03*
X114732665Y-87421392I-1560000J-1235516D01*
G01*
X117445961Y-87420000D02*
G75*
G03*
X115363870Y-87420163I-1040961J-1080000D01*
G01*
X114732665Y-89578608D02*
G75*
G03*
X117965000Y-89735516I1672335J1078608D01*
G01*
%TO.C,C2*%
X122641651Y-92467000D02*
X122641651Y-84533000D01*
X119801651Y-90052000D02*
X119801651Y-86948000D01*
X120121651Y-90666000D02*
X120121651Y-89540000D01*
X121921651Y-87460000D02*
X121921651Y-84778000D01*
X120761651Y-91445000D02*
X120761651Y-89540000D01*
X122801651Y-92502000D02*
X122801651Y-84498000D01*
X121601651Y-87460000D02*
X121601651Y-84938000D01*
X122601651Y-92457000D02*
X122601651Y-84543000D01*
X121361651Y-87460000D02*
X121361651Y-85082000D01*
X122121651Y-92305000D02*
X122121651Y-89540000D01*
X121001651Y-87460000D02*
X121001651Y-85344000D01*
X119761651Y-89953000D02*
X119761651Y-87047000D01*
X122761651Y-92494000D02*
X122761651Y-84506000D01*
X123362651Y-92574000D02*
X123362651Y-84426000D01*
X120001651Y-90464000D02*
X120001651Y-86536000D01*
X123122651Y-92552000D02*
X123122651Y-84448000D01*
X120521651Y-87460000D02*
X120521651Y-85803000D01*
X120401651Y-87460000D02*
X120401651Y-85944000D01*
X119521651Y-89033000D02*
X119521651Y-87967000D01*
X120721651Y-87460000D02*
X120721651Y-85593000D01*
X121281651Y-87460000D02*
X121281651Y-85135000D01*
X123162651Y-92557000D02*
X123162651Y-84443000D01*
X123522651Y-92580000D02*
X123522651Y-84420000D01*
X121241651Y-87460000D02*
X121241651Y-85162000D01*
X121561651Y-92040000D02*
X121561651Y-89540000D01*
X120481651Y-91151000D02*
X120481651Y-89540000D01*
X120201651Y-90787000D02*
X120201651Y-89540000D01*
X120401651Y-91056000D02*
X120401651Y-89540000D01*
X121361651Y-91918000D02*
X121361651Y-89540000D01*
X120921651Y-87460000D02*
X120921651Y-85410000D01*
X120561651Y-91241000D02*
X120561651Y-89540000D01*
X122121651Y-87460000D02*
X122121651Y-84695000D01*
X119681651Y-89729000D02*
X119681651Y-87271000D01*
X122401651Y-92402000D02*
X122401651Y-84598000D01*
X121881651Y-92204000D02*
X121881651Y-89540000D01*
X121001651Y-91656000D02*
X121001651Y-89540000D01*
X128012349Y-90815000D02*
X127212349Y-90815000D01*
X122721651Y-92485000D02*
X122721651Y-84515000D01*
X122321651Y-92377000D02*
X122321651Y-84623000D01*
X122962651Y-92530000D02*
X122962651Y-84470000D01*
X122001651Y-92257000D02*
X122001651Y-89540000D01*
X120881651Y-91555000D02*
X120881651Y-89540000D01*
X120081651Y-90602000D02*
X120081651Y-89540000D01*
X122441651Y-92414000D02*
X122441651Y-84586000D01*
X121241651Y-91838000D02*
X121241651Y-89540000D01*
X119601651Y-89448000D02*
X119601651Y-87552000D01*
X121841651Y-92186000D02*
X121841651Y-89540000D01*
X119921651Y-90313000D02*
X119921651Y-86687000D01*
X121481651Y-87460000D02*
X121481651Y-85007000D01*
X122281651Y-92363000D02*
X122281651Y-84637000D01*
X121761651Y-92147000D02*
X121761651Y-89540000D01*
X120761651Y-87460000D02*
X120761651Y-85555000D01*
X119721651Y-89846000D02*
X119721651Y-87154000D01*
X121521651Y-87460000D02*
X121521651Y-84983000D01*
X127612349Y-91215000D02*
X127612349Y-90415000D01*
X121321651Y-91892000D02*
X121321651Y-89540000D01*
X121921651Y-92222000D02*
X121921651Y-89540000D01*
X121961651Y-87460000D02*
X121961651Y-84760000D01*
X122521651Y-92436000D02*
X122521651Y-84564000D01*
X121441651Y-87460000D02*
X121441651Y-85031000D01*
X120881651Y-87460000D02*
X120881651Y-85445000D01*
X120961651Y-91624000D02*
X120961651Y-89540000D01*
X123282651Y-92568000D02*
X123282651Y-84432000D01*
X122041651Y-87460000D02*
X122041651Y-84726000D01*
X120321651Y-90954000D02*
X120321651Y-89540000D01*
X120161651Y-87460000D02*
X120161651Y-86272000D01*
X122481651Y-92425000D02*
X122481651Y-84575000D01*
X119841651Y-90145000D02*
X119841651Y-86855000D01*
X121401651Y-91944000D02*
X121401651Y-89540000D01*
X123042651Y-92542000D02*
X123042651Y-84458000D01*
X120961651Y-87460000D02*
X120961651Y-85376000D01*
X120441651Y-91104000D02*
X120441651Y-89540000D01*
X120081651Y-87460000D02*
X120081651Y-86398000D01*
X119641651Y-89598000D02*
X119641651Y-87402000D01*
X121641651Y-92084000D02*
X121641651Y-89540000D01*
X121041651Y-91689000D02*
X121041651Y-89540000D01*
X122681651Y-92476000D02*
X122681651Y-84524000D01*
X120601651Y-91284000D02*
X120601651Y-89540000D01*
X122361651Y-92389000D02*
X122361651Y-84611000D01*
X119561651Y-89268000D02*
X119561651Y-87732000D01*
X122081651Y-87460000D02*
X122081651Y-84710000D01*
X121561651Y-87460000D02*
X121561651Y-84960000D01*
X121681651Y-92106000D02*
X121681651Y-89540000D01*
X121401651Y-87460000D02*
X121401651Y-85056000D01*
X121801651Y-87460000D02*
X121801651Y-84834000D01*
X121641651Y-87460000D02*
X121641651Y-84916000D01*
X120841651Y-87460000D02*
X120841651Y-85481000D01*
X120281651Y-87460000D02*
X120281651Y-86100000D01*
X123002651Y-92537000D02*
X123002651Y-84463000D01*
X121761651Y-87460000D02*
X121761651Y-84853000D01*
X121841651Y-87460000D02*
X121841651Y-84814000D01*
X121721651Y-87460000D02*
X121721651Y-84873000D01*
X123242651Y-92565000D02*
X123242651Y-84435000D01*
X123082651Y-92548000D02*
X123082651Y-84452000D01*
X119961651Y-90390000D02*
X119961651Y-86610000D01*
X122881651Y-92517000D02*
X122881651Y-84483000D01*
X122201651Y-92335000D02*
X122201651Y-84665000D01*
X121321651Y-87460000D02*
X121321651Y-85108000D01*
X121161651Y-87460000D02*
X121161651Y-85220000D01*
X120841651Y-91519000D02*
X120841651Y-89540000D01*
X122001651Y-87460000D02*
X122001651Y-84743000D01*
X120281651Y-90900000D02*
X120281651Y-89540000D01*
X121281651Y-91865000D02*
X121281651Y-89540000D01*
X121801651Y-92166000D02*
X121801651Y-89540000D01*
X123322651Y-92571000D02*
X123322651Y-84429000D01*
X120801651Y-91483000D02*
X120801651Y-89540000D01*
X120361651Y-87460000D02*
X120361651Y-85995000D01*
X122161651Y-92321000D02*
X122161651Y-84679000D01*
X123482651Y-92579000D02*
X123482651Y-84421000D01*
X120161651Y-90728000D02*
X120161651Y-89540000D01*
X120441651Y-87460000D02*
X120441651Y-85896000D01*
X121681651Y-87460000D02*
X121681651Y-84894000D01*
X123442651Y-92577000D02*
X123442651Y-84423000D01*
X121121651Y-87460000D02*
X121121651Y-85250000D01*
X122041651Y-92274000D02*
X122041651Y-89540000D01*
X120801651Y-87460000D02*
X120801651Y-85517000D01*
X121521651Y-92017000D02*
X121521651Y-89540000D01*
X120641651Y-91326000D02*
X120641651Y-89540000D01*
X121961651Y-92240000D02*
X121961651Y-89540000D01*
X120601651Y-87460000D02*
X120601651Y-85716000D01*
X120561651Y-87460000D02*
X120561651Y-85759000D01*
X123562651Y-92580000D02*
X123562651Y-84420000D01*
X122922651Y-92524000D02*
X122922651Y-84476000D01*
X122561651Y-92447000D02*
X122561651Y-84553000D01*
X120241651Y-87460000D02*
X120241651Y-86155000D01*
X121441651Y-91969000D02*
X121441651Y-89540000D01*
X123602651Y-92580000D02*
X123602651Y-84420000D01*
X121081651Y-91720000D02*
X121081651Y-89540000D01*
X120241651Y-90845000D02*
X120241651Y-89540000D01*
X120921651Y-91590000D02*
X120921651Y-89540000D01*
X120361651Y-91005000D02*
X120361651Y-89540000D01*
X120321651Y-87460000D02*
X120321651Y-86046000D01*
X121601651Y-92062000D02*
X121601651Y-89540000D01*
X121881651Y-87460000D02*
X121881651Y-84796000D01*
X120201651Y-87460000D02*
X120201651Y-86213000D01*
X123202651Y-92561000D02*
X123202651Y-84439000D01*
X120521651Y-91197000D02*
X120521651Y-89540000D01*
X120041651Y-90534000D02*
X120041651Y-86466000D01*
X121081651Y-87460000D02*
X121081651Y-85280000D01*
X120721651Y-91407000D02*
X120721651Y-89540000D01*
X121201651Y-87460000D02*
X121201651Y-85191000D01*
X122081651Y-92290000D02*
X122081651Y-89540000D01*
X120481651Y-87460000D02*
X120481651Y-85849000D01*
X122841651Y-92510000D02*
X122841651Y-84490000D01*
X120681651Y-87460000D02*
X120681651Y-85633000D01*
X121041651Y-87460000D02*
X121041651Y-85311000D01*
X120681651Y-91367000D02*
X120681651Y-89540000D01*
X120641651Y-87460000D02*
X120641651Y-85674000D01*
X121201651Y-91809000D02*
X121201651Y-89540000D01*
X121161651Y-91780000D02*
X121161651Y-89540000D01*
X123402651Y-92576000D02*
X123402651Y-84424000D01*
X121121651Y-91750000D02*
X121121651Y-89540000D01*
X121721651Y-92127000D02*
X121721651Y-89540000D01*
X121481651Y-91993000D02*
X121481651Y-89540000D01*
X120121651Y-87460000D02*
X120121651Y-86334000D01*
X119881651Y-90231000D02*
X119881651Y-86769000D01*
X122241651Y-92350000D02*
X122241651Y-84650000D01*
X127722651Y-88500000D02*
G75*
G03*
X127722651Y-88500000I-4120000J0D01*
G01*
%TO.C,C1*%
X132867000Y-80358349D02*
X124933000Y-80358349D01*
X130452000Y-83198349D02*
X127348000Y-83198349D01*
X131066000Y-82878349D02*
X129940000Y-82878349D01*
X127860000Y-81078349D02*
X125178000Y-81078349D01*
X131845000Y-82238349D02*
X129940000Y-82238349D01*
X132902000Y-80198349D02*
X124898000Y-80198349D01*
X127860000Y-81398349D02*
X125338000Y-81398349D01*
X132857000Y-80398349D02*
X124943000Y-80398349D01*
X127860000Y-81638349D02*
X125482000Y-81638349D01*
X132705000Y-80878349D02*
X129940000Y-80878349D01*
X127860000Y-81998349D02*
X125744000Y-81998349D01*
X130353000Y-83238349D02*
X127447000Y-83238349D01*
X132894000Y-80238349D02*
X124906000Y-80238349D01*
X132974000Y-79637349D02*
X124826000Y-79637349D01*
X130864000Y-82998349D02*
X126936000Y-82998349D01*
X132952000Y-79877349D02*
X124848000Y-79877349D01*
X127860000Y-82478349D02*
X126203000Y-82478349D01*
X127860000Y-82598349D02*
X126344000Y-82598349D01*
X129433000Y-83478349D02*
X128367000Y-83478349D01*
X127860000Y-82278349D02*
X125993000Y-82278349D01*
X127860000Y-81718349D02*
X125535000Y-81718349D01*
X132957000Y-79837349D02*
X124843000Y-79837349D01*
X132980000Y-79477349D02*
X124820000Y-79477349D01*
X127860000Y-81758349D02*
X125562000Y-81758349D01*
X132440000Y-81438349D02*
X129940000Y-81438349D01*
X131551000Y-82518349D02*
X129940000Y-82518349D01*
X131187000Y-82798349D02*
X129940000Y-82798349D01*
X131456000Y-82598349D02*
X129940000Y-82598349D01*
X132318000Y-81638349D02*
X129940000Y-81638349D01*
X127860000Y-82078349D02*
X125810000Y-82078349D01*
X131641000Y-82438349D02*
X129940000Y-82438349D01*
X127860000Y-80878349D02*
X125095000Y-80878349D01*
X130129000Y-83318349D02*
X127671000Y-83318349D01*
X132802000Y-80598349D02*
X124998000Y-80598349D01*
X132604000Y-81118349D02*
X129940000Y-81118349D01*
X132056000Y-81998349D02*
X129940000Y-81998349D01*
X131215000Y-74987651D02*
X131215000Y-75787651D01*
X132885000Y-80278349D02*
X124915000Y-80278349D01*
X132777000Y-80678349D02*
X125023000Y-80678349D01*
X132930000Y-80037349D02*
X124870000Y-80037349D01*
X132657000Y-80998349D02*
X129940000Y-80998349D01*
X131955000Y-82118349D02*
X129940000Y-82118349D01*
X131002000Y-82918349D02*
X129940000Y-82918349D01*
X132814000Y-80558349D02*
X124986000Y-80558349D01*
X132238000Y-81758349D02*
X129940000Y-81758349D01*
X129848000Y-83398349D02*
X127952000Y-83398349D01*
X132586000Y-81158349D02*
X129940000Y-81158349D01*
X130713000Y-83078349D02*
X127087000Y-83078349D01*
X127860000Y-81518349D02*
X125407000Y-81518349D01*
X132763000Y-80718349D02*
X125037000Y-80718349D01*
X132547000Y-81238349D02*
X129940000Y-81238349D01*
X127860000Y-82238349D02*
X125955000Y-82238349D01*
X130246000Y-83278349D02*
X127554000Y-83278349D01*
X127860000Y-81478349D02*
X125383000Y-81478349D01*
X131615000Y-75387651D02*
X130815000Y-75387651D01*
X132292000Y-81678349D02*
X129940000Y-81678349D01*
X132622000Y-81078349D02*
X129940000Y-81078349D01*
X127860000Y-81038349D02*
X125160000Y-81038349D01*
X132836000Y-80478349D02*
X124964000Y-80478349D01*
X127860000Y-81558349D02*
X125431000Y-81558349D01*
X127860000Y-82118349D02*
X125845000Y-82118349D01*
X132024000Y-82038349D02*
X129940000Y-82038349D01*
X132968000Y-79717349D02*
X124832000Y-79717349D01*
X127860000Y-80958349D02*
X125126000Y-80958349D01*
X131354000Y-82678349D02*
X129940000Y-82678349D01*
X127860000Y-82838349D02*
X126672000Y-82838349D01*
X132825000Y-80518349D02*
X124975000Y-80518349D01*
X130545000Y-83158349D02*
X127255000Y-83158349D01*
X132344000Y-81598349D02*
X129940000Y-81598349D01*
X132942000Y-79957349D02*
X124858000Y-79957349D01*
X127860000Y-82038349D02*
X125776000Y-82038349D01*
X131504000Y-82558349D02*
X129940000Y-82558349D01*
X127860000Y-82918349D02*
X126798000Y-82918349D01*
X129998000Y-83358349D02*
X127802000Y-83358349D01*
X132484000Y-81358349D02*
X129940000Y-81358349D01*
X132089000Y-81958349D02*
X129940000Y-81958349D01*
X132876000Y-80318349D02*
X124924000Y-80318349D01*
X131684000Y-82398349D02*
X129940000Y-82398349D01*
X132789000Y-80638349D02*
X125011000Y-80638349D01*
X129668000Y-83438349D02*
X128132000Y-83438349D01*
X127860000Y-80918349D02*
X125110000Y-80918349D01*
X127860000Y-81438349D02*
X125360000Y-81438349D01*
X132506000Y-81318349D02*
X129940000Y-81318349D01*
X127860000Y-81598349D02*
X125456000Y-81598349D01*
X127860000Y-81198349D02*
X125234000Y-81198349D01*
X127860000Y-81358349D02*
X125316000Y-81358349D01*
X127860000Y-82158349D02*
X125881000Y-82158349D01*
X127860000Y-82718349D02*
X126500000Y-82718349D01*
X132937000Y-79997349D02*
X124863000Y-79997349D01*
X127860000Y-81238349D02*
X125253000Y-81238349D01*
X127860000Y-81158349D02*
X125214000Y-81158349D01*
X127860000Y-81278349D02*
X125273000Y-81278349D01*
X132965000Y-79757349D02*
X124835000Y-79757349D01*
X132948000Y-79917349D02*
X124852000Y-79917349D01*
X130790000Y-83038349D02*
X127010000Y-83038349D01*
X132917000Y-80118349D02*
X124883000Y-80118349D01*
X132735000Y-80798349D02*
X125065000Y-80798349D01*
X127860000Y-81678349D02*
X125508000Y-81678349D01*
X127860000Y-81838349D02*
X125620000Y-81838349D01*
X131919000Y-82158349D02*
X129940000Y-82158349D01*
X127860000Y-80998349D02*
X125143000Y-80998349D01*
X131300000Y-82718349D02*
X129940000Y-82718349D01*
X132265000Y-81718349D02*
X129940000Y-81718349D01*
X132566000Y-81198349D02*
X129940000Y-81198349D01*
X132971000Y-79677349D02*
X124829000Y-79677349D01*
X131883000Y-82198349D02*
X129940000Y-82198349D01*
X127860000Y-82638349D02*
X126395000Y-82638349D01*
X132721000Y-80838349D02*
X125079000Y-80838349D01*
X132979000Y-79517349D02*
X124821000Y-79517349D01*
X131128000Y-82838349D02*
X129940000Y-82838349D01*
X127860000Y-82558349D02*
X126296000Y-82558349D01*
X127860000Y-81318349D02*
X125294000Y-81318349D01*
X132977000Y-79557349D02*
X124823000Y-79557349D01*
X127860000Y-81878349D02*
X125650000Y-81878349D01*
X132674000Y-80958349D02*
X129940000Y-80958349D01*
X127860000Y-82198349D02*
X125917000Y-82198349D01*
X132417000Y-81478349D02*
X129940000Y-81478349D01*
X131726000Y-82358349D02*
X129940000Y-82358349D01*
X132640000Y-81038349D02*
X129940000Y-81038349D01*
X127860000Y-82398349D02*
X126116000Y-82398349D01*
X127860000Y-82438349D02*
X126159000Y-82438349D01*
X132980000Y-79437349D02*
X124820000Y-79437349D01*
X132924000Y-80077349D02*
X124876000Y-80077349D01*
X132847000Y-80438349D02*
X124953000Y-80438349D01*
X127860000Y-82758349D02*
X126555000Y-82758349D01*
X132369000Y-81558349D02*
X129940000Y-81558349D01*
X132980000Y-79397349D02*
X124820000Y-79397349D01*
X132120000Y-81918349D02*
X129940000Y-81918349D01*
X131245000Y-82758349D02*
X129940000Y-82758349D01*
X131990000Y-82078349D02*
X129940000Y-82078349D01*
X131405000Y-82638349D02*
X129940000Y-82638349D01*
X127860000Y-82678349D02*
X126446000Y-82678349D01*
X132462000Y-81398349D02*
X129940000Y-81398349D01*
X127860000Y-81118349D02*
X125196000Y-81118349D01*
X127860000Y-82798349D02*
X126613000Y-82798349D01*
X132961000Y-79797349D02*
X124839000Y-79797349D01*
X131597000Y-82478349D02*
X129940000Y-82478349D01*
X130934000Y-82958349D02*
X126866000Y-82958349D01*
X127860000Y-81918349D02*
X125680000Y-81918349D01*
X131807000Y-82278349D02*
X129940000Y-82278349D01*
X127860000Y-81798349D02*
X125591000Y-81798349D01*
X132690000Y-80918349D02*
X129940000Y-80918349D01*
X127860000Y-82518349D02*
X126249000Y-82518349D01*
X132910000Y-80158349D02*
X124890000Y-80158349D01*
X127860000Y-82318349D02*
X126033000Y-82318349D01*
X127860000Y-81958349D02*
X125711000Y-81958349D01*
X131767000Y-82318349D02*
X129940000Y-82318349D01*
X127860000Y-82358349D02*
X126074000Y-82358349D01*
X132209000Y-81798349D02*
X129940000Y-81798349D01*
X132180000Y-81838349D02*
X129940000Y-81838349D01*
X132976000Y-79597349D02*
X124824000Y-79597349D01*
X132150000Y-81878349D02*
X129940000Y-81878349D01*
X132527000Y-81278349D02*
X129940000Y-81278349D01*
X132393000Y-81518349D02*
X129940000Y-81518349D01*
X127860000Y-82878349D02*
X126734000Y-82878349D01*
X130631000Y-83118349D02*
X127169000Y-83118349D01*
X132750000Y-80758349D02*
X125050000Y-80758349D01*
X133020000Y-79397349D02*
G75*
G03*
X133020000Y-79397349I-4120000J0D01*
G01*
%TD*%
M02*
