M48
; DRILL file {KiCad (6.0.7)} date Thu Apr 27 18:42:04 2023
; FORMAT={-:-/ absolute / inch / decimal}
; #@! TF.CreationDate,2023-04-27T18:42:04+08:00
; #@! TF.GenerationSoftware,Kicad,Pcbnew,(6.0.7)
; #@! TF.FileFunction,Plated,1,4,PTH
FMAT,2
INCH
; #@! TA.AperFunction,Plated,PTH,ViaDrill
T1C0.0157
; #@! TA.AperFunction,Plated,PTH,ComponentDrill
T2C0.0197
; #@! TA.AperFunction,Plated,PTH,ComponentDrill
T3C0.0236
; #@! TA.AperFunction,Plated,PTH,ComponentDrill
T4C0.0394
; #@! TA.AperFunction,Plated,PTH,ComponentDrill
T5C0.0591
; #@! TA.AperFunction,Plated,PTH,ComponentDrill
T6C0.0669
; #@! TA.AperFunction,Plated,PTH,ComponentDrill
T7C0.1260
%
G90
G05
T1
X4.622Y-5.5276
X4.6378Y-2.5039
X4.6457Y-1.9606
X4.6693Y-5.2205
X4.6693Y-5.4882
X5.0236Y-4.9685
X5.0236Y-5.0709
X5.1024Y-4.9685
X5.1024Y-5.0709
X5.1417Y-1.8661
X5.1732Y-2.4724
X5.252Y-2.5039
X5.2756Y-5.1407
X5.2756Y-5.4557
X5.2913Y-1.8661
X5.3386Y-1.7008
X5.3858Y-2.4488
X5.3858Y-5.3061
X5.4567Y-5.3061
X5.4724Y-2.8898
X5.4724Y-4.3228
X5.4951Y-2.4341
X5.5039Y-2.7874
X5.5276Y-5.3061
X5.5354Y-2.685
X5.5354Y-3.5512
X5.5669Y-1.7795
X5.5837Y-3.6939
X5.5935Y-3.5571
X5.622Y-2.75
X5.622Y-2.7992
X5.622Y-2.8484
X5.622Y-2.8976
X5.622Y-2.9469
X5.622Y-2.9961
X5.622Y-3.0453
X5.622Y-3.0945
X5.622Y-3.1437
X5.622Y-3.1929
X5.622Y-3.2421
X5.6378Y-5.1407
X5.6378Y-5.4557
X5.6516Y-3.2618
X5.6713Y-2.75
X5.7008Y-1.7795
X5.7008Y-3.2618
X5.7008Y-3.9114
X5.7205Y-2.75
X5.7303Y-3.6949
X5.7411Y-3.5571
X5.75Y-3.2618
X5.7589Y-3.9124
X5.7697Y-2.75
X5.7894Y-3.5965
X5.7894Y-3.7362
X5.7992Y-3.2618
X5.7992Y-3.7736
X5.81Y-3.812
X5.8179Y-3.9518
X5.8189Y-2.75
X5.8681Y-2.75
X5.8878Y-3.6457
X5.8976Y-3.5079
X5.8976Y-3.5571
X5.9003Y-3.6037
X5.9173Y-2.75
X5.9469Y-3.5571
X5.9469Y-3.6358
X5.9518Y-3.375
X5.9567Y-3.2618
X5.9665Y-2.75
X5.9862Y-3.5965
X6.0Y-4.8898
X6.0157Y-2.75
X6.0256Y-3.5571
X6.0256Y-3.6358
X6.0256Y-3.9311
X6.0315Y-2.4409
X6.0335Y-3.3976
X6.0453Y-3.2618
X6.065Y-2.75
X6.065Y-4.0492
X6.0728Y-3.5079
X6.0728Y-3.5551
X6.0728Y-3.6949
X6.0748Y-3.3996
X6.0748Y-3.6555
X6.0756Y-3.6051
X6.0945Y-3.2618
X6.1142Y-2.75
X6.123Y-4.0492
X6.1437Y-3.2618
X6.1437Y-4.0787
X6.1614Y-2.5118
X6.1634Y-2.75
X6.1634Y-3.7146
X6.1654Y-4.1969
X6.1654Y-5.1024
X6.1909Y-3.5945
X6.1929Y-3.2618
X6.1929Y-3.6358
X6.1969Y-2.2362
X6.2028Y-3.5579
X6.2126Y-2.75
X6.2224Y-4.0295
X6.2362Y-2.5906
X6.2421Y-3.2618
X6.2618Y-2.75
X6.2805Y-4.0797
X6.2913Y-3.2618
X6.3012Y-2.7677
X6.3386Y-4.8898
X6.3386Y-5.0
X6.3386Y-5.1024
X6.3406Y-3.1693
X6.3406Y-3.2165
X6.3406Y-3.2618
X6.3415Y-5.3159
X6.3484Y-2.7677
X6.3504Y-3.4291
X6.3602Y-3.5581
X6.3612Y-3.7146
X6.3652Y-2.8159
X6.3652Y-2.8632
X6.3799Y-3.2402
X6.3858Y-2.5197
X6.3898Y-3.0157
X6.3898Y-3.065
X6.3898Y-3.1142
X6.3898Y-3.1634
X6.3907Y-2.9104
X6.3907Y-2.9596
X6.3967Y-4.7254
X6.4272Y-4.8917
X6.4272Y-5.1024
X6.4331Y-5.0
X6.4675Y-4.7254
X6.4685Y-3.6161
X6.5079Y-3.5079
X6.5197Y-4.8898
X6.5197Y-5.0
X6.5197Y-5.1024
X6.5197Y-5.2205
X6.5197Y-5.2677
X6.5276Y-3.2008
X6.5325Y-3.3425
X6.5531Y-3.6201
X6.5728Y-2.8445
X6.5729Y-2.6535
X6.5807Y-2.7028
X6.5807Y-2.7657
X6.5837Y-3.123
X6.6093Y-3.8819
X6.6142Y-1.7008
X6.626Y-3.4882
X6.6398Y-3.3504
X6.6654Y-3.5669
X6.7087Y-4.1969
X6.7087Y-5.1024
X6.7106Y-3.3268
X6.7146Y-3.3799
X6.7185Y-2.6122
X6.7402Y-2.1732
X6.75Y-3.1614
X6.7736Y-2.6122
X6.7736Y-3.2795
X6.8327Y-2.8445
X6.8425Y-1.9449
X6.8445Y-4.2648
X6.8445Y-4.4813
X6.8602Y-3.6486
X6.8643Y-2.813
X6.8839Y-3.0906
X6.9134Y-3.4665
X6.9193Y-2.7028
X6.9311Y-3.6732
X6.9508Y-2.6398
X6.9528Y-5.1024
X6.9606Y-2.4724
X6.9665Y-2.8524
X6.9764Y-1.9921
X7.0157Y-5.0
X7.0157Y-5.0709
X7.0315Y-2.6585
X7.0472Y-1.9055
X7.0866Y-2.4252
X7.0866Y-2.4724
X7.1181Y-2.8474
X7.1191Y-2.7795
X7.124Y-2.6161
X7.1319Y-2.7106
X7.1339Y-5.0
X7.1339Y-5.0709
X7.2047Y-5.2165
X7.2189Y-4.3559
X7.2362Y-3.626
X7.2362Y-3.9213
X7.2756Y-1.7008
X7.2756Y-3.2717
X7.2756Y-3.626
X7.2756Y-3.9213
X7.2776Y-2.4803
X7.3307Y-5.2441
X7.3307Y-5.4882
X7.3484Y-2.9488
X7.3543Y-5.5276
T2
X4.2126Y-1.8898
X4.2126Y-5.3543
X4.2403Y-1.823
X4.2403Y-1.9566
X4.2403Y-5.2875
X4.2403Y-5.4211
X4.3071Y-1.7953
X4.3071Y-1.9843
X4.3071Y-5.2598
X4.3071Y-5.4488
X4.3739Y-1.823
X4.3739Y-1.9566
X4.3739Y-5.2875
X4.3739Y-5.4211
X4.4016Y-1.8898
X4.4016Y-5.3543
X7.5512Y-1.8898
X7.5512Y-5.3543
X7.5789Y-1.823
X7.5789Y-1.9566
X7.5789Y-5.2875
X7.5789Y-5.4211
X7.6457Y-1.7953
X7.6457Y-1.9843
X7.6457Y-5.2598
X7.6457Y-5.4488
X7.7125Y-1.823
X7.7125Y-1.9566
X7.7125Y-5.2875
X7.7125Y-5.4211
X7.7402Y-1.8898
X7.7402Y-5.3543
T4
X4.6898Y-4.1201
X4.6898Y-4.2677
X4.6907Y-3.8346
X4.6907Y-3.9724
X4.7047Y-2.6839
X4.7047Y-2.7839
X4.7047Y-2.8839
X4.7047Y-2.9839
X4.7047Y-3.0839
X4.7047Y-3.1839
X4.7047Y-3.2839
X4.7047Y-3.3839
X4.7047Y-3.4839
X4.7047Y-3.5839
X4.7898Y-4.1201
X4.7898Y-4.2677
X4.7907Y-3.8346
X4.7907Y-3.9724
X4.8524Y-2.6839
X4.8524Y-2.7839
X4.8524Y-2.8839
X4.8524Y-2.9839
X4.8524Y-3.0839
X4.8524Y-3.1839
X4.8524Y-3.2839
X4.8524Y-3.3839
X4.8524Y-3.4839
X4.8524Y-3.5839
X4.8898Y-4.1201
X4.8898Y-4.2677
X4.8907Y-3.8346
X4.8907Y-3.9724
X5.0Y-2.6841
X5.0Y-2.7841
X5.0Y-2.8841
X5.0Y-2.9841
X5.0Y-3.0841
X5.0Y-3.1841
X5.0Y-3.2841
X5.0Y-3.3841
X5.0Y-3.4841
X5.0Y-3.5841
X5.2441Y-2.9709
X5.2441Y-3.0709
X5.3937Y-2.9685
X5.3937Y-3.0685
X5.7976Y-1.8189
X5.8976Y-1.8189
X5.9976Y-1.8189
X7.1181Y-4.7244
X7.2181Y-4.7244
X7.3181Y-4.7244
T5
X6.4252Y-1.8209
T6
X6.3252Y-1.7209
X6.3252Y-1.9209
X6.5252Y-1.7209
X6.5252Y-1.9209
T7
X4.3071Y-1.8898
X4.3071Y-5.3543
X7.6457Y-1.8898
X7.6457Y-5.3543
T3
G00X7.124Y-4.1843
M15
G01X7.1634Y-4.1843
M16
G05
G00X7.124Y-4.5244
M15
G01X7.1634Y-4.5244
M16
G05
G00X7.2687Y-4.1843
M15
G01X7.3199Y-4.1843
M16
G05
G00X7.2687Y-4.5244
M15
G01X7.3199Y-4.5244
M16
G05
T0
M30
