%TF.GenerationSoftware,KiCad,Pcbnew,(6.0.7)*%
%TF.CreationDate,2023-04-27T13:47:55+08:00*%
%TF.ProjectId,Engineering 2023 UAV flight controller,456e6769-6e65-4657-9269-6e6720323032,1*%
%TF.SameCoordinates,Original*%
%TF.FileFunction,Soldermask,Bot*%
%TF.FilePolarity,Negative*%
%FSLAX46Y46*%
G04 Gerber Fmt 4.6, Leading zero omitted, Abs format (unit mm)*
G04 Created by KiCad (PCBNEW (6.0.7)) date 2023-04-27 13:47:55*
%MOMM*%
%LPD*%
G01*
G04 APERTURE LIST*
G04 Aperture macros list*
%AMRoundRect*
0 Rectangle with rounded corners*
0 $1 Rounding radius*
0 $2 $3 $4 $5 $6 $7 $8 $9 X,Y pos of 4 corners*
0 Add a 4 corners polygon primitive as box body*
4,1,4,$2,$3,$4,$5,$6,$7,$8,$9,$2,$3,0*
0 Add four circle primitives for the rounded corners*
1,1,$1+$1,$2,$3*
1,1,$1+$1,$4,$5*
1,1,$1+$1,$6,$7*
1,1,$1+$1,$8,$9*
0 Add four rect primitives between the rounded corners*
20,1,$1+$1,$2,$3,$4,$5,0*
20,1,$1+$1,$4,$5,$6,$7,0*
20,1,$1+$1,$6,$7,$8,$9,0*
20,1,$1+$1,$8,$9,$2,$3,0*%
G04 Aperture macros list end*
%ADD10R,1.700000X1.700000*%
%ADD11O,1.700000X1.700000*%
%ADD12R,1.100000X4.600000*%
%ADD13C,0.800000*%
%ADD14C,6.400000*%
%ADD15C,0.600000*%
%ADD16O,0.600000X0.850000*%
%ADD17O,2.300000X1.300000*%
%ADD18O,2.600000X1.300000*%
%ADD19C,0.900000*%
%ADD20RoundRect,0.200100X0.949900X0.949900X-0.949900X0.949900X-0.949900X-0.949900X0.949900X-0.949900X0*%
%ADD21C,2.500000*%
G04 APERTURE END LIST*
D10*
%TO.C,M3*%
X124200000Y-104650000D03*
D11*
X121660000Y-104650000D03*
X119120000Y-104650000D03*
%TD*%
D12*
%TO.C,IC1*%
X135200000Y-125400000D03*
%TD*%
D10*
%TO.C,J8*%
X137000000Y-75400000D03*
D11*
X137000000Y-77940000D03*
%TD*%
D10*
%TO.C,J6*%
X127000000Y-68175000D03*
D11*
X127000000Y-70715000D03*
X127000000Y-73255000D03*
X127000000Y-75795000D03*
X127000000Y-78335000D03*
X127000000Y-80875000D03*
X127000000Y-83415000D03*
X127000000Y-85955000D03*
X127000000Y-88495000D03*
X127000000Y-91035000D03*
%TD*%
D13*
%TO.C,H2*%
X195897056Y-46302944D03*
X194200000Y-50400000D03*
X195897056Y-49697056D03*
X192502944Y-46302944D03*
X192502944Y-49697056D03*
X194200000Y-45600000D03*
D14*
X194200000Y-48000000D03*
D13*
X191800000Y-48000000D03*
X196600000Y-48000000D03*
%TD*%
%TO.C,H1*%
X111097056Y-134302944D03*
X111800000Y-136000000D03*
X109400000Y-138400000D03*
X109400000Y-133600000D03*
X111097056Y-137697056D03*
D14*
X109400000Y-136000000D03*
D13*
X107702944Y-134302944D03*
X107000000Y-136000000D03*
X107702944Y-137697056D03*
%TD*%
D10*
%TO.C,J7*%
X119500000Y-68170000D03*
D11*
X119500000Y-70710000D03*
X119500000Y-73250000D03*
X119500000Y-75790000D03*
X119500000Y-78330000D03*
X119500000Y-80870000D03*
X119500000Y-83410000D03*
X119500000Y-85950000D03*
X119500000Y-88490000D03*
X119500000Y-91030000D03*
%TD*%
D13*
%TO.C,H4*%
X107702944Y-46302944D03*
X111097056Y-49697056D03*
X109400000Y-45600000D03*
D14*
X109400000Y-48000000D03*
D13*
X111800000Y-48000000D03*
X111097056Y-46302944D03*
X107000000Y-48000000D03*
X109400000Y-50400000D03*
X107702944Y-49697056D03*
%TD*%
D10*
%TO.C,M1*%
X124225000Y-97400000D03*
D11*
X121685000Y-97400000D03*
X119145000Y-97400000D03*
%TD*%
D10*
%TO.C,M4*%
X124200000Y-108400000D03*
D11*
X121660000Y-108400000D03*
X119120000Y-108400000D03*
%TD*%
D10*
%TO.C,J2*%
X180800000Y-120000000D03*
D11*
X183340000Y-120000000D03*
X185880000Y-120000000D03*
%TD*%
D10*
%TO.C,M2*%
X124225000Y-100900000D03*
D11*
X121685000Y-100900000D03*
X119145000Y-100900000D03*
%TD*%
D13*
%TO.C,H3*%
X195897056Y-137697056D03*
X192502944Y-134302944D03*
X195897056Y-134302944D03*
X194200000Y-133600000D03*
X196600000Y-136000000D03*
D14*
X194200000Y-136000000D03*
D13*
X191800000Y-136000000D03*
X192502944Y-137697056D03*
X194200000Y-138400000D03*
%TD*%
D10*
%TO.C,J9*%
X133200000Y-78000000D03*
D11*
X133200000Y-75460000D03*
%TD*%
D15*
%TO.C,J3*%
X182175000Y-113600000D03*
D16*
X182175000Y-107600000D03*
D17*
X181450000Y-114920000D03*
D18*
X185275000Y-114920000D03*
D17*
X181450000Y-106280000D03*
D18*
X185275000Y-106280000D03*
%TD*%
D10*
%TO.C,J5*%
X123250000Y-68170000D03*
D11*
X123250000Y-70710000D03*
X123250000Y-73250000D03*
X123250000Y-75790000D03*
X123250000Y-78330000D03*
X123250000Y-80870000D03*
X123250000Y-83410000D03*
X123250000Y-85950000D03*
X123250000Y-88490000D03*
X123250000Y-91030000D03*
%TD*%
D19*
%TO.C,SW1*%
X186200000Y-124600000D03*
X186200000Y-131400000D03*
%TD*%
D10*
%TO.C,J10*%
X152340000Y-46200000D03*
D11*
X149800000Y-46200000D03*
X147260000Y-46200000D03*
%TD*%
D20*
%TO.C,J4*%
X163200000Y-46250000D03*
D21*
X160660000Y-48790000D03*
X165740000Y-43710000D03*
X160660000Y-43710000D03*
X165740000Y-48790000D03*
%TD*%
%TO.C,TP3*%
X156400000Y-63800000D03*
%TD*%
M02*
