%TF.GenerationSoftware,KiCad,Pcbnew,(6.0.7)*%
%TF.CreationDate,2023-04-27T13:47:55+08:00*%
%TF.ProjectId,Engineering 2023 UAV flight controller,456e6769-6e65-4657-9269-6e6720323032,1*%
%TF.SameCoordinates,Original*%
%TF.FileFunction,Copper,L4,Bot*%
%TF.FilePolarity,Positive*%
%FSLAX46Y46*%
G04 Gerber Fmt 4.6, Leading zero omitted, Abs format (unit mm)*
G04 Created by KiCad (PCBNEW (6.0.7)) date 2023-04-27 13:47:55*
%MOMM*%
%LPD*%
G01*
G04 APERTURE LIST*
G04 Aperture macros list*
%AMRoundRect*
0 Rectangle with rounded corners*
0 $1 Rounding radius*
0 $2 $3 $4 $5 $6 $7 $8 $9 X,Y pos of 4 corners*
0 Add a 4 corners polygon primitive as box body*
4,1,4,$2,$3,$4,$5,$6,$7,$8,$9,$2,$3,0*
0 Add four circle primitives for the rounded corners*
1,1,$1+$1,$2,$3*
1,1,$1+$1,$4,$5*
1,1,$1+$1,$6,$7*
1,1,$1+$1,$8,$9*
0 Add four rect primitives between the rounded corners*
20,1,$1+$1,$2,$3,$4,$5,0*
20,1,$1+$1,$4,$5,$6,$7,0*
20,1,$1+$1,$6,$7,$8,$9,0*
20,1,$1+$1,$8,$9,$2,$3,0*%
G04 Aperture macros list end*
%TA.AperFunction,ComponentPad*%
%ADD10R,1.700000X1.700000*%
%TD*%
%TA.AperFunction,ComponentPad*%
%ADD11O,1.700000X1.700000*%
%TD*%
%TA.AperFunction,ComponentPad*%
%ADD12C,0.800000*%
%TD*%
%TA.AperFunction,ComponentPad*%
%ADD13C,6.400000*%
%TD*%
%TA.AperFunction,ComponentPad*%
%ADD14O,2.300000X1.300000*%
%TD*%
%TA.AperFunction,ComponentPad*%
%ADD15O,2.600000X1.300000*%
%TD*%
%TA.AperFunction,ComponentPad*%
%ADD16RoundRect,0.200100X0.949900X0.949900X-0.949900X0.949900X-0.949900X-0.949900X0.949900X-0.949900X0*%
%TD*%
%TA.AperFunction,ComponentPad*%
%ADD17C,2.500000*%
%TD*%
%TA.AperFunction,SMDPad,CuDef*%
%ADD18C,2.500000*%
%TD*%
%TA.AperFunction,ViaPad*%
%ADD19C,0.800000*%
%TD*%
%TA.AperFunction,Conductor*%
%ADD20C,0.300000*%
%TD*%
%TA.AperFunction,Conductor*%
%ADD21C,0.250000*%
%TD*%
G04 APERTURE END LIST*
D10*
%TO.P,M3,1,PWM*%
%TO.N,/Elevator Left PWM*%
X124200000Y-104650000D03*
D11*
%TO.P,M3,2,+*%
%TO.N,/Servo 6V rail*%
X121660000Y-104650000D03*
%TO.P,M3,3,-*%
%TO.N,GND*%
X119120000Y-104650000D03*
%TD*%
D10*
%TO.P,J8,1,Pin_1*%
%TO.N,/SWCLK*%
X137000000Y-75400000D03*
D11*
%TO.P,J8,2,Pin_2*%
%TO.N,/SWD*%
X137000000Y-77940000D03*
%TD*%
D10*
%TO.P,J6,1,Pin_1*%
%TO.N,/External_pin_1*%
X127000000Y-68175000D03*
D11*
%TO.P,J6,2,Pin_2*%
%TO.N,/External_pin_2*%
X127000000Y-70715000D03*
%TO.P,J6,3,Pin_3*%
%TO.N,/External_pin_3*%
X127000000Y-73255000D03*
%TO.P,J6,4,Pin_4*%
%TO.N,/External_pin_4*%
X127000000Y-75795000D03*
%TO.P,J6,5,Pin_5*%
%TO.N,/External_pin_5*%
X127000000Y-78335000D03*
%TO.P,J6,6,Pin_6*%
%TO.N,/External_pin_6*%
X127000000Y-80875000D03*
%TO.P,J6,7,Pin_7*%
%TO.N,/External_pin_7*%
X127000000Y-83415000D03*
%TO.P,J6,8,Pin_8*%
%TO.N,/External_pin_8*%
X127000000Y-85955000D03*
%TO.P,J6,9,Pin_9*%
%TO.N,/External_pin_9*%
X127000000Y-88495000D03*
%TO.P,J6,10,Pin_10*%
%TO.N,/External_pin_10*%
X127000000Y-91035000D03*
%TD*%
D12*
%TO.P,H2,1,1*%
%TO.N,GND*%
X195897056Y-46302944D03*
X194200000Y-50400000D03*
X195897056Y-49697056D03*
X192502944Y-46302944D03*
X192502944Y-49697056D03*
X194200000Y-45600000D03*
D13*
X194200000Y-48000000D03*
D12*
X191800000Y-48000000D03*
X196600000Y-48000000D03*
%TD*%
%TO.P,H1,1,1*%
%TO.N,GND*%
X111097056Y-134302944D03*
X111800000Y-136000000D03*
X109400000Y-138400000D03*
X109400000Y-133600000D03*
X111097056Y-137697056D03*
D13*
X109400000Y-136000000D03*
D12*
X107702944Y-134302944D03*
X107000000Y-136000000D03*
X107702944Y-137697056D03*
%TD*%
D10*
%TO.P,J7,1,Pin_1*%
%TO.N,GND*%
X119500000Y-68170000D03*
D11*
%TO.P,J7,2,Pin_2*%
X119500000Y-70710000D03*
%TO.P,J7,3,Pin_3*%
X119500000Y-73250000D03*
%TO.P,J7,4,Pin_4*%
X119500000Y-75790000D03*
%TO.P,J7,5,Pin_5*%
X119500000Y-78330000D03*
%TO.P,J7,6,Pin_6*%
X119500000Y-80870000D03*
%TO.P,J7,7,Pin_7*%
X119500000Y-83410000D03*
%TO.P,J7,8,Pin_8*%
X119500000Y-85950000D03*
%TO.P,J7,9,Pin_9*%
X119500000Y-88490000D03*
%TO.P,J7,10,Pin_10*%
X119500000Y-91030000D03*
%TD*%
D12*
%TO.P,H4,1,1*%
%TO.N,GND*%
X107702944Y-46302944D03*
X111097056Y-49697056D03*
X109400000Y-45600000D03*
D13*
X109400000Y-48000000D03*
D12*
X111800000Y-48000000D03*
X111097056Y-46302944D03*
X107000000Y-48000000D03*
X109400000Y-50400000D03*
X107702944Y-49697056D03*
%TD*%
D10*
%TO.P,M1,1,PWM*%
%TO.N,/Aileron Left PWM*%
X124225000Y-97400000D03*
D11*
%TO.P,M1,2,+*%
%TO.N,/Servo 6V rail*%
X121685000Y-97400000D03*
%TO.P,M1,3,-*%
%TO.N,GND*%
X119145000Y-97400000D03*
%TD*%
D10*
%TO.P,M4,1,PWM*%
%TO.N,/Elevator Right PWM*%
X124200000Y-108400000D03*
D11*
%TO.P,M4,2,+*%
%TO.N,/Servo 6V rail*%
X121660000Y-108400000D03*
%TO.P,M4,3,-*%
%TO.N,GND*%
X119120000Y-108400000D03*
%TD*%
D10*
%TO.P,J2,1,Pin_1*%
%TO.N,/ESC PWM*%
X180800000Y-120000000D03*
D11*
%TO.P,J2,2,Pin_2*%
%TO.N,/ESC positive rail*%
X183340000Y-120000000D03*
%TO.P,J2,3,Pin_3*%
%TO.N,GND*%
X185880000Y-120000000D03*
%TD*%
D10*
%TO.P,M2,1,PWM*%
%TO.N,/Aileron Right PWM*%
X124225000Y-100900000D03*
D11*
%TO.P,M2,2,+*%
%TO.N,/Servo 6V rail*%
X121685000Y-100900000D03*
%TO.P,M2,3,-*%
%TO.N,GND*%
X119145000Y-100900000D03*
%TD*%
D12*
%TO.P,H3,1,1*%
%TO.N,GND*%
X195897056Y-137697056D03*
X192502944Y-134302944D03*
X195897056Y-134302944D03*
X194200000Y-133600000D03*
X196600000Y-136000000D03*
D13*
X194200000Y-136000000D03*
D12*
X191800000Y-136000000D03*
X192502944Y-137697056D03*
X194200000Y-138400000D03*
%TD*%
D10*
%TO.P,J9,1,Pin_1*%
%TO.N,/RUN*%
X133200000Y-78000000D03*
D11*
%TO.P,J9,2,Pin_2*%
%TO.N,GND*%
X133200000Y-75460000D03*
%TD*%
D14*
%TO.P,J3,S1,SHIELD*%
%TO.N,GND*%
X181450000Y-114920000D03*
D15*
X185275000Y-114920000D03*
D14*
X181450000Y-106280000D03*
D15*
X185275000Y-106280000D03*
%TD*%
D10*
%TO.P,J5,1,Pin_1*%
%TO.N,/3.3v rail*%
X123250000Y-68170000D03*
D11*
%TO.P,J5,2,Pin_2*%
X123250000Y-70710000D03*
%TO.P,J5,3,Pin_3*%
X123250000Y-73250000D03*
%TO.P,J5,4,Pin_4*%
X123250000Y-75790000D03*
%TO.P,J5,5,Pin_5*%
X123250000Y-78330000D03*
%TO.P,J5,6,Pin_6*%
X123250000Y-80870000D03*
%TO.P,J5,7,Pin_7*%
X123250000Y-83410000D03*
%TO.P,J5,8,Pin_8*%
X123250000Y-85950000D03*
%TO.P,J5,9,Pin_9*%
X123250000Y-88490000D03*
%TO.P,J5,10,Pin_10*%
X123250000Y-91030000D03*
%TD*%
D10*
%TO.P,J10,1,Pin_1*%
%TO.N,/DIO1*%
X152340000Y-46200000D03*
D11*
%TO.P,J10,2,Pin_2*%
%TO.N,/DIO2*%
X149800000Y-46200000D03*
%TO.P,J10,3,Pin_3*%
%TO.N,/DIO3*%
X147260000Y-46200000D03*
%TD*%
D16*
%TO.P,J4,1,In*%
%TO.N,/NEO_RF_IN*%
X163200000Y-46250000D03*
D17*
%TO.P,J4,2,Ext*%
%TO.N,GND*%
X160660000Y-48790000D03*
X165740000Y-43710000D03*
X160660000Y-43710000D03*
X165740000Y-48790000D03*
%TD*%
D18*
%TO.P,TP3,1,1*%
%TO.N,/NEO 3.3v rail*%
X156400000Y-63800000D03*
%TD*%
D19*
%TO.N,GND*%
X153050000Y-90350000D03*
X133400000Y-63600000D03*
X167150000Y-70250000D03*
X159800000Y-82850000D03*
X177200000Y-50600000D03*
X159050000Y-69850000D03*
X142800000Y-69850000D03*
X136800000Y-134775000D03*
X155300000Y-69850000D03*
X152050000Y-91350000D03*
X162325000Y-73925000D03*
X117800000Y-63600000D03*
X151050000Y-90350000D03*
X152800000Y-69850000D03*
X165300000Y-89100000D03*
X184800000Y-83100000D03*
X160050000Y-70300000D03*
X135600000Y-43200000D03*
X134000000Y-138575000D03*
X183800000Y-92100000D03*
X147800000Y-69850000D03*
X162300000Y-76600000D03*
X142800000Y-79850000D03*
X156600000Y-106600000D03*
X153550000Y-82850000D03*
X162300000Y-79100000D03*
X186800000Y-140400000D03*
X154800000Y-82850000D03*
X118000000Y-49800000D03*
X142800000Y-82350000D03*
X180800000Y-72324999D03*
X157800000Y-69850000D03*
X134000000Y-130575000D03*
X161675000Y-71525000D03*
X161050000Y-80500000D03*
X173850000Y-108325000D03*
X149050000Y-69850000D03*
X142800000Y-81100000D03*
X142800000Y-74850000D03*
X142800000Y-73600000D03*
X151300000Y-82850000D03*
X142800000Y-78600000D03*
X144800000Y-99350000D03*
X161050000Y-82850000D03*
X147775000Y-100375000D03*
X152400000Y-124200000D03*
X157300000Y-82850000D03*
X179000000Y-48400000D03*
X161575000Y-94350000D03*
X173850000Y-113825000D03*
X153050000Y-92350000D03*
X118600000Y-139400000D03*
X143200000Y-138575000D03*
X142075000Y-90350000D03*
X151550000Y-69850000D03*
X146275000Y-99375000D03*
X142800000Y-71100000D03*
X162300000Y-80350000D03*
X118600000Y-132600000D03*
X186200000Y-133200000D03*
X142800000Y-77350000D03*
X156050000Y-103600000D03*
X170650000Y-66350000D03*
X176950000Y-72450000D03*
X141400000Y-45200000D03*
X173800000Y-49400000D03*
X140400000Y-134775000D03*
X161675000Y-72725000D03*
X147300000Y-82850000D03*
X154050000Y-69850000D03*
X180950000Y-66450000D03*
X173550000Y-72250000D03*
X146050000Y-82850000D03*
X184850000Y-63000000D03*
X166950000Y-72250000D03*
X184800000Y-92100000D03*
X184800000Y-43200000D03*
X161050000Y-81700000D03*
X156050000Y-82850000D03*
X161075000Y-135025000D03*
X186200000Y-139400000D03*
X162475000Y-120025000D03*
X162200000Y-64000000D03*
X175600000Y-88050000D03*
X146550000Y-69850000D03*
X151050000Y-92350000D03*
X161250000Y-70300000D03*
X144800000Y-45200000D03*
X144800000Y-82850000D03*
X164275000Y-120025000D03*
X167875000Y-98600000D03*
X158550000Y-82850000D03*
X166950500Y-67400000D03*
X141825000Y-93825000D03*
X144050000Y-69850000D03*
X161550000Y-90375000D03*
X142800000Y-72350000D03*
X162325000Y-75175000D03*
X143200000Y-130575000D03*
X117400000Y-140400000D03*
X162300000Y-77850000D03*
X138600000Y-134775000D03*
X142800000Y-76100000D03*
X168000000Y-43200000D03*
X156600000Y-129600000D03*
X168300000Y-88600000D03*
X154050000Y-102850000D03*
X158050000Y-102350000D03*
X150300000Y-69850000D03*
X138600000Y-112200000D03*
X145300000Y-69850000D03*
X170400000Y-129600000D03*
X170400000Y-106600000D03*
X156550000Y-69850000D03*
X165800000Y-81300000D03*
X155525000Y-102850000D03*
X176600000Y-129600000D03*
X143550000Y-82850000D03*
%TO.N,/3.3v rail*%
X161300000Y-87100000D03*
X153050000Y-99850000D03*
X172050000Y-66350000D03*
X161000000Y-129600000D03*
X165600000Y-129600000D03*
X147300000Y-95850000D03*
X183800000Y-99600000D03*
X159525000Y-103625000D03*
X151175000Y-85725000D03*
X145550000Y-93850000D03*
X165925000Y-84900000D03*
X163400000Y-127000000D03*
X161000000Y-127000000D03*
X167150000Y-68650000D03*
X165600000Y-127000000D03*
X163250000Y-129600000D03*
X139575000Y-61825000D03*
X167225000Y-79325000D03*
X172050000Y-83300000D03*
X176550000Y-67050000D03*
X178600000Y-67524999D03*
X157550000Y-90370000D03*
X165600000Y-124200000D03*
X145825000Y-90350000D03*
X169300000Y-90600000D03*
X180825000Y-70600001D03*
X184800000Y-99600000D03*
X147575000Y-96825000D03*
X170550000Y-85850000D03*
X161000000Y-124200000D03*
X186650000Y-74900000D03*
X163250000Y-124250000D03*
X174353545Y-71450000D03*
X156550000Y-94350000D03*
%TO.N,/USB_C positive rail*%
X183360051Y-110639949D03*
X183000000Y-132500000D03*
%TO.N,/microSD_CS*%
X154320000Y-91570000D03*
X171450000Y-80300000D03*
%TO.N,/microSD_MOSI*%
X154250000Y-90300000D03*
X174850000Y-78500000D03*
%TO.N,/microSD_CLK*%
X176050000Y-93300000D03*
X157250000Y-91300000D03*
%TO.N,/microSD_MISO*%
X174250000Y-92675500D03*
X157300000Y-92350000D03*
%TO.N,/ESC PWM*%
X147050000Y-91350000D03*
X147050000Y-94900000D03*
%TO.N,/External_pin_1*%
X154300000Y-86350000D03*
X140600000Y-68200000D03*
%TO.N,/External_pin_2*%
X139800000Y-70800000D03*
X153250000Y-86300000D03*
%TO.N,/External_pin_3*%
X154250000Y-89100000D03*
X139000000Y-73400000D03*
%TO.N,/External_pin_10*%
X149800000Y-90350000D03*
X140600000Y-90200000D03*
%TO.N,/IMU_SDA*%
X166450000Y-91950000D03*
X170450000Y-84500000D03*
%TO.N,/IMU_SCL*%
X168650000Y-85100000D03*
X164300000Y-91850000D03*
%TO.N,/IMU_AUX_SDA*%
X181150000Y-68850000D03*
X175750000Y-68650000D03*
%TO.N,/NEO_RXD*%
X180000000Y-61600000D03*
X154250000Y-93850000D03*
%TO.N,/NEO_TXD*%
X154300000Y-92850000D03*
X180000000Y-62800000D03*
%TO.N,/LORA_MISO*%
X136800000Y-62200000D03*
X158400000Y-65800000D03*
%TO.N,/LORA_BUSY*%
X134400000Y-47400000D03*
X162050000Y-82300000D03*
%TO.N,/RUN*%
X149800000Y-89100000D03*
%TO.N,/LORA_RX_EN*%
X131400000Y-62800000D03*
X149866589Y-91533411D03*
%TO.N,/LORA_TX_EN*%
X149550000Y-92600000D03*
X130600000Y-47400000D03*
%TO.N,/reg in*%
X181200000Y-127000000D03*
X181200000Y-128800000D03*
X165600000Y-133800000D03*
X178200000Y-128800000D03*
X129600000Y-128800000D03*
X129600000Y-126200000D03*
X153200000Y-62000000D03*
X157400000Y-56800000D03*
X178200000Y-127000000D03*
X127600000Y-126200000D03*
X127600000Y-128800000D03*
X165600000Y-132600000D03*
%TO.N,/NEO 3.3v rail*%
X156500000Y-63800000D03*
%TO.N,/NEO_FB_TXD*%
X171200000Y-55200000D03*
X176800000Y-62800000D03*
%TD*%
D20*
%TO.N,/USB_C positive rail*%
X183360051Y-116639949D02*
X182500000Y-117500000D01*
X177000000Y-117500000D02*
X175500000Y-119000000D01*
X176750000Y-132500000D02*
X183000000Y-132500000D01*
X175500000Y-131250000D02*
X176750000Y-132500000D01*
X175500000Y-119000000D02*
X175500000Y-131250000D01*
X182500000Y-117500000D02*
X177000000Y-117500000D01*
X183360051Y-110639949D02*
X183360051Y-116639949D01*
D21*
%TO.N,/microSD_CS*%
X168675000Y-84275000D02*
X161875000Y-84275000D01*
X161875000Y-84275000D02*
X160050000Y-86100000D01*
X160050000Y-86100000D02*
X160050000Y-88700000D01*
X156450000Y-89700000D02*
X156450000Y-90700000D01*
X171450000Y-80300000D02*
X171450000Y-81500000D01*
X157250000Y-88900000D02*
X156450000Y-89700000D01*
X171450000Y-81500000D02*
X168675000Y-84275000D01*
X155580000Y-91570000D02*
X154320000Y-91570000D01*
X159850000Y-88900000D02*
X157250000Y-88900000D01*
X160050000Y-88700000D02*
X159850000Y-88900000D01*
X156450000Y-90700000D02*
X155580000Y-91570000D01*
%TO.N,/microSD_MOSI*%
X166850000Y-83700000D02*
X160850000Y-83700000D01*
X160850000Y-83700000D02*
X154250000Y-90300000D01*
X174850000Y-78500000D02*
X172050000Y-78500000D01*
X172050000Y-78500000D02*
X166850000Y-83700000D01*
%TO.N,/microSD_CLK*%
X156250000Y-92900000D02*
X156250000Y-91700000D01*
X156250000Y-91700000D02*
X156650000Y-91300000D01*
X156650000Y-93300000D02*
X156250000Y-92900000D01*
X176050000Y-93300000D02*
X156650000Y-93300000D01*
X156650000Y-91300000D02*
X157250000Y-91300000D01*
%TO.N,/microSD_MISO*%
X157525000Y-92575000D02*
X157300000Y-92350000D01*
X174149500Y-92575000D02*
X157525000Y-92575000D01*
X174250000Y-92675500D02*
X174149500Y-92575000D01*
%TO.N,/ESC PWM*%
X147050000Y-94900000D02*
X147050000Y-91350000D01*
%TO.N,/External_pin_1*%
X154300000Y-86350000D02*
X154250000Y-86300000D01*
X154250000Y-84900000D02*
X153250000Y-83900000D01*
X154250000Y-86300000D02*
X154250000Y-84900000D01*
X153250000Y-83900000D02*
X142100000Y-83900000D01*
X141200000Y-71200000D02*
X141200000Y-68800000D01*
X141600000Y-83400000D02*
X141200000Y-83000000D01*
X141200000Y-83000000D02*
X141200000Y-71200000D01*
X142100000Y-83900000D02*
X141600000Y-83400000D01*
X141200000Y-68800000D02*
X140600000Y-68200000D01*
%TO.N,/External_pin_2*%
X152650000Y-84700000D02*
X141700000Y-84700000D01*
X140200000Y-71800000D02*
X140200000Y-71200000D01*
X140200000Y-83200000D02*
X140200000Y-71800000D01*
X140200000Y-71200000D02*
X139800000Y-70800000D01*
X153250000Y-85300000D02*
X152650000Y-84700000D01*
X141700000Y-84700000D02*
X140200000Y-83200000D01*
X153250000Y-86300000D02*
X153250000Y-85300000D01*
%TO.N,/External_pin_3*%
X142300000Y-86700000D02*
X139400000Y-83800000D01*
X139200000Y-73600000D02*
X139000000Y-73400000D01*
X139200000Y-83600000D02*
X139200000Y-73600000D01*
X154250000Y-89100000D02*
X151850000Y-86700000D01*
X151850000Y-86700000D02*
X142300000Y-86700000D01*
X139400000Y-83800000D02*
X139200000Y-83600000D01*
%TO.N,/External_pin_10*%
X147500000Y-90350000D02*
X149800000Y-90350000D01*
X140600000Y-90200000D02*
X141700000Y-89100000D01*
X147050000Y-89900000D02*
X147500000Y-90350000D01*
X147050000Y-89300000D02*
X147050000Y-89900000D01*
X146850000Y-89100000D02*
X147050000Y-89300000D01*
X141700000Y-89100000D02*
X146850000Y-89100000D01*
%TO.N,/IMU_SDA*%
X170450000Y-84500000D02*
X166450000Y-88500000D01*
X166450000Y-88500000D02*
X166450000Y-91950000D01*
%TO.N,/IMU_SCL*%
X167050000Y-85100000D02*
X164300000Y-87850000D01*
X164300000Y-87850000D02*
X164300000Y-91850000D01*
X168650000Y-85100000D02*
X167050000Y-85100000D01*
%TO.N,/IMU_AUX_SDA*%
X180950000Y-68650000D02*
X181150000Y-68850000D01*
X175750000Y-68650000D02*
X180950000Y-68650000D01*
%TO.N,/NEO_RXD*%
X181600000Y-61600000D02*
X183200000Y-63200000D01*
X182650000Y-93100000D02*
X178650000Y-97100000D01*
X178650000Y-97100000D02*
X155650000Y-97100000D01*
X183200000Y-63200000D02*
X183200000Y-90600000D01*
X154250000Y-95700000D02*
X154250000Y-93850000D01*
X183200000Y-90600000D02*
X182650000Y-91150000D01*
X155650000Y-97100000D02*
X154250000Y-95700000D01*
X180000000Y-61600000D02*
X181600000Y-61600000D01*
X182650000Y-91150000D02*
X182650000Y-93100000D01*
%TO.N,/NEO_TXD*%
X177450000Y-96100000D02*
X156050000Y-96100000D01*
X156050000Y-96100000D02*
X155450000Y-95500000D01*
X182075000Y-63875000D02*
X182075000Y-91475000D01*
X182075000Y-63875000D02*
X181000000Y-62800000D01*
X154600000Y-92850000D02*
X154300000Y-92850000D01*
X182075000Y-65275000D02*
X182075000Y-63875000D01*
X182075000Y-65275000D02*
X182075000Y-63875000D01*
X181450000Y-92100000D02*
X177450000Y-96100000D01*
X155450000Y-95500000D02*
X155450000Y-93700000D01*
X181000000Y-62800000D02*
X180000000Y-62800000D01*
X155450000Y-93700000D02*
X154600000Y-92850000D01*
X182075000Y-91475000D02*
X177450000Y-96100000D01*
%TO.N,/LORA_MISO*%
X138000000Y-65800000D02*
X136800000Y-64600000D01*
X136800000Y-64600000D02*
X136800000Y-62200000D01*
X158400000Y-65800000D02*
X138000000Y-65800000D01*
%TO.N,/LORA_BUSY*%
X163450000Y-82300000D02*
X162050000Y-82300000D01*
X152800000Y-57200000D02*
X164050000Y-68450000D01*
X134400000Y-50600000D02*
X141000000Y-57200000D01*
X141000000Y-57200000D02*
X152800000Y-57200000D01*
X164050000Y-81700000D02*
X163450000Y-82300000D01*
X164050000Y-68450000D02*
X164050000Y-81700000D01*
X134400000Y-47400000D02*
X134400000Y-50600000D01*
%TO.N,/RUN*%
X147450000Y-88100000D02*
X141300000Y-88100000D01*
X133200000Y-80000000D02*
X133200000Y-78000000D01*
X148450000Y-89100000D02*
X147450000Y-88100000D01*
X141300000Y-88100000D02*
X133200000Y-80000000D01*
X149800000Y-89100000D02*
X148450000Y-89100000D01*
%TO.N,/LORA_RX_EN*%
X148450000Y-92100000D02*
X148450000Y-97700000D01*
X148450000Y-97700000D02*
X148250000Y-97900000D01*
X131400000Y-93800000D02*
X131400000Y-62800000D01*
X135500000Y-97900000D02*
X131400000Y-93800000D01*
X149866589Y-91533411D02*
X149016589Y-91533411D01*
X148250000Y-97900000D02*
X135500000Y-97900000D01*
X149016589Y-91533411D02*
X148450000Y-92100000D01*
%TO.N,/LORA_TX_EN*%
X149550000Y-92600000D02*
X149550000Y-97600000D01*
X130600000Y-94600000D02*
X130600000Y-47400000D01*
X149550000Y-97600000D02*
X148450000Y-98700000D01*
X148450000Y-98700000D02*
X134700000Y-98700000D01*
X134700000Y-98700000D02*
X130600000Y-94600000D01*
%TO.N,/NEO_FB_TXD*%
X171400000Y-55200000D02*
X176800000Y-60600000D01*
X171200000Y-55200000D02*
X171400000Y-55200000D01*
X176800000Y-60600000D02*
X176800000Y-62800000D01*
%TD*%
%TA.AperFunction,Conductor*%
%TO.N,GND*%
G36*
X187242121Y-42528502D02*
G01*
X187288614Y-42582158D01*
X187300000Y-42634500D01*
X187300000Y-64374000D01*
X187279998Y-64442121D01*
X187226342Y-64488614D01*
X187174000Y-64500000D01*
X183959500Y-64500000D01*
X183891379Y-64479998D01*
X183844886Y-64426342D01*
X183833500Y-64374000D01*
X183833500Y-63278768D01*
X183834027Y-63267585D01*
X183835702Y-63260092D01*
X183834950Y-63236146D01*
X183833562Y-63192002D01*
X183833500Y-63188044D01*
X183833500Y-63160144D01*
X183832996Y-63156153D01*
X183832063Y-63144311D01*
X183830923Y-63108036D01*
X183830674Y-63100111D01*
X183828462Y-63092497D01*
X183828461Y-63092492D01*
X183825023Y-63080659D01*
X183821012Y-63061295D01*
X183819467Y-63049064D01*
X183818474Y-63041203D01*
X183815557Y-63033836D01*
X183815556Y-63033831D01*
X183802198Y-63000092D01*
X183798354Y-62988865D01*
X183788230Y-62954022D01*
X183786018Y-62946407D01*
X183775707Y-62928972D01*
X183767012Y-62911224D01*
X183759552Y-62892383D01*
X183733564Y-62856613D01*
X183727048Y-62846693D01*
X183708580Y-62815465D01*
X183708578Y-62815462D01*
X183704542Y-62808638D01*
X183690221Y-62794317D01*
X183677380Y-62779283D01*
X183674973Y-62775970D01*
X183665472Y-62762893D01*
X183631395Y-62734702D01*
X183622616Y-62726712D01*
X182103652Y-61207747D01*
X182096112Y-61199461D01*
X182092000Y-61192982D01*
X182042348Y-61146356D01*
X182039507Y-61143602D01*
X182019770Y-61123865D01*
X182016573Y-61121385D01*
X182007551Y-61113680D01*
X181981100Y-61088841D01*
X181975321Y-61083414D01*
X181968375Y-61079595D01*
X181968372Y-61079593D01*
X181957566Y-61073652D01*
X181941047Y-61062801D01*
X181935048Y-61058148D01*
X181925041Y-61050386D01*
X181917772Y-61047241D01*
X181917768Y-61047238D01*
X181884463Y-61032826D01*
X181873813Y-61027609D01*
X181835060Y-61006305D01*
X181815437Y-61001267D01*
X181796734Y-60994863D01*
X181785420Y-60989967D01*
X181785419Y-60989967D01*
X181778145Y-60986819D01*
X181770322Y-60985580D01*
X181770312Y-60985577D01*
X181734476Y-60979901D01*
X181722856Y-60977495D01*
X181687711Y-60968472D01*
X181687710Y-60968472D01*
X181680030Y-60966500D01*
X181659776Y-60966500D01*
X181640065Y-60964949D01*
X181627886Y-60963020D01*
X181620057Y-60961780D01*
X181612165Y-60962526D01*
X181576039Y-60965941D01*
X181564181Y-60966500D01*
X180708200Y-60966500D01*
X180640079Y-60946498D01*
X180620853Y-60930157D01*
X180620580Y-60930460D01*
X180615668Y-60926037D01*
X180611253Y-60921134D01*
X180565388Y-60887811D01*
X180462094Y-60812763D01*
X180462093Y-60812762D01*
X180456752Y-60808882D01*
X180450724Y-60806198D01*
X180450722Y-60806197D01*
X180288319Y-60733891D01*
X180288318Y-60733891D01*
X180282288Y-60731206D01*
X180188888Y-60711353D01*
X180101944Y-60692872D01*
X180101939Y-60692872D01*
X180095487Y-60691500D01*
X179904513Y-60691500D01*
X179898061Y-60692872D01*
X179898056Y-60692872D01*
X179811112Y-60711353D01*
X179717712Y-60731206D01*
X179711682Y-60733891D01*
X179711681Y-60733891D01*
X179549278Y-60806197D01*
X179549276Y-60806198D01*
X179543248Y-60808882D01*
X179388747Y-60921134D01*
X179384326Y-60926044D01*
X179384325Y-60926045D01*
X179275203Y-61047238D01*
X179260960Y-61063056D01*
X179165473Y-61228444D01*
X179106458Y-61410072D01*
X179086496Y-61600000D01*
X179087186Y-61606565D01*
X179103891Y-61765500D01*
X179106458Y-61789928D01*
X179165473Y-61971556D01*
X179168776Y-61977278D01*
X179168777Y-61977279D01*
X179260960Y-62136944D01*
X179258223Y-62138524D01*
X179277649Y-62192347D01*
X179261822Y-62261557D01*
X179260886Y-62263013D01*
X179260960Y-62263056D01*
X179165473Y-62428444D01*
X179106458Y-62610072D01*
X179105768Y-62616633D01*
X179105768Y-62616635D01*
X179093485Y-62733500D01*
X179086496Y-62800000D01*
X179087186Y-62806565D01*
X179097272Y-62902524D01*
X179106458Y-62989928D01*
X179165473Y-63171556D01*
X179168776Y-63177278D01*
X179168777Y-63177279D01*
X179202686Y-63236010D01*
X179260960Y-63336944D01*
X179265375Y-63341847D01*
X179265379Y-63341852D01*
X179381301Y-63470596D01*
X179388747Y-63478866D01*
X179543248Y-63591118D01*
X179549276Y-63593802D01*
X179549278Y-63593803D01*
X179711681Y-63666109D01*
X179717712Y-63668794D01*
X179811113Y-63688647D01*
X179898056Y-63707128D01*
X179898061Y-63707128D01*
X179904513Y-63708500D01*
X180095487Y-63708500D01*
X180101939Y-63707128D01*
X180101944Y-63707128D01*
X180188887Y-63688647D01*
X180282288Y-63668794D01*
X180288319Y-63666109D01*
X180450722Y-63593803D01*
X180450724Y-63593802D01*
X180456752Y-63591118D01*
X180611253Y-63478866D01*
X180613399Y-63476483D01*
X180676274Y-63446312D01*
X180746727Y-63455078D01*
X180785667Y-63481571D01*
X181404595Y-64100499D01*
X181438621Y-64162811D01*
X181441500Y-64189594D01*
X181441500Y-64374000D01*
X181421498Y-64442121D01*
X181367842Y-64488614D01*
X181315500Y-64500000D01*
X161048094Y-64500000D01*
X160979973Y-64479998D01*
X160958999Y-64463095D01*
X158924349Y-62428444D01*
X153303652Y-56807747D01*
X153296602Y-56800000D01*
X156486496Y-56800000D01*
X156506458Y-56989928D01*
X156565473Y-57171556D01*
X156660960Y-57336944D01*
X156788747Y-57478866D01*
X156943248Y-57591118D01*
X156949276Y-57593802D01*
X156949278Y-57593803D01*
X157111681Y-57666109D01*
X157117712Y-57668794D01*
X157200151Y-57686317D01*
X157298056Y-57707128D01*
X157298061Y-57707128D01*
X157304513Y-57708500D01*
X157495487Y-57708500D01*
X157501939Y-57707128D01*
X157501944Y-57707128D01*
X157599849Y-57686317D01*
X157682288Y-57668794D01*
X157688319Y-57666109D01*
X157850722Y-57593803D01*
X157850724Y-57593802D01*
X157856752Y-57591118D01*
X158011253Y-57478866D01*
X158139040Y-57336944D01*
X158234527Y-57171556D01*
X158293542Y-56989928D01*
X158313504Y-56800000D01*
X158301821Y-56688841D01*
X158294232Y-56616635D01*
X158294232Y-56616633D01*
X158293542Y-56610072D01*
X158234527Y-56428444D01*
X158139040Y-56263056D01*
X158011253Y-56121134D01*
X157856752Y-56008882D01*
X157850724Y-56006198D01*
X157850722Y-56006197D01*
X157688319Y-55933891D01*
X157688318Y-55933891D01*
X157682288Y-55931206D01*
X157588888Y-55911353D01*
X157501944Y-55892872D01*
X157501939Y-55892872D01*
X157495487Y-55891500D01*
X157304513Y-55891500D01*
X157298061Y-55892872D01*
X157298056Y-55892872D01*
X157211112Y-55911353D01*
X157117712Y-55931206D01*
X157111682Y-55933891D01*
X157111681Y-55933891D01*
X156949278Y-56006197D01*
X156949276Y-56006198D01*
X156943248Y-56008882D01*
X156788747Y-56121134D01*
X156660960Y-56263056D01*
X156565473Y-56428444D01*
X156506458Y-56610072D01*
X156505768Y-56616633D01*
X156505768Y-56616635D01*
X156498179Y-56688841D01*
X156486496Y-56800000D01*
X153296602Y-56800000D01*
X153296112Y-56799461D01*
X153292000Y-56792982D01*
X153242348Y-56746356D01*
X153239507Y-56743602D01*
X153219770Y-56723865D01*
X153216573Y-56721385D01*
X153207551Y-56713680D01*
X153181100Y-56688841D01*
X153175321Y-56683414D01*
X153168375Y-56679595D01*
X153168372Y-56679593D01*
X153157566Y-56673652D01*
X153141047Y-56662801D01*
X153140583Y-56662441D01*
X153125041Y-56650386D01*
X153117772Y-56647241D01*
X153117768Y-56647238D01*
X153084463Y-56632826D01*
X153073813Y-56627609D01*
X153035060Y-56606305D01*
X153025281Y-56603794D01*
X153015438Y-56601267D01*
X152996734Y-56594863D01*
X152985420Y-56589967D01*
X152985419Y-56589967D01*
X152978145Y-56586819D01*
X152970322Y-56585580D01*
X152970312Y-56585577D01*
X152934476Y-56579901D01*
X152922856Y-56577495D01*
X152887711Y-56568472D01*
X152887710Y-56568472D01*
X152880030Y-56566500D01*
X152859776Y-56566500D01*
X152840065Y-56564949D01*
X152827886Y-56563020D01*
X152820057Y-56561780D01*
X152812165Y-56562526D01*
X152776039Y-56565941D01*
X152764181Y-56566500D01*
X141314594Y-56566500D01*
X141246473Y-56546498D01*
X141225499Y-56529595D01*
X139895904Y-55200000D01*
X170286496Y-55200000D01*
X170306458Y-55389928D01*
X170365473Y-55571556D01*
X170460960Y-55736944D01*
X170588747Y-55878866D01*
X170743248Y-55991118D01*
X170749276Y-55993802D01*
X170749278Y-55993803D01*
X170911681Y-56066109D01*
X170917712Y-56068794D01*
X171007932Y-56087971D01*
X171098056Y-56107128D01*
X171098061Y-56107128D01*
X171104513Y-56108500D01*
X171295487Y-56108500D01*
X171304701Y-56106541D01*
X171325152Y-56102195D01*
X171395943Y-56107598D01*
X171440443Y-56136347D01*
X176129595Y-60825499D01*
X176163621Y-60887811D01*
X176166500Y-60914594D01*
X176166500Y-62097476D01*
X176146498Y-62165597D01*
X176134142Y-62181779D01*
X176060960Y-62263056D01*
X175965473Y-62428444D01*
X175906458Y-62610072D01*
X175905768Y-62616633D01*
X175905768Y-62616635D01*
X175893485Y-62733500D01*
X175886496Y-62800000D01*
X175887186Y-62806565D01*
X175897272Y-62902524D01*
X175906458Y-62989928D01*
X175965473Y-63171556D01*
X175968776Y-63177278D01*
X175968777Y-63177279D01*
X176002686Y-63236010D01*
X176060960Y-63336944D01*
X176065375Y-63341847D01*
X176065379Y-63341852D01*
X176181301Y-63470596D01*
X176188747Y-63478866D01*
X176343248Y-63591118D01*
X176349276Y-63593802D01*
X176349278Y-63593803D01*
X176511681Y-63666109D01*
X176517712Y-63668794D01*
X176611113Y-63688647D01*
X176698056Y-63707128D01*
X176698061Y-63707128D01*
X176704513Y-63708500D01*
X176895487Y-63708500D01*
X176901939Y-63707128D01*
X176901944Y-63707128D01*
X176988887Y-63688647D01*
X177082288Y-63668794D01*
X177088319Y-63666109D01*
X177250722Y-63593803D01*
X177250724Y-63593802D01*
X177256752Y-63591118D01*
X177411253Y-63478866D01*
X177418699Y-63470596D01*
X177534621Y-63341852D01*
X177534625Y-63341847D01*
X177539040Y-63336944D01*
X177597314Y-63236010D01*
X177631223Y-63177279D01*
X177631224Y-63177278D01*
X177634527Y-63171556D01*
X177693542Y-62989928D01*
X177702729Y-62902524D01*
X177712814Y-62806565D01*
X177713504Y-62800000D01*
X177706515Y-62733500D01*
X177694232Y-62616635D01*
X177694232Y-62616633D01*
X177693542Y-62610072D01*
X177634527Y-62428444D01*
X177539040Y-62263056D01*
X177465863Y-62181785D01*
X177435147Y-62117779D01*
X177433500Y-62097476D01*
X177433500Y-60678767D01*
X177434027Y-60667584D01*
X177435702Y-60660091D01*
X177433562Y-60592014D01*
X177433500Y-60588055D01*
X177433500Y-60560144D01*
X177432995Y-60556144D01*
X177432062Y-60544301D01*
X177430922Y-60508029D01*
X177430673Y-60500110D01*
X177425022Y-60480658D01*
X177421014Y-60461306D01*
X177419467Y-60449063D01*
X177418474Y-60441203D01*
X177415556Y-60433832D01*
X177402200Y-60400097D01*
X177398355Y-60388870D01*
X177397721Y-60386687D01*
X177386018Y-60346407D01*
X177381984Y-60339585D01*
X177381981Y-60339579D01*
X177375706Y-60328968D01*
X177367010Y-60311218D01*
X177362472Y-60299756D01*
X177362469Y-60299751D01*
X177359552Y-60292383D01*
X177333573Y-60256625D01*
X177327057Y-60246707D01*
X177308575Y-60215457D01*
X177304542Y-60208637D01*
X177290218Y-60194313D01*
X177277376Y-60179278D01*
X177265472Y-60162893D01*
X177231406Y-60134711D01*
X177222627Y-60126722D01*
X172108947Y-55013042D01*
X172078209Y-54962883D01*
X172036569Y-54834729D01*
X172034527Y-54828444D01*
X171939040Y-54663056D01*
X171811253Y-54521134D01*
X171656752Y-54408882D01*
X171650724Y-54406198D01*
X171650722Y-54406197D01*
X171488319Y-54333891D01*
X171488318Y-54333891D01*
X171482288Y-54331206D01*
X171388888Y-54311353D01*
X171301944Y-54292872D01*
X171301939Y-54292872D01*
X171295487Y-54291500D01*
X171104513Y-54291500D01*
X171098061Y-54292872D01*
X171098056Y-54292872D01*
X171011113Y-54311353D01*
X170917712Y-54331206D01*
X170911682Y-54333891D01*
X170911681Y-54333891D01*
X170749278Y-54406197D01*
X170749276Y-54406198D01*
X170743248Y-54408882D01*
X170588747Y-54521134D01*
X170460960Y-54663056D01*
X170365473Y-54828444D01*
X170306458Y-55010072D01*
X170286496Y-55200000D01*
X139895904Y-55200000D01*
X135070405Y-50374500D01*
X135036379Y-50312188D01*
X135033500Y-50285405D01*
X135033500Y-48102524D01*
X135053502Y-48034403D01*
X135065858Y-48018221D01*
X135139040Y-47936944D01*
X135234527Y-47771556D01*
X135293542Y-47589928D01*
X135297466Y-47552598D01*
X135312814Y-47406565D01*
X135313504Y-47400000D01*
X135304742Y-47316632D01*
X135294232Y-47216635D01*
X135294232Y-47216633D01*
X135293542Y-47210072D01*
X135234527Y-47028444D01*
X135221043Y-47005088D01*
X135197314Y-46963990D01*
X135139040Y-46863056D01*
X135095425Y-46814616D01*
X135015675Y-46726045D01*
X135015674Y-46726044D01*
X135011253Y-46721134D01*
X134856752Y-46608882D01*
X134850724Y-46606198D01*
X134850722Y-46606197D01*
X134688319Y-46533891D01*
X134688318Y-46533891D01*
X134682288Y-46531206D01*
X134588888Y-46511353D01*
X134501944Y-46492872D01*
X134501939Y-46492872D01*
X134495487Y-46491500D01*
X134304513Y-46491500D01*
X134298061Y-46492872D01*
X134298056Y-46492872D01*
X134211112Y-46511353D01*
X134117712Y-46531206D01*
X134111682Y-46533891D01*
X134111681Y-46533891D01*
X133949278Y-46606197D01*
X133949276Y-46606198D01*
X133943248Y-46608882D01*
X133788747Y-46721134D01*
X133784326Y-46726044D01*
X133784325Y-46726045D01*
X133704576Y-46814616D01*
X133660960Y-46863056D01*
X133602686Y-46963990D01*
X133578958Y-47005088D01*
X133565473Y-47028444D01*
X133506458Y-47210072D01*
X133505768Y-47216633D01*
X133505768Y-47216635D01*
X133495258Y-47316632D01*
X133486496Y-47400000D01*
X133487186Y-47406565D01*
X133502535Y-47552598D01*
X133506458Y-47589928D01*
X133565473Y-47771556D01*
X133660960Y-47936944D01*
X133734137Y-48018215D01*
X133764853Y-48082221D01*
X133766500Y-48102524D01*
X133766500Y-50521233D01*
X133765973Y-50532416D01*
X133764298Y-50539909D01*
X133764547Y-50547835D01*
X133764547Y-50547836D01*
X133766438Y-50607986D01*
X133766500Y-50611945D01*
X133766500Y-50639856D01*
X133766997Y-50643790D01*
X133766997Y-50643791D01*
X133767005Y-50643856D01*
X133767938Y-50655693D01*
X133769327Y-50699889D01*
X133774978Y-50719339D01*
X133778987Y-50738700D01*
X133781526Y-50758797D01*
X133784445Y-50766168D01*
X133784445Y-50766170D01*
X133797804Y-50799912D01*
X133801649Y-50811142D01*
X133813982Y-50853593D01*
X133818015Y-50860412D01*
X133818017Y-50860417D01*
X133824293Y-50871028D01*
X133832988Y-50888776D01*
X133840448Y-50907617D01*
X133845110Y-50914033D01*
X133845110Y-50914034D01*
X133866436Y-50943387D01*
X133872952Y-50953307D01*
X133895458Y-50991362D01*
X133909779Y-51005683D01*
X133922619Y-51020716D01*
X133934528Y-51037107D01*
X133940634Y-51042158D01*
X133968605Y-51065298D01*
X133977384Y-51073288D01*
X140496343Y-57592247D01*
X140503887Y-57600537D01*
X140508000Y-57607018D01*
X140513777Y-57612443D01*
X140557667Y-57653658D01*
X140560509Y-57656413D01*
X140580231Y-57676135D01*
X140583355Y-57678558D01*
X140583359Y-57678562D01*
X140583424Y-57678612D01*
X140592445Y-57686317D01*
X140624679Y-57716586D01*
X140631627Y-57720405D01*
X140631629Y-57720407D01*
X140642432Y-57726346D01*
X140658959Y-57737202D01*
X140668698Y-57744757D01*
X140668700Y-57744758D01*
X140674960Y-57749614D01*
X140715540Y-57767174D01*
X140726188Y-57772391D01*
X140764940Y-57793695D01*
X140772616Y-57795666D01*
X140772619Y-57795667D01*
X140784562Y-57798733D01*
X140803267Y-57805137D01*
X140821855Y-57813181D01*
X140829678Y-57814420D01*
X140829688Y-57814423D01*
X140865524Y-57820099D01*
X140877144Y-57822505D01*
X140912289Y-57831528D01*
X140919970Y-57833500D01*
X140940224Y-57833500D01*
X140959934Y-57835051D01*
X140979943Y-57838220D01*
X140987835Y-57837474D01*
X141023961Y-57834059D01*
X141035819Y-57833500D01*
X152485406Y-57833500D01*
X152553527Y-57853502D01*
X152574501Y-57870405D01*
X156530804Y-61826708D01*
X156564830Y-61889020D01*
X156559765Y-61959835D01*
X156517218Y-62016671D01*
X156450698Y-62041482D01*
X156440070Y-62041792D01*
X156344195Y-62040537D01*
X156297022Y-62039919D01*
X156297019Y-62039919D01*
X156292345Y-62039858D01*
X156033362Y-62075104D01*
X155782433Y-62148243D01*
X155545072Y-62257668D01*
X155505803Y-62283414D01*
X155330404Y-62398410D01*
X155330399Y-62398414D01*
X155326491Y-62400976D01*
X155131494Y-62575018D01*
X154964363Y-62775970D01*
X154961934Y-62779973D01*
X154838513Y-62983365D01*
X154828771Y-62999419D01*
X154727697Y-63240455D01*
X154663359Y-63493783D01*
X154637173Y-63753839D01*
X154649713Y-64014908D01*
X154700704Y-64271256D01*
X154702282Y-64275651D01*
X154722306Y-64331422D01*
X154726500Y-64402295D01*
X154691711Y-64464184D01*
X154628986Y-64497440D01*
X154603718Y-64500000D01*
X137648095Y-64500000D01*
X137579974Y-64479998D01*
X137559000Y-64463095D01*
X137470405Y-64374500D01*
X137436379Y-64312188D01*
X137433500Y-64285405D01*
X137433500Y-62902524D01*
X137453502Y-62834403D01*
X137465858Y-62818221D01*
X137539040Y-62736944D01*
X137542516Y-62730923D01*
X137631223Y-62577279D01*
X137631224Y-62577278D01*
X137634527Y-62571556D01*
X137693542Y-62389928D01*
X137694872Y-62377279D01*
X137712814Y-62206565D01*
X137713504Y-62200000D01*
X137704807Y-62117251D01*
X137694232Y-62016635D01*
X137694232Y-62016633D01*
X137693542Y-62010072D01*
X137634527Y-61828444D01*
X137632539Y-61825000D01*
X138661496Y-61825000D01*
X138662186Y-61831565D01*
X138675668Y-61959835D01*
X138681458Y-62014928D01*
X138740473Y-62196556D01*
X138835960Y-62361944D01*
X138840378Y-62366851D01*
X138840379Y-62366852D01*
X138871578Y-62401502D01*
X138963747Y-62503866D01*
X139001405Y-62531226D01*
X139101286Y-62603794D01*
X139118248Y-62616118D01*
X139124276Y-62618802D01*
X139124278Y-62618803D01*
X139259183Y-62678866D01*
X139292712Y-62693794D01*
X139386113Y-62713647D01*
X139473056Y-62732128D01*
X139473061Y-62732128D01*
X139479513Y-62733500D01*
X139670487Y-62733500D01*
X139676939Y-62732128D01*
X139676944Y-62732128D01*
X139763887Y-62713647D01*
X139857288Y-62693794D01*
X139890817Y-62678866D01*
X140025722Y-62618803D01*
X140025724Y-62618802D01*
X140031752Y-62616118D01*
X140048715Y-62603794D01*
X140148595Y-62531226D01*
X140186253Y-62503866D01*
X140278422Y-62401502D01*
X140309621Y-62366852D01*
X140309622Y-62366851D01*
X140314040Y-62361944D01*
X140409527Y-62196556D01*
X140468542Y-62014928D01*
X140470111Y-62000000D01*
X152286496Y-62000000D01*
X152287186Y-62006565D01*
X152299228Y-62121134D01*
X152306458Y-62189928D01*
X152365473Y-62371556D01*
X152460960Y-62536944D01*
X152465378Y-62541851D01*
X152465379Y-62541852D01*
X152532714Y-62616635D01*
X152588747Y-62678866D01*
X152605598Y-62691109D01*
X152726959Y-62779283D01*
X152743248Y-62791118D01*
X152749276Y-62793802D01*
X152749278Y-62793803D01*
X152911681Y-62866109D01*
X152917712Y-62868794D01*
X153011113Y-62888647D01*
X153098056Y-62907128D01*
X153098061Y-62907128D01*
X153104513Y-62908500D01*
X153295487Y-62908500D01*
X153301939Y-62907128D01*
X153301944Y-62907128D01*
X153388887Y-62888647D01*
X153482288Y-62868794D01*
X153488319Y-62866109D01*
X153650722Y-62793803D01*
X153650724Y-62793802D01*
X153656752Y-62791118D01*
X153673042Y-62779283D01*
X153794402Y-62691109D01*
X153811253Y-62678866D01*
X153867286Y-62616635D01*
X153934621Y-62541852D01*
X153934622Y-62541851D01*
X153939040Y-62536944D01*
X154034527Y-62371556D01*
X154093542Y-62189928D01*
X154100773Y-62121134D01*
X154112814Y-62006565D01*
X154113504Y-62000000D01*
X154095473Y-61828444D01*
X154094232Y-61816635D01*
X154094232Y-61816633D01*
X154093542Y-61810072D01*
X154034527Y-61628444D01*
X153939040Y-61463056D01*
X153930386Y-61453444D01*
X153815675Y-61326045D01*
X153815674Y-61326044D01*
X153811253Y-61321134D01*
X153656752Y-61208882D01*
X153650724Y-61206198D01*
X153650722Y-61206197D01*
X153488319Y-61133891D01*
X153488318Y-61133891D01*
X153482288Y-61131206D01*
X153388888Y-61111353D01*
X153301944Y-61092872D01*
X153301939Y-61092872D01*
X153295487Y-61091500D01*
X153104513Y-61091500D01*
X153098061Y-61092872D01*
X153098056Y-61092872D01*
X153011112Y-61111353D01*
X152917712Y-61131206D01*
X152911682Y-61133891D01*
X152911681Y-61133891D01*
X152749278Y-61206197D01*
X152749276Y-61206198D01*
X152743248Y-61208882D01*
X152588747Y-61321134D01*
X152584326Y-61326044D01*
X152584325Y-61326045D01*
X152469615Y-61453444D01*
X152460960Y-61463056D01*
X152365473Y-61628444D01*
X152306458Y-61810072D01*
X152305768Y-61816633D01*
X152305768Y-61816635D01*
X152304527Y-61828444D01*
X152286496Y-62000000D01*
X140470111Y-62000000D01*
X140474333Y-61959835D01*
X140487814Y-61831565D01*
X140488504Y-61825000D01*
X140471483Y-61663056D01*
X140469232Y-61641635D01*
X140469232Y-61641633D01*
X140468542Y-61635072D01*
X140409527Y-61453444D01*
X140314040Y-61288056D01*
X140242752Y-61208882D01*
X140190675Y-61151045D01*
X140190674Y-61151044D01*
X140186253Y-61146134D01*
X140071906Y-61063056D01*
X140037094Y-61037763D01*
X140037093Y-61037762D01*
X140031752Y-61033882D01*
X140025724Y-61031198D01*
X140025722Y-61031197D01*
X139863319Y-60958891D01*
X139863318Y-60958891D01*
X139857288Y-60956206D01*
X139763888Y-60936353D01*
X139676944Y-60917872D01*
X139676939Y-60917872D01*
X139670487Y-60916500D01*
X139479513Y-60916500D01*
X139473061Y-60917872D01*
X139473056Y-60917872D01*
X139386112Y-60936353D01*
X139292712Y-60956206D01*
X139286682Y-60958891D01*
X139286681Y-60958891D01*
X139124278Y-61031197D01*
X139124276Y-61031198D01*
X139118248Y-61033882D01*
X139112907Y-61037762D01*
X139112906Y-61037763D01*
X139078094Y-61063056D01*
X138963747Y-61146134D01*
X138959326Y-61151044D01*
X138959325Y-61151045D01*
X138907249Y-61208882D01*
X138835960Y-61288056D01*
X138740473Y-61453444D01*
X138681458Y-61635072D01*
X138680768Y-61641633D01*
X138680768Y-61641635D01*
X138678517Y-61663056D01*
X138661496Y-61825000D01*
X137632539Y-61825000D01*
X137539040Y-61663056D01*
X137519753Y-61641635D01*
X137415675Y-61526045D01*
X137415674Y-61526044D01*
X137411253Y-61521134D01*
X137256752Y-61408882D01*
X137250724Y-61406198D01*
X137250722Y-61406197D01*
X137088319Y-61333891D01*
X137088318Y-61333891D01*
X137082288Y-61331206D01*
X136988887Y-61311353D01*
X136901944Y-61292872D01*
X136901939Y-61292872D01*
X136895487Y-61291500D01*
X136704513Y-61291500D01*
X136698061Y-61292872D01*
X136698056Y-61292872D01*
X136611113Y-61311353D01*
X136517712Y-61331206D01*
X136511682Y-61333891D01*
X136511681Y-61333891D01*
X136349278Y-61406197D01*
X136349276Y-61406198D01*
X136343248Y-61408882D01*
X136188747Y-61521134D01*
X136184326Y-61526044D01*
X136184325Y-61526045D01*
X136080248Y-61641635D01*
X136060960Y-61663056D01*
X135965473Y-61828444D01*
X135906458Y-62010072D01*
X135905768Y-62016633D01*
X135905768Y-62016635D01*
X135895193Y-62117251D01*
X135886496Y-62200000D01*
X135887186Y-62206565D01*
X135905129Y-62377279D01*
X135906458Y-62389928D01*
X135965473Y-62571556D01*
X135968776Y-62577278D01*
X135968777Y-62577279D01*
X136057484Y-62730923D01*
X136060960Y-62736944D01*
X136134137Y-62818215D01*
X136164853Y-62882221D01*
X136166500Y-62902524D01*
X136166500Y-64374000D01*
X136146498Y-64442121D01*
X136092842Y-64488614D01*
X136040500Y-64500000D01*
X132159500Y-64500000D01*
X132091379Y-64479998D01*
X132044886Y-64426342D01*
X132033500Y-64374000D01*
X132033500Y-63502524D01*
X132053502Y-63434403D01*
X132065858Y-63418221D01*
X132139040Y-63336944D01*
X132197314Y-63236010D01*
X132231223Y-63177279D01*
X132231224Y-63177278D01*
X132234527Y-63171556D01*
X132293542Y-62989928D01*
X132302729Y-62902524D01*
X132312814Y-62806565D01*
X132313504Y-62800000D01*
X132306515Y-62733500D01*
X132294232Y-62616635D01*
X132294232Y-62616633D01*
X132293542Y-62610072D01*
X132234527Y-62428444D01*
X132139040Y-62263056D01*
X132075374Y-62192347D01*
X132015675Y-62126045D01*
X132015674Y-62126044D01*
X132011253Y-62121134D01*
X131899387Y-62039858D01*
X131862094Y-62012763D01*
X131862093Y-62012762D01*
X131856752Y-62008882D01*
X131850724Y-62006198D01*
X131850722Y-62006197D01*
X131688319Y-61933891D01*
X131688318Y-61933891D01*
X131682288Y-61931206D01*
X131588888Y-61911353D01*
X131501944Y-61892872D01*
X131501939Y-61892872D01*
X131495487Y-61891500D01*
X131359500Y-61891500D01*
X131291379Y-61871498D01*
X131244886Y-61817842D01*
X131233500Y-61765500D01*
X131233500Y-48102524D01*
X131253502Y-48034403D01*
X131265858Y-48018221D01*
X131339040Y-47936944D01*
X131434527Y-47771556D01*
X131493542Y-47589928D01*
X131497466Y-47552598D01*
X131512814Y-47406565D01*
X131513504Y-47400000D01*
X131504742Y-47316632D01*
X131494232Y-47216635D01*
X131494232Y-47216633D01*
X131493542Y-47210072D01*
X131434527Y-47028444D01*
X131421043Y-47005088D01*
X131397314Y-46963990D01*
X131339040Y-46863056D01*
X131295425Y-46814616D01*
X131215675Y-46726045D01*
X131215674Y-46726044D01*
X131211253Y-46721134D01*
X131056752Y-46608882D01*
X131050724Y-46606198D01*
X131050722Y-46606197D01*
X130888319Y-46533891D01*
X130888318Y-46533891D01*
X130882288Y-46531206D01*
X130788888Y-46511353D01*
X130701944Y-46492872D01*
X130701939Y-46492872D01*
X130695487Y-46491500D01*
X130504513Y-46491500D01*
X130498061Y-46492872D01*
X130498056Y-46492872D01*
X130411112Y-46511353D01*
X130317712Y-46531206D01*
X130311682Y-46533891D01*
X130311681Y-46533891D01*
X130149278Y-46606197D01*
X130149276Y-46606198D01*
X130143248Y-46608882D01*
X129988747Y-46721134D01*
X129984326Y-46726044D01*
X129984325Y-46726045D01*
X129904576Y-46814616D01*
X129860960Y-46863056D01*
X129802686Y-46963990D01*
X129778958Y-47005088D01*
X129765473Y-47028444D01*
X129706458Y-47210072D01*
X129705768Y-47216633D01*
X129705768Y-47216635D01*
X129695258Y-47316632D01*
X129686496Y-47400000D01*
X129687186Y-47406565D01*
X129702535Y-47552598D01*
X129706458Y-47589928D01*
X129765473Y-47771556D01*
X129860960Y-47936944D01*
X129934137Y-48018215D01*
X129964853Y-48082221D01*
X129966500Y-48102524D01*
X129966500Y-64374000D01*
X129946498Y-64442121D01*
X129892842Y-64488614D01*
X129840500Y-64500000D01*
X116626000Y-64500000D01*
X116557879Y-64479998D01*
X116511386Y-64426342D01*
X116500000Y-64374000D01*
X116500000Y-46166695D01*
X145897251Y-46166695D01*
X145910110Y-46389715D01*
X145911247Y-46394761D01*
X145911248Y-46394767D01*
X145933049Y-46491500D01*
X145959222Y-46607639D01*
X146043266Y-46814616D01*
X146080685Y-46875678D01*
X146157291Y-47000688D01*
X146159987Y-47005088D01*
X146306250Y-47173938D01*
X146478126Y-47316632D01*
X146671000Y-47429338D01*
X146879692Y-47509030D01*
X146884760Y-47510061D01*
X146884763Y-47510062D01*
X146992017Y-47531883D01*
X147098597Y-47553567D01*
X147103772Y-47553757D01*
X147103774Y-47553757D01*
X147316673Y-47561564D01*
X147316677Y-47561564D01*
X147321837Y-47561753D01*
X147326957Y-47561097D01*
X147326959Y-47561097D01*
X147538288Y-47534025D01*
X147538289Y-47534025D01*
X147543416Y-47533368D01*
X147548366Y-47531883D01*
X147752429Y-47470661D01*
X147752434Y-47470659D01*
X147757384Y-47469174D01*
X147957994Y-47370896D01*
X148139860Y-47241173D01*
X148298096Y-47083489D01*
X148333134Y-47034729D01*
X148428453Y-46902077D01*
X148429776Y-46903028D01*
X148476645Y-46859857D01*
X148546580Y-46847625D01*
X148612026Y-46875144D01*
X148639875Y-46906994D01*
X148699987Y-47005088D01*
X148846250Y-47173938D01*
X149018126Y-47316632D01*
X149211000Y-47429338D01*
X149419692Y-47509030D01*
X149424760Y-47510061D01*
X149424763Y-47510062D01*
X149532017Y-47531883D01*
X149638597Y-47553567D01*
X149643772Y-47553757D01*
X149643774Y-47553757D01*
X149856673Y-47561564D01*
X149856677Y-47561564D01*
X149861837Y-47561753D01*
X149866957Y-47561097D01*
X149866959Y-47561097D01*
X150078288Y-47534025D01*
X150078289Y-47534025D01*
X150083416Y-47533368D01*
X150088366Y-47531883D01*
X150292429Y-47470661D01*
X150292434Y-47470659D01*
X150297384Y-47469174D01*
X150497994Y-47370896D01*
X150679860Y-47241173D01*
X150788091Y-47133319D01*
X150850462Y-47099404D01*
X150921268Y-47104592D01*
X150978030Y-47147238D01*
X150995012Y-47178341D01*
X151039385Y-47296705D01*
X151126739Y-47413261D01*
X151243295Y-47500615D01*
X151379684Y-47551745D01*
X151441866Y-47558500D01*
X153238134Y-47558500D01*
X153300316Y-47551745D01*
X153436705Y-47500615D01*
X153553261Y-47413261D01*
X153640615Y-47296705D01*
X153691745Y-47160316D01*
X153698500Y-47098134D01*
X153698500Y-45301866D01*
X153692156Y-45243467D01*
X161541500Y-45243467D01*
X161541501Y-47256532D01*
X161541764Y-47259391D01*
X161541764Y-47259398D01*
X161544253Y-47286482D01*
X161548249Y-47329980D01*
X161572249Y-47406565D01*
X161592336Y-47470661D01*
X161599537Y-47493641D01*
X161688383Y-47640343D01*
X161809657Y-47761617D01*
X161956359Y-47850463D01*
X161963606Y-47852734D01*
X161963608Y-47852735D01*
X162030743Y-47873774D01*
X162120020Y-47901751D01*
X162193467Y-47908500D01*
X162196365Y-47908500D01*
X163202611Y-47908499D01*
X164206532Y-47908499D01*
X164209391Y-47908236D01*
X164209398Y-47908236D01*
X164236482Y-47905747D01*
X164279980Y-47901751D01*
X164362952Y-47875749D01*
X164436392Y-47852735D01*
X164436394Y-47852734D01*
X164443641Y-47850463D01*
X164590343Y-47761617D01*
X164711617Y-47640343D01*
X164800463Y-47493641D01*
X164807665Y-47470661D01*
X164827751Y-47406565D01*
X164851751Y-47329980D01*
X164858500Y-47256533D01*
X164858499Y-45243468D01*
X164858234Y-45240576D01*
X164855137Y-45206875D01*
X164851751Y-45170020D01*
X164818714Y-45064598D01*
X164802735Y-45013608D01*
X164802734Y-45013606D01*
X164800463Y-45006359D01*
X164711617Y-44859657D01*
X164590343Y-44738383D01*
X164443641Y-44649537D01*
X164436394Y-44647266D01*
X164436392Y-44647265D01*
X164369257Y-44626226D01*
X164279980Y-44598249D01*
X164206533Y-44591500D01*
X164203635Y-44591500D01*
X163197389Y-44591501D01*
X162193468Y-44591501D01*
X162190609Y-44591764D01*
X162190602Y-44591764D01*
X162163518Y-44594253D01*
X162120020Y-44598249D01*
X162037048Y-44624251D01*
X161963608Y-44647265D01*
X161963606Y-44647266D01*
X161956359Y-44649537D01*
X161809657Y-44738383D01*
X161688383Y-44859657D01*
X161599537Y-45006359D01*
X161548249Y-45170020D01*
X161541500Y-45243467D01*
X153692156Y-45243467D01*
X153691745Y-45239684D01*
X153640615Y-45103295D01*
X153553261Y-44986739D01*
X153436705Y-44899385D01*
X153300316Y-44848255D01*
X153238134Y-44841500D01*
X151441866Y-44841500D01*
X151379684Y-44848255D01*
X151243295Y-44899385D01*
X151126739Y-44986739D01*
X151039385Y-45103295D01*
X151036233Y-45111703D01*
X150994919Y-45221907D01*
X150952277Y-45278671D01*
X150885716Y-45303371D01*
X150816367Y-45288163D01*
X150783743Y-45262476D01*
X150733151Y-45206875D01*
X150733142Y-45206866D01*
X150729670Y-45203051D01*
X150725619Y-45199852D01*
X150725615Y-45199848D01*
X150558414Y-45067800D01*
X150558410Y-45067798D01*
X150554359Y-45064598D01*
X150358789Y-44956638D01*
X150353920Y-44954914D01*
X150353916Y-44954912D01*
X150153087Y-44883795D01*
X150153083Y-44883794D01*
X150148212Y-44882069D01*
X150143119Y-44881162D01*
X150143116Y-44881161D01*
X149933373Y-44843800D01*
X149933367Y-44843799D01*
X149928284Y-44842894D01*
X149854452Y-44841992D01*
X149710081Y-44840228D01*
X149710079Y-44840228D01*
X149704911Y-44840165D01*
X149484091Y-44873955D01*
X149271756Y-44943357D01*
X149073607Y-45046507D01*
X149069474Y-45049610D01*
X149069471Y-45049612D01*
X148899100Y-45177530D01*
X148894965Y-45180635D01*
X148855525Y-45221907D01*
X148801280Y-45278671D01*
X148740629Y-45342138D01*
X148633201Y-45499621D01*
X148578293Y-45544621D01*
X148507768Y-45552792D01*
X148444021Y-45521538D01*
X148423324Y-45497054D01*
X148342822Y-45372617D01*
X148342820Y-45372614D01*
X148340014Y-45368277D01*
X148189670Y-45203051D01*
X148185619Y-45199852D01*
X148185615Y-45199848D01*
X148018414Y-45067800D01*
X148018410Y-45067798D01*
X148014359Y-45064598D01*
X147818789Y-44956638D01*
X147813920Y-44954914D01*
X147813916Y-44954912D01*
X147613087Y-44883795D01*
X147613083Y-44883794D01*
X147608212Y-44882069D01*
X147603119Y-44881162D01*
X147603116Y-44881161D01*
X147393373Y-44843800D01*
X147393367Y-44843799D01*
X147388284Y-44842894D01*
X147314452Y-44841992D01*
X147170081Y-44840228D01*
X147170079Y-44840228D01*
X147164911Y-44840165D01*
X146944091Y-44873955D01*
X146731756Y-44943357D01*
X146533607Y-45046507D01*
X146529474Y-45049610D01*
X146529471Y-45049612D01*
X146359100Y-45177530D01*
X146354965Y-45180635D01*
X146315525Y-45221907D01*
X146261280Y-45278671D01*
X146200629Y-45342138D01*
X146074743Y-45526680D01*
X145980688Y-45729305D01*
X145920989Y-45944570D01*
X145897251Y-46166695D01*
X116500000Y-46166695D01*
X116500000Y-42634500D01*
X116520002Y-42566379D01*
X116573658Y-42519886D01*
X116626000Y-42508500D01*
X187174000Y-42508500D01*
X187242121Y-42528502D01*
G37*
%TD.AperFunction*%
%TD*%
%TA.AperFunction,Conductor*%
%TO.N,GND*%
G36*
X162492121Y-69620002D02*
G01*
X162538614Y-69673658D01*
X162550000Y-69726000D01*
X162550000Y-81334114D01*
X162529998Y-81402235D01*
X162476342Y-81448728D01*
X162406068Y-81458832D01*
X162372752Y-81449221D01*
X162338323Y-81433892D01*
X162338315Y-81433889D01*
X162332288Y-81431206D01*
X162238887Y-81411353D01*
X162151944Y-81392872D01*
X162151939Y-81392872D01*
X162145487Y-81391500D01*
X161954513Y-81391500D01*
X161948061Y-81392872D01*
X161948056Y-81392872D01*
X161861113Y-81411353D01*
X161767712Y-81431206D01*
X161761682Y-81433891D01*
X161761681Y-81433891D01*
X161599278Y-81506197D01*
X161599276Y-81506198D01*
X161593248Y-81508882D01*
X161438747Y-81621134D01*
X161310960Y-81763056D01*
X161215473Y-81928444D01*
X161156458Y-82110072D01*
X161155768Y-82116633D01*
X161155768Y-82116635D01*
X161137186Y-82293435D01*
X161136496Y-82300000D01*
X161156458Y-82489928D01*
X161215473Y-82671556D01*
X161310960Y-82836944D01*
X161328291Y-82856192D01*
X161359007Y-82920198D01*
X161350242Y-82990651D01*
X161304779Y-83045182D01*
X161234653Y-83066500D01*
X160928768Y-83066500D01*
X160917585Y-83065973D01*
X160910092Y-83064298D01*
X160902166Y-83064547D01*
X160902165Y-83064547D01*
X160842002Y-83066438D01*
X160838044Y-83066500D01*
X160810144Y-83066500D01*
X160806154Y-83067004D01*
X160794320Y-83067936D01*
X160750111Y-83069326D01*
X160742495Y-83071539D01*
X160742493Y-83071539D01*
X160730652Y-83074979D01*
X160711293Y-83078988D01*
X160709983Y-83079154D01*
X160691203Y-83081526D01*
X160666890Y-83091152D01*
X160620507Y-83100000D01*
X142676000Y-83100000D01*
X142607879Y-83079998D01*
X142561386Y-83026342D01*
X142550000Y-82974000D01*
X142550000Y-69726000D01*
X142570002Y-69657879D01*
X142623658Y-69611386D01*
X142676000Y-69600000D01*
X162424000Y-69600000D01*
X162492121Y-69620002D01*
G37*
%TD.AperFunction*%
%TD*%
M02*
