%TF.GenerationSoftware,KiCad,Pcbnew,(6.0.7)*%
%TF.CreationDate,2023-04-27T18:42:04+08:00*%
%TF.ProjectId,Engineering 2023 UAV flight controller,456e6769-6e65-4657-9269-6e6720323032,1*%
%TF.SameCoordinates,Original*%
%TF.FileFunction,Other,Comment*%
%FSLAX46Y46*%
G04 Gerber Fmt 4.6, Leading zero omitted, Abs format (unit mm)*
G04 Created by KiCad (PCBNEW (6.0.7)) date 2023-04-27 18:42:04*
%MOMM*%
%LPD*%
G01*
G04 APERTURE LIST*
%ADD10C,0.060000*%
%ADD11C,0.100000*%
%ADD12C,0.040000*%
%ADD13C,0.150000*%
G04 APERTURE END LIST*
D10*
%TO.C,J1*%
X174855952Y-82818095D02*
X174455952Y-82818095D01*
X174855952Y-82589523D02*
X174627380Y-82760952D01*
X174455952Y-82589523D02*
X174684523Y-82818095D01*
X174646428Y-82418095D02*
X174646428Y-82284761D01*
X174855952Y-82227619D02*
X174855952Y-82418095D01*
X174455952Y-82418095D01*
X174455952Y-82227619D01*
X174646428Y-82056190D02*
X174646428Y-81922857D01*
X174855952Y-81865714D02*
X174855952Y-82056190D01*
X174455952Y-82056190D01*
X174455952Y-81865714D01*
X174855952Y-81694285D02*
X174455952Y-81694285D01*
X174455952Y-81541904D01*
X174475000Y-81503809D01*
X174494047Y-81484761D01*
X174532142Y-81465714D01*
X174589285Y-81465714D01*
X174627380Y-81484761D01*
X174646428Y-81503809D01*
X174665476Y-81541904D01*
X174665476Y-81694285D01*
X174455952Y-81218095D02*
X174455952Y-81141904D01*
X174475000Y-81103809D01*
X174513095Y-81065714D01*
X174589285Y-81046666D01*
X174722619Y-81046666D01*
X174798809Y-81065714D01*
X174836904Y-81103809D01*
X174855952Y-81141904D01*
X174855952Y-81218095D01*
X174836904Y-81256190D01*
X174798809Y-81294285D01*
X174722619Y-81313333D01*
X174589285Y-81313333D01*
X174513095Y-81294285D01*
X174475000Y-81256190D01*
X174455952Y-81218095D01*
X174455952Y-80875238D02*
X174779761Y-80875238D01*
X174817857Y-80856190D01*
X174836904Y-80837142D01*
X174855952Y-80799047D01*
X174855952Y-80722857D01*
X174836904Y-80684761D01*
X174817857Y-80665714D01*
X174779761Y-80646666D01*
X174455952Y-80646666D01*
X174455952Y-80513333D02*
X174455952Y-80284761D01*
X174855952Y-80399047D02*
X174455952Y-80399047D01*
D11*
X179402380Y-84225238D02*
X178402380Y-84225238D01*
X179402380Y-83653809D02*
X178830952Y-84082380D01*
X178402380Y-83653809D02*
X178973809Y-84225238D01*
X178878571Y-83225238D02*
X178878571Y-82891904D01*
X179402380Y-82749047D02*
X179402380Y-83225238D01*
X178402380Y-83225238D01*
X178402380Y-82749047D01*
X178878571Y-82320476D02*
X178878571Y-81987142D01*
X179402380Y-81844285D02*
X179402380Y-82320476D01*
X178402380Y-82320476D01*
X178402380Y-81844285D01*
X179402380Y-81415714D02*
X178402380Y-81415714D01*
X178402380Y-81034761D01*
X178450000Y-80939523D01*
X178497619Y-80891904D01*
X178592857Y-80844285D01*
X178735714Y-80844285D01*
X178830952Y-80891904D01*
X178878571Y-80939523D01*
X178926190Y-81034761D01*
X178926190Y-81415714D01*
X178402380Y-80225238D02*
X178402380Y-80034761D01*
X178450000Y-79939523D01*
X178545238Y-79844285D01*
X178735714Y-79796666D01*
X179069047Y-79796666D01*
X179259523Y-79844285D01*
X179354761Y-79939523D01*
X179402380Y-80034761D01*
X179402380Y-80225238D01*
X179354761Y-80320476D01*
X179259523Y-80415714D01*
X179069047Y-80463333D01*
X178735714Y-80463333D01*
X178545238Y-80415714D01*
X178450000Y-80320476D01*
X178402380Y-80225238D01*
X178402380Y-79368095D02*
X179211904Y-79368095D01*
X179307142Y-79320476D01*
X179354761Y-79272857D01*
X179402380Y-79177619D01*
X179402380Y-78987142D01*
X179354761Y-78891904D01*
X179307142Y-78844285D01*
X179211904Y-78796666D01*
X178402380Y-78796666D01*
X178402380Y-78463333D02*
X178402380Y-77891904D01*
X179402380Y-78177619D02*
X178402380Y-78177619D01*
D12*
%TO.C,U6*%
X170008333Y-66771428D02*
X169998809Y-66780952D01*
X169970238Y-66790476D01*
X169951190Y-66790476D01*
X169922619Y-66780952D01*
X169903571Y-66761904D01*
X169894047Y-66742857D01*
X169884523Y-66704761D01*
X169884523Y-66676190D01*
X169894047Y-66638095D01*
X169903571Y-66619047D01*
X169922619Y-66600000D01*
X169951190Y-66590476D01*
X169970238Y-66590476D01*
X169998809Y-66600000D01*
X170008333Y-66609523D01*
X170122619Y-66790476D02*
X170103571Y-66780952D01*
X170094047Y-66771428D01*
X170084523Y-66752380D01*
X170084523Y-66695238D01*
X170094047Y-66676190D01*
X170103571Y-66666666D01*
X170122619Y-66657142D01*
X170151190Y-66657142D01*
X170170238Y-66666666D01*
X170179761Y-66676190D01*
X170189285Y-66695238D01*
X170189285Y-66752380D01*
X170179761Y-66771428D01*
X170170238Y-66780952D01*
X170151190Y-66790476D01*
X170122619Y-66790476D01*
X170275000Y-66790476D02*
X170275000Y-66657142D01*
X170275000Y-66676190D02*
X170284523Y-66666666D01*
X170303571Y-66657142D01*
X170332142Y-66657142D01*
X170351190Y-66666666D01*
X170360714Y-66685714D01*
X170360714Y-66790476D01*
X170360714Y-66685714D02*
X170370238Y-66666666D01*
X170389285Y-66657142D01*
X170417857Y-66657142D01*
X170436904Y-66666666D01*
X170446428Y-66685714D01*
X170446428Y-66790476D01*
X170541666Y-66657142D02*
X170541666Y-66857142D01*
X170541666Y-66666666D02*
X170560714Y-66657142D01*
X170598809Y-66657142D01*
X170617857Y-66666666D01*
X170627380Y-66676190D01*
X170636904Y-66695238D01*
X170636904Y-66752380D01*
X170627380Y-66771428D01*
X170617857Y-66780952D01*
X170598809Y-66790476D01*
X170560714Y-66790476D01*
X170541666Y-66780952D01*
X170751190Y-66790476D02*
X170732142Y-66780952D01*
X170722619Y-66771428D01*
X170713095Y-66752380D01*
X170713095Y-66695238D01*
X170722619Y-66676190D01*
X170732142Y-66666666D01*
X170751190Y-66657142D01*
X170779761Y-66657142D01*
X170798809Y-66666666D01*
X170808333Y-66676190D01*
X170817857Y-66695238D01*
X170817857Y-66752380D01*
X170808333Y-66771428D01*
X170798809Y-66780952D01*
X170779761Y-66790476D01*
X170751190Y-66790476D01*
X170903571Y-66657142D02*
X170903571Y-66790476D01*
X170903571Y-66676190D02*
X170913095Y-66666666D01*
X170932142Y-66657142D01*
X170960714Y-66657142D01*
X170979761Y-66666666D01*
X170989285Y-66685714D01*
X170989285Y-66790476D01*
X171160714Y-66780952D02*
X171141666Y-66790476D01*
X171103571Y-66790476D01*
X171084523Y-66780952D01*
X171075000Y-66761904D01*
X171075000Y-66685714D01*
X171084523Y-66666666D01*
X171103571Y-66657142D01*
X171141666Y-66657142D01*
X171160714Y-66666666D01*
X171170238Y-66685714D01*
X171170238Y-66704761D01*
X171075000Y-66723809D01*
X171255952Y-66657142D02*
X171255952Y-66790476D01*
X171255952Y-66676190D02*
X171265476Y-66666666D01*
X171284523Y-66657142D01*
X171313095Y-66657142D01*
X171332142Y-66666666D01*
X171341666Y-66685714D01*
X171341666Y-66790476D01*
X171408333Y-66657142D02*
X171484523Y-66657142D01*
X171436904Y-66590476D02*
X171436904Y-66761904D01*
X171446428Y-66780952D01*
X171465476Y-66790476D01*
X171484523Y-66790476D01*
X169932142Y-67440476D02*
X169932142Y-67240476D01*
X170046428Y-67440476D01*
X170046428Y-67240476D01*
X170170238Y-67440476D02*
X170151190Y-67430952D01*
X170141666Y-67421428D01*
X170132142Y-67402380D01*
X170132142Y-67345238D01*
X170141666Y-67326190D01*
X170151190Y-67316666D01*
X170170238Y-67307142D01*
X170198809Y-67307142D01*
X170217857Y-67316666D01*
X170227380Y-67326190D01*
X170236904Y-67345238D01*
X170236904Y-67402380D01*
X170227380Y-67421428D01*
X170217857Y-67430952D01*
X170198809Y-67440476D01*
X170170238Y-67440476D01*
X170589285Y-67421428D02*
X170579761Y-67430952D01*
X170551190Y-67440476D01*
X170532142Y-67440476D01*
X170503571Y-67430952D01*
X170484523Y-67411904D01*
X170475000Y-67392857D01*
X170465476Y-67354761D01*
X170465476Y-67326190D01*
X170475000Y-67288095D01*
X170484523Y-67269047D01*
X170503571Y-67250000D01*
X170532142Y-67240476D01*
X170551190Y-67240476D01*
X170579761Y-67250000D01*
X170589285Y-67259523D01*
X170703571Y-67440476D02*
X170684523Y-67430952D01*
X170675000Y-67421428D01*
X170665476Y-67402380D01*
X170665476Y-67345238D01*
X170675000Y-67326190D01*
X170684523Y-67316666D01*
X170703571Y-67307142D01*
X170732142Y-67307142D01*
X170751190Y-67316666D01*
X170760714Y-67326190D01*
X170770238Y-67345238D01*
X170770238Y-67402380D01*
X170760714Y-67421428D01*
X170751190Y-67430952D01*
X170732142Y-67440476D01*
X170703571Y-67440476D01*
X170855952Y-67307142D02*
X170855952Y-67507142D01*
X170855952Y-67316666D02*
X170875000Y-67307142D01*
X170913095Y-67307142D01*
X170932142Y-67316666D01*
X170941666Y-67326190D01*
X170951190Y-67345238D01*
X170951190Y-67402380D01*
X170941666Y-67421428D01*
X170932142Y-67430952D01*
X170913095Y-67440476D01*
X170875000Y-67440476D01*
X170855952Y-67430952D01*
X171036904Y-67307142D02*
X171036904Y-67507142D01*
X171036904Y-67316666D02*
X171055952Y-67307142D01*
X171094047Y-67307142D01*
X171113095Y-67316666D01*
X171122619Y-67326190D01*
X171132142Y-67345238D01*
X171132142Y-67402380D01*
X171122619Y-67421428D01*
X171113095Y-67430952D01*
X171094047Y-67440476D01*
X171055952Y-67440476D01*
X171036904Y-67430952D01*
X171294047Y-67430952D02*
X171275000Y-67440476D01*
X171236904Y-67440476D01*
X171217857Y-67430952D01*
X171208333Y-67411904D01*
X171208333Y-67335714D01*
X171217857Y-67316666D01*
X171236904Y-67307142D01*
X171275000Y-67307142D01*
X171294047Y-67316666D01*
X171303571Y-67335714D01*
X171303571Y-67354761D01*
X171208333Y-67373809D01*
X171389285Y-67440476D02*
X171389285Y-67307142D01*
X171389285Y-67345238D02*
X171398809Y-67326190D01*
X171408333Y-67316666D01*
X171427380Y-67307142D01*
X171446428Y-67307142D01*
X170055952Y-67840476D02*
X170055952Y-67640476D01*
X170170238Y-67840476D02*
X170084523Y-67726190D01*
X170170238Y-67640476D02*
X170055952Y-67754761D01*
X170255952Y-67735714D02*
X170322619Y-67735714D01*
X170351190Y-67840476D02*
X170255952Y-67840476D01*
X170255952Y-67640476D01*
X170351190Y-67640476D01*
X170436904Y-67735714D02*
X170503571Y-67735714D01*
X170532142Y-67840476D02*
X170436904Y-67840476D01*
X170436904Y-67640476D01*
X170532142Y-67640476D01*
X170617857Y-67840476D02*
X170617857Y-67640476D01*
X170694047Y-67640476D01*
X170713095Y-67650000D01*
X170722619Y-67659523D01*
X170732142Y-67678571D01*
X170732142Y-67707142D01*
X170722619Y-67726190D01*
X170713095Y-67735714D01*
X170694047Y-67745238D01*
X170617857Y-67745238D01*
X170855952Y-67640476D02*
X170894047Y-67640476D01*
X170913095Y-67650000D01*
X170932142Y-67669047D01*
X170941666Y-67707142D01*
X170941666Y-67773809D01*
X170932142Y-67811904D01*
X170913095Y-67830952D01*
X170894047Y-67840476D01*
X170855952Y-67840476D01*
X170836904Y-67830952D01*
X170817857Y-67811904D01*
X170808333Y-67773809D01*
X170808333Y-67707142D01*
X170817857Y-67669047D01*
X170836904Y-67650000D01*
X170855952Y-67640476D01*
X171027380Y-67640476D02*
X171027380Y-67802380D01*
X171036904Y-67821428D01*
X171046428Y-67830952D01*
X171065476Y-67840476D01*
X171103571Y-67840476D01*
X171122619Y-67830952D01*
X171132142Y-67821428D01*
X171141666Y-67802380D01*
X171141666Y-67640476D01*
X171208333Y-67640476D02*
X171322619Y-67640476D01*
X171265476Y-67840476D02*
X171265476Y-67640476D01*
X169646428Y-67090476D02*
X169646428Y-66890476D01*
X169694047Y-66890476D01*
X169722619Y-66900000D01*
X169741666Y-66919047D01*
X169751190Y-66938095D01*
X169760714Y-66976190D01*
X169760714Y-67004761D01*
X169751190Y-67042857D01*
X169741666Y-67061904D01*
X169722619Y-67080952D01*
X169694047Y-67090476D01*
X169646428Y-67090476D01*
X169846428Y-67090476D02*
X169846428Y-66957142D01*
X169846428Y-66890476D02*
X169836904Y-66900000D01*
X169846428Y-66909523D01*
X169855952Y-66900000D01*
X169846428Y-66890476D01*
X169846428Y-66909523D01*
X169941666Y-67090476D02*
X169941666Y-66957142D01*
X169941666Y-66995238D02*
X169951190Y-66976190D01*
X169960714Y-66966666D01*
X169979761Y-66957142D01*
X169998809Y-66957142D01*
X170141666Y-67080952D02*
X170122619Y-67090476D01*
X170084523Y-67090476D01*
X170065476Y-67080952D01*
X170055952Y-67061904D01*
X170055952Y-66985714D01*
X170065476Y-66966666D01*
X170084523Y-66957142D01*
X170122619Y-66957142D01*
X170141666Y-66966666D01*
X170151190Y-66985714D01*
X170151190Y-67004761D01*
X170055952Y-67023809D01*
X170322619Y-67080952D02*
X170303571Y-67090476D01*
X170265476Y-67090476D01*
X170246428Y-67080952D01*
X170236904Y-67071428D01*
X170227380Y-67052380D01*
X170227380Y-66995238D01*
X170236904Y-66976190D01*
X170246428Y-66966666D01*
X170265476Y-66957142D01*
X170303571Y-66957142D01*
X170322619Y-66966666D01*
X170379761Y-66957142D02*
X170455952Y-66957142D01*
X170408333Y-66890476D02*
X170408333Y-67061904D01*
X170417857Y-67080952D01*
X170436904Y-67090476D01*
X170455952Y-67090476D01*
X170551190Y-67090476D02*
X170532142Y-67080952D01*
X170522619Y-67061904D01*
X170522619Y-66890476D01*
X170608333Y-66957142D02*
X170655952Y-67090476D01*
X170703571Y-66957142D02*
X170655952Y-67090476D01*
X170636904Y-67138095D01*
X170627380Y-67147619D01*
X170608333Y-67157142D01*
X170998809Y-66985714D02*
X171027380Y-66995238D01*
X171036904Y-67004761D01*
X171046428Y-67023809D01*
X171046428Y-67052380D01*
X171036904Y-67071428D01*
X171027380Y-67080952D01*
X171008333Y-67090476D01*
X170932142Y-67090476D01*
X170932142Y-66890476D01*
X170998809Y-66890476D01*
X171017857Y-66900000D01*
X171027380Y-66909523D01*
X171036904Y-66928571D01*
X171036904Y-66947619D01*
X171027380Y-66966666D01*
X171017857Y-66976190D01*
X170998809Y-66985714D01*
X170932142Y-66985714D01*
X171208333Y-67080952D02*
X171189285Y-67090476D01*
X171151190Y-67090476D01*
X171132142Y-67080952D01*
X171122619Y-67061904D01*
X171122619Y-66985714D01*
X171132142Y-66966666D01*
X171151190Y-66957142D01*
X171189285Y-66957142D01*
X171208333Y-66966666D01*
X171217857Y-66985714D01*
X171217857Y-67004761D01*
X171122619Y-67023809D01*
X171332142Y-67090476D02*
X171313095Y-67080952D01*
X171303571Y-67061904D01*
X171303571Y-66890476D01*
X171436904Y-67090476D02*
X171417857Y-67080952D01*
X171408333Y-67071428D01*
X171398809Y-67052380D01*
X171398809Y-66995238D01*
X171408333Y-66976190D01*
X171417857Y-66966666D01*
X171436904Y-66957142D01*
X171465476Y-66957142D01*
X171484523Y-66966666D01*
X171494047Y-66976190D01*
X171503571Y-66995238D01*
X171503571Y-67052380D01*
X171494047Y-67071428D01*
X171484523Y-67080952D01*
X171465476Y-67090476D01*
X171436904Y-67090476D01*
X171570238Y-66957142D02*
X171608333Y-67090476D01*
X171646428Y-66995238D01*
X171684523Y-67090476D01*
X171722619Y-66957142D01*
D13*
%TO.C,H2*%
X197400000Y-48000000D02*
G75*
G03*
X197400000Y-48000000I-3200000J0D01*
G01*
%TO.C,H1*%
X112600000Y-136000000D02*
G75*
G03*
X112600000Y-136000000I-3200000J0D01*
G01*
%TO.C,H4*%
X112600000Y-48000000D02*
G75*
G03*
X112600000Y-48000000I-3200000J0D01*
G01*
%TO.C,H3*%
X197400000Y-136000000D02*
G75*
G03*
X197400000Y-136000000I-3200000J0D01*
G01*
%TD*%
M02*
