M48
; DRILL file {KiCad (6.0.7)} date Sun Jul 30 21:01:36 2023
; FORMAT={-:-/ absolute / inch / decimal}
; #@! TF.CreationDate,2023-07-30T21:01:36+08:00
; #@! TF.GenerationSoftware,Kicad,Pcbnew,(6.0.7)
; #@! TF.FileFunction,Plated,1,2,PTH
FMAT,2
INCH
; #@! TA.AperFunction,Plated,PTH,ViaDrill
T1C0.0157
; #@! TA.AperFunction,Plated,PTH,ComponentDrill
T2C0.0236
; #@! TA.AperFunction,Plated,PTH,ComponentDrill
T3C0.0394
%
G90
G05
T1
X7.2874Y-3.5748
X7.2913Y-3.7559
X7.315Y-3.0787
X7.3661Y-4.4843
X7.3661Y-4.5787
X7.3701Y-4.0866
X7.3976Y-2.8583
X7.4213Y-4.1496
X7.4608Y-3.24
X7.4724Y-4.189
X7.5354Y-4.2402
X7.5433Y-3.374
X7.5551Y-3.9567
X7.5669Y-3.7667
X7.5787Y-3.6102
X7.5866Y-4.2795
X7.5906Y-3.2677
X7.5984Y-3.9567
X7.6063Y-3.6575
X7.6063Y-3.752
X7.6319Y-3.7913
X7.6339Y-3.3346
X7.6417Y-4.0866
X7.6496Y-4.5787
X7.6535Y-3.7047
X7.6535Y-4.4843
X7.6772Y-3.6063
X7.689Y-4.063
X7.7008Y-3.6575
X7.7008Y-3.752
X7.748Y-4.063
X7.7889Y-3.5694
X7.7913Y-3.3543
X7.8268Y-3.3701
X7.9331Y-4.0709
X7.9409Y-3.2874
X7.9872Y-3.5443
X7.9921Y-3.498
X7.9961Y-3.7441
X8.0984Y-2.8307
T3
X6.9094Y-2.7433
X6.9094Y-2.8433
X6.9094Y-2.9433
X6.9094Y-3.0433
X6.9094Y-3.1433
X6.9094Y-3.2433
X6.9094Y-3.3433
X6.9094Y-3.4433
X6.9094Y-3.5433
X6.9094Y-3.6433
X6.9094Y-3.7433
X6.9094Y-3.8433
X6.9094Y-3.9433
X6.9094Y-4.0433
X6.9094Y-4.1433
X6.9094Y-4.2433
X6.9094Y-4.3433
X6.9094Y-4.4433
X6.9094Y-4.5433
X7.1634Y-2.6004
X7.1634Y-2.7776
X7.4193Y-2.6004
X7.4193Y-2.7776
X7.8022Y-4.5423
X7.9022Y-4.5423
X8.0022Y-4.5423
X8.3386Y-2.7433
X8.3386Y-2.8433
X8.3386Y-2.9433
X8.3386Y-3.0433
X8.3386Y-3.1433
X8.3386Y-3.2433
X8.3386Y-3.3433
X8.3386Y-3.4433
X8.3386Y-3.5433
X8.3386Y-3.6433
X8.3386Y-3.7433
X8.3386Y-3.8433
X8.3386Y-3.9433
X8.3386Y-4.0433
X8.3386Y-4.1433
X8.3386Y-4.2433
X8.3386Y-4.3433
X8.3386Y-4.4433
X8.3386Y-4.5433
T2
G00X7.511Y-2.6969
M15
G01X7.511Y-2.6457
M16
G05
G00X7.511Y-2.8415
M15
G01X7.511Y-2.8022
M16
G05
G00X7.8512Y-2.6969
M15
G01X7.8512Y-2.6457
M16
G05
G00X7.8512Y-2.8415
M15
G01X7.8512Y-2.8022
M16
G05
T0
M30
