%TF.GenerationSoftware,KiCad,Pcbnew,(6.0.7)*%
%TF.CreationDate,2023-07-30T21:01:36+08:00*%
%TF.ProjectId,RP2040 basic dev board,52503230-3430-4206-9261-736963206465,rev?*%
%TF.SameCoordinates,Original*%
%TF.FileFunction,Copper,L2,Bot*%
%TF.FilePolarity,Positive*%
%FSLAX46Y46*%
G04 Gerber Fmt 4.6, Leading zero omitted, Abs format (unit mm)*
G04 Created by KiCad (PCBNEW (6.0.7)) date 2023-07-30 21:01:36*
%MOMM*%
%LPD*%
G01*
G04 APERTURE LIST*
%TA.AperFunction,ComponentPad*%
%ADD10R,1.700000X1.700000*%
%TD*%
%TA.AperFunction,ComponentPad*%
%ADD11O,1.700000X1.700000*%
%TD*%
%TA.AperFunction,ComponentPad*%
%ADD12C,1.700000*%
%TD*%
%TA.AperFunction,ComponentPad*%
%ADD13O,1.300000X2.300000*%
%TD*%
%TA.AperFunction,ComponentPad*%
%ADD14O,1.300000X2.600000*%
%TD*%
%TA.AperFunction,ViaPad*%
%ADD15C,0.800000*%
%TD*%
%TA.AperFunction,Conductor*%
%ADD16C,0.300000*%
%TD*%
%TA.AperFunction,Conductor*%
%ADD17C,0.200000*%
%TD*%
G04 APERTURE END LIST*
D10*
%TO.P,J1,1,Pin_1*%
%TO.N,/SWCLK*%
X198175000Y-115375000D03*
D11*
%TO.P,J1,2,Pin_2*%
%TO.N,GND*%
X200715000Y-115375000D03*
%TO.P,J1,3,Pin_3*%
%TO.N,/SWDIO*%
X203255000Y-115375000D03*
%TD*%
D10*
%TO.P,J3,1,Pin_1*%
%TO.N,GND*%
X211800000Y-115400000D03*
D11*
%TO.P,J3,2,Pin_2*%
%TO.N,/3.3*%
X211800000Y-112860000D03*
%TO.P,J3,3,Pin_3*%
%TO.N,/GPIO_15*%
X211800000Y-110320000D03*
%TO.P,J3,4,Pin_4*%
%TO.N,/GPIO_16*%
X211800000Y-107780000D03*
%TO.P,J3,5,Pin_5*%
%TO.N,/GPIO_17*%
X211800000Y-105240000D03*
%TO.P,J3,6,Pin_6*%
%TO.N,/GPIO_18*%
X211800000Y-102700000D03*
%TO.P,J3,7,Pin_7*%
%TO.N,/GPIO_19*%
X211800000Y-100160000D03*
%TO.P,J3,8,Pin_8*%
%TO.N,/GPIO_20*%
X211800000Y-97620000D03*
%TO.P,J3,9,Pin_9*%
%TO.N,/GPIO_21*%
X211800000Y-95080000D03*
%TO.P,J3,10,Pin_10*%
%TO.N,/GPIO_22*%
X211800000Y-92540000D03*
%TO.P,J3,11,Pin_11*%
%TO.N,/GPIO_23*%
X211800000Y-90000000D03*
%TO.P,J3,12,Pin_12*%
%TO.N,/GPIO_24*%
X211800000Y-87460000D03*
%TO.P,J3,13,Pin_13*%
%TO.N,/GPIO_25*%
X211800000Y-84920000D03*
%TO.P,J3,14,Pin_14*%
%TO.N,/ADC_0*%
X211800000Y-82380000D03*
%TO.P,J3,15,Pin_15*%
%TO.N,/ADC_1*%
X211800000Y-79840000D03*
%TO.P,J3,16,Pin_16*%
%TO.N,/ADC_2*%
X211800000Y-77300000D03*
%TO.P,J3,17,Pin_17*%
%TO.N,/ADC_3*%
X211800000Y-74760000D03*
%TO.P,J3,18,Pin_18*%
%TO.N,/3.3*%
X211800000Y-72220000D03*
%TO.P,J3,19,Pin_19*%
%TO.N,GND*%
X211800000Y-69680000D03*
%TD*%
D12*
%TO.P,SW1,1,1*%
%TO.N,GND*%
X188450000Y-66050000D03*
D10*
X181950000Y-66050000D03*
D12*
%TO.P,SW1,2,2*%
%TO.N,Net-(R1-Pad1)*%
X181950000Y-70550000D03*
X188450000Y-70550000D03*
%TD*%
D10*
%TO.P,J2,1,Pin_1*%
%TO.N,GND*%
X175500000Y-69680000D03*
D11*
%TO.P,J2,2,Pin_2*%
%TO.N,/3.3*%
X175500000Y-72220000D03*
%TO.P,J2,3,Pin_3*%
%TO.N,/GPIO_0*%
X175500000Y-74760000D03*
%TO.P,J2,4,Pin_4*%
%TO.N,/GPIO_1*%
X175500000Y-77300000D03*
%TO.P,J2,5,Pin_5*%
%TO.N,/GPIO_2*%
X175500000Y-79840000D03*
%TO.P,J2,6,Pin_6*%
%TO.N,/GPIO_3*%
X175500000Y-82380000D03*
%TO.P,J2,7,Pin_7*%
%TO.N,/GPIO_4*%
X175500000Y-84920000D03*
%TO.P,J2,8,Pin_8*%
%TO.N,/GPIO_5*%
X175500000Y-87460000D03*
%TO.P,J2,9,Pin_9*%
%TO.N,/GPIO_6*%
X175500000Y-90000000D03*
%TO.P,J2,10,Pin_10*%
%TO.N,/GPIO_7*%
X175500000Y-92540000D03*
%TO.P,J2,11,Pin_11*%
%TO.N,/GPIO_8*%
X175500000Y-95080000D03*
%TO.P,J2,12,Pin_12*%
%TO.N,/GPIO_9*%
X175500000Y-97620000D03*
%TO.P,J2,13,Pin_13*%
%TO.N,/GPIO_10*%
X175500000Y-100160000D03*
%TO.P,J2,14,Pin_14*%
%TO.N,/GPIO_11*%
X175500000Y-102700000D03*
%TO.P,J2,15,Pin_15*%
%TO.N,/GPIO_12*%
X175500000Y-105240000D03*
%TO.P,J2,16,Pin_16*%
%TO.N,/GPIO_13*%
X175500000Y-107780000D03*
%TO.P,J2,17,Pin_17*%
%TO.N,/GPIO_14*%
X175500000Y-110320000D03*
%TO.P,J2,18,Pin_18*%
%TO.N,/3.3*%
X175500000Y-112860000D03*
%TO.P,J2,19,Pin_19*%
%TO.N,GND*%
X175500000Y-115400000D03*
%TD*%
D13*
%TO.P,J4,S1,SHIELD*%
%TO.N,GND*%
X190780000Y-71675000D03*
X199420000Y-71675000D03*
D14*
X190780000Y-67850000D03*
X199420000Y-67850000D03*
%TD*%
D15*
%TO.N,GND*%
X195600000Y-95300000D03*
X189800000Y-106400000D03*
X196800000Y-103200000D03*
X203000000Y-88850000D03*
X191600000Y-85700000D03*
X187100000Y-113900000D03*
X198800000Y-85600000D03*
X192800000Y-83000000D03*
X193000000Y-100500000D03*
X193900000Y-84700000D03*
X194400000Y-94100000D03*
X197900000Y-85200000D03*
X192700000Y-108700000D03*
X194300000Y-116300000D03*
X195300000Y-103200000D03*
X191400000Y-107700000D03*
X185800000Y-78200000D03*
X195600000Y-92900000D03*
X185100000Y-90800000D03*
X205700000Y-71900000D03*
X193200000Y-95300000D03*
X188500000Y-105400000D03*
X187200000Y-103800000D03*
X194100000Y-103800000D03*
X185200000Y-95400000D03*
X187100000Y-116300000D03*
X202875000Y-90025000D03*
X194400000Y-113900000D03*
X203100000Y-95100000D03*
X193200000Y-92900000D03*
%TO.N,/3.3*%
X192500000Y-91700000D03*
X201700000Y-83500000D03*
X189505000Y-82295000D03*
X201500000Y-103400000D03*
X187900000Y-72600000D03*
X197837500Y-90662500D03*
X193850000Y-96300000D03*
X195000000Y-91600000D03*
X192200498Y-95675000D03*
%TO.N,/GPIO_15*%
X191900000Y-100500000D03*
%TD*%
D16*
%TO.N,/3.3*%
X201800000Y-83500000D02*
X201700000Y-83500000D01*
D17*
X192100000Y-95574502D02*
X192200498Y-95675000D01*
X197837500Y-90662500D02*
X201700000Y-86800000D01*
X193850000Y-96300000D02*
X195800000Y-96300000D01*
D16*
X177800000Y-73200000D02*
X183700000Y-73200000D01*
X176820000Y-72220000D02*
X177800000Y-73200000D01*
X184660000Y-112860000D02*
X211800000Y-112860000D01*
X184400000Y-98100000D02*
X182100000Y-100400000D01*
D17*
X194900000Y-91700000D02*
X195000000Y-91600000D01*
X189505000Y-90905000D02*
X190300000Y-91700000D01*
X192500000Y-91700000D02*
X194900000Y-91700000D01*
D16*
X182100000Y-100400000D02*
X182100000Y-110300000D01*
D17*
X189505000Y-82295000D02*
X189505000Y-90905000D01*
X195800000Y-96300000D02*
X201500000Y-102000000D01*
D16*
X183700000Y-73200000D02*
X184300000Y-72600000D01*
X187900000Y-72600000D02*
X189505000Y-74205000D01*
X184300000Y-72600000D02*
X187900000Y-72600000D01*
X191725000Y-95675000D02*
X189300000Y-98100000D01*
X192200498Y-95675000D02*
X191725000Y-95675000D01*
D17*
X201700000Y-86800000D02*
X201700000Y-83500000D01*
X190300000Y-91700000D02*
X192500000Y-91700000D01*
D16*
X175500000Y-112860000D02*
X184660000Y-112860000D01*
X189505000Y-74205000D02*
X189505000Y-82295000D01*
D17*
X195000000Y-91600000D02*
X196900000Y-91600000D01*
D16*
X182100000Y-110300000D02*
X184660000Y-112860000D01*
X175500000Y-72220000D02*
X176820000Y-72220000D01*
X189300000Y-98100000D02*
X184400000Y-98100000D01*
D17*
X192100000Y-95500000D02*
X192100000Y-95574502D01*
X196900000Y-91600000D02*
X197837500Y-90662500D01*
X201500000Y-102000000D02*
X201500000Y-103400000D01*
%TO.N,/GPIO_15*%
X184320000Y-110320000D02*
X183500000Y-109500000D01*
X183500000Y-102200000D02*
X185200000Y-100500000D01*
X185200000Y-100500000D02*
X191900000Y-100500000D01*
X211800000Y-110320000D02*
X184320000Y-110320000D01*
X183500000Y-109500000D02*
X183500000Y-102200000D01*
%TD*%
%TA.AperFunction,Conductor*%
%TO.N,GND*%
G36*
X184617969Y-113520051D02*
G01*
X184639152Y-113523406D01*
X184685141Y-113519059D01*
X184696996Y-113518500D01*
X210539594Y-113518500D01*
X210607715Y-113538502D01*
X210647027Y-113578665D01*
X210699987Y-113665088D01*
X210846250Y-113833938D01*
X210850225Y-113837238D01*
X210850231Y-113837244D01*
X210855425Y-113841556D01*
X210895059Y-113900460D01*
X210896555Y-113971441D01*
X210859439Y-114031962D01*
X210819168Y-114056480D01*
X210711946Y-114096676D01*
X210696351Y-114105214D01*
X210594276Y-114181715D01*
X210581715Y-114194276D01*
X210505214Y-114296351D01*
X210496676Y-114311946D01*
X210451522Y-114432394D01*
X210447895Y-114447649D01*
X210442369Y-114498514D01*
X210442000Y-114505328D01*
X210442000Y-115127885D01*
X210446475Y-115143124D01*
X210447865Y-115144329D01*
X210455548Y-115146000D01*
X211928000Y-115146000D01*
X211996121Y-115166002D01*
X212042614Y-115219658D01*
X212054000Y-115272000D01*
X212054000Y-115528000D01*
X212033998Y-115596121D01*
X211980342Y-115642614D01*
X211928000Y-115654000D01*
X210460116Y-115654000D01*
X210444877Y-115658475D01*
X210443672Y-115659865D01*
X210442001Y-115667548D01*
X210442001Y-116294669D01*
X210442371Y-116301490D01*
X210447895Y-116352352D01*
X210451521Y-116367604D01*
X210496679Y-116488061D01*
X210505948Y-116504992D01*
X210521117Y-116574349D01*
X210496380Y-116640897D01*
X210439592Y-116683507D01*
X210395428Y-116691500D01*
X204142489Y-116691500D01*
X204074368Y-116671498D01*
X204027875Y-116617842D01*
X204017771Y-116547568D01*
X204047265Y-116482988D01*
X204069321Y-116462921D01*
X204096139Y-116443792D01*
X204134860Y-116416173D01*
X204293096Y-116258489D01*
X204423453Y-116077077D01*
X204436995Y-116049678D01*
X204520136Y-115881453D01*
X204520137Y-115881451D01*
X204522430Y-115876811D01*
X204587370Y-115663069D01*
X204616529Y-115441590D01*
X204618156Y-115375000D01*
X204599852Y-115152361D01*
X204545431Y-114935702D01*
X204456354Y-114730840D01*
X204382789Y-114617126D01*
X204337822Y-114547617D01*
X204337820Y-114547614D01*
X204335014Y-114543277D01*
X204184670Y-114378051D01*
X204180619Y-114374852D01*
X204180615Y-114374848D01*
X204013414Y-114242800D01*
X204013410Y-114242798D01*
X204009359Y-114239598D01*
X203973028Y-114219542D01*
X203922568Y-114191687D01*
X203813789Y-114131638D01*
X203808920Y-114129914D01*
X203808916Y-114129912D01*
X203608087Y-114058795D01*
X203608083Y-114058794D01*
X203603212Y-114057069D01*
X203598119Y-114056162D01*
X203598116Y-114056161D01*
X203388373Y-114018800D01*
X203388367Y-114018799D01*
X203383284Y-114017894D01*
X203309452Y-114016992D01*
X203165081Y-114015228D01*
X203165079Y-114015228D01*
X203159911Y-114015165D01*
X202939091Y-114048955D01*
X202726756Y-114118357D01*
X202689858Y-114137565D01*
X202543860Y-114213567D01*
X202528607Y-114221507D01*
X202524474Y-114224610D01*
X202524471Y-114224612D01*
X202408153Y-114311946D01*
X202349965Y-114355635D01*
X202346393Y-114359373D01*
X202213427Y-114498514D01*
X202195629Y-114517138D01*
X202192715Y-114521410D01*
X202192714Y-114521411D01*
X202087898Y-114675066D01*
X202032987Y-114720069D01*
X201962462Y-114728240D01*
X201898715Y-114696986D01*
X201878018Y-114672502D01*
X201797426Y-114547926D01*
X201791136Y-114539757D01*
X201647806Y-114382240D01*
X201640273Y-114375215D01*
X201473139Y-114243222D01*
X201464552Y-114237517D01*
X201278117Y-114134599D01*
X201268705Y-114130369D01*
X201067959Y-114059280D01*
X201057988Y-114056646D01*
X200986837Y-114043972D01*
X200973540Y-114045432D01*
X200969000Y-114059989D01*
X200969000Y-115503000D01*
X200948998Y-115571121D01*
X200895342Y-115617614D01*
X200843000Y-115629000D01*
X200587000Y-115629000D01*
X200518879Y-115608998D01*
X200472386Y-115555342D01*
X200461000Y-115503000D01*
X200461000Y-114058102D01*
X200457082Y-114044758D01*
X200442806Y-114042771D01*
X200404324Y-114048660D01*
X200394288Y-114051051D01*
X200191868Y-114117212D01*
X200182359Y-114121209D01*
X199993463Y-114219542D01*
X199984738Y-114225036D01*
X199814433Y-114352905D01*
X199806726Y-114359748D01*
X199729478Y-114440584D01*
X199667954Y-114476014D01*
X199597042Y-114472557D01*
X199539255Y-114431311D01*
X199520402Y-114397763D01*
X199478767Y-114286703D01*
X199475615Y-114278295D01*
X199388261Y-114161739D01*
X199271705Y-114074385D01*
X199135316Y-114023255D01*
X199073134Y-114016500D01*
X197276866Y-114016500D01*
X197214684Y-114023255D01*
X197078295Y-114074385D01*
X196961739Y-114161739D01*
X196874385Y-114278295D01*
X196823255Y-114414684D01*
X196816500Y-114476866D01*
X196816500Y-116273134D01*
X196823255Y-116335316D01*
X196874385Y-116471705D01*
X196879770Y-116478890D01*
X196879771Y-116478892D01*
X196888047Y-116489934D01*
X196912896Y-116556440D01*
X196897844Y-116625822D01*
X196847670Y-116676053D01*
X196787222Y-116691500D01*
X176421677Y-116691500D01*
X176353556Y-116671498D01*
X176307063Y-116617842D01*
X176296959Y-116547568D01*
X176326453Y-116482988D01*
X176348509Y-116462921D01*
X176375328Y-116443792D01*
X176383200Y-116437139D01*
X176534052Y-116286812D01*
X176540730Y-116278965D01*
X176665003Y-116106020D01*
X176670313Y-116097183D01*
X176764670Y-115906267D01*
X176768469Y-115896672D01*
X176830377Y-115692910D01*
X176832555Y-115682837D01*
X176833986Y-115671962D01*
X176831775Y-115657778D01*
X176818617Y-115654000D01*
X175372000Y-115654000D01*
X175303879Y-115633998D01*
X175257386Y-115580342D01*
X175246000Y-115528000D01*
X175246000Y-115272000D01*
X175266002Y-115203879D01*
X175319658Y-115157386D01*
X175372000Y-115146000D01*
X176818344Y-115146000D01*
X176831875Y-115142027D01*
X176833180Y-115132947D01*
X176791214Y-114965875D01*
X176787894Y-114956124D01*
X176702972Y-114760814D01*
X176698105Y-114751739D01*
X176582426Y-114572926D01*
X176576136Y-114564757D01*
X176432806Y-114407240D01*
X176425273Y-114400215D01*
X176258139Y-114268222D01*
X176249556Y-114262520D01*
X176212602Y-114242120D01*
X176162631Y-114191687D01*
X176147859Y-114122245D01*
X176172975Y-114055839D01*
X176200327Y-114029232D01*
X176223797Y-114012491D01*
X176379860Y-113901173D01*
X176404323Y-113876796D01*
X176461209Y-113820107D01*
X176538096Y-113743489D01*
X176585885Y-113676984D01*
X176662060Y-113570974D01*
X176718055Y-113527326D01*
X176764383Y-113518500D01*
X184598259Y-113518500D01*
X184617969Y-113520051D01*
G37*
%TD.AperFunction*%
%TA.AperFunction,Conductor*%
G36*
X180534121Y-65453502D02*
G01*
X180580614Y-65507158D01*
X180592000Y-65559500D01*
X180592000Y-65777885D01*
X180596475Y-65793124D01*
X180597865Y-65794329D01*
X180605548Y-65796000D01*
X183289884Y-65796000D01*
X183305123Y-65791525D01*
X183306328Y-65790135D01*
X183307999Y-65782452D01*
X183307999Y-65559500D01*
X183328001Y-65491379D01*
X183381657Y-65444886D01*
X183433999Y-65433500D01*
X187045944Y-65433500D01*
X187114065Y-65453502D01*
X187160558Y-65507158D01*
X187170662Y-65577432D01*
X187167361Y-65593172D01*
X187112864Y-65789681D01*
X187110933Y-65799800D01*
X187088302Y-66011574D01*
X187088050Y-66021863D01*
X187100309Y-66234477D01*
X187101745Y-66244697D01*
X187148565Y-66452446D01*
X187151645Y-66462275D01*
X187231770Y-66659603D01*
X187236413Y-66668794D01*
X187316460Y-66799420D01*
X187326916Y-66808880D01*
X187335694Y-66805096D01*
X188360905Y-65779885D01*
X188423217Y-65745859D01*
X188494032Y-65750924D01*
X188539095Y-65779885D01*
X189560475Y-66801265D01*
X189581927Y-66812979D01*
X189632129Y-66863181D01*
X189647220Y-66932556D01*
X189644787Y-66949766D01*
X189641773Y-66963944D01*
X189622437Y-67127322D01*
X189622000Y-67134728D01*
X189622000Y-67577885D01*
X189626475Y-67593124D01*
X189627865Y-67594329D01*
X189635548Y-67596000D01*
X190507885Y-67596000D01*
X190523124Y-67591525D01*
X190524329Y-67590135D01*
X190526000Y-67582452D01*
X190526000Y-67577885D01*
X191034000Y-67577885D01*
X191038475Y-67593124D01*
X191039865Y-67594329D01*
X191047548Y-67596000D01*
X191919885Y-67596000D01*
X191935124Y-67591525D01*
X191936329Y-67590135D01*
X191938000Y-67582452D01*
X191938000Y-67577885D01*
X198262000Y-67577885D01*
X198266475Y-67593124D01*
X198267865Y-67594329D01*
X198275548Y-67596000D01*
X199147885Y-67596000D01*
X199163124Y-67591525D01*
X199164329Y-67590135D01*
X199166000Y-67582452D01*
X199166000Y-67577885D01*
X199674000Y-67577885D01*
X199678475Y-67593124D01*
X199679865Y-67594329D01*
X199687548Y-67596000D01*
X200559885Y-67596000D01*
X200575124Y-67591525D01*
X200576329Y-67590135D01*
X200578000Y-67582452D01*
X200578000Y-67148908D01*
X200577734Y-67143119D01*
X200564016Y-66993824D01*
X200561918Y-66982503D01*
X200507287Y-66788797D01*
X200503163Y-66778050D01*
X200414141Y-66597534D01*
X200408131Y-66587727D01*
X200287701Y-66426451D01*
X200280011Y-66417911D01*
X200132206Y-66281280D01*
X200123081Y-66274279D01*
X199952856Y-66166875D01*
X199942609Y-66161654D01*
X199755668Y-66087072D01*
X199744631Y-66083803D01*
X199691770Y-66073288D01*
X199678894Y-66074440D01*
X199674000Y-66089596D01*
X199674000Y-67577885D01*
X199166000Y-67577885D01*
X199166000Y-66086706D01*
X199162194Y-66073744D01*
X199147278Y-66071808D01*
X199124700Y-66075687D01*
X199113583Y-66078666D01*
X198924748Y-66148331D01*
X198914370Y-66153281D01*
X198741394Y-66256191D01*
X198732085Y-66262955D01*
X198580757Y-66395665D01*
X198572847Y-66404000D01*
X198448236Y-66562069D01*
X198441968Y-66571720D01*
X198348257Y-66749836D01*
X198343848Y-66760479D01*
X198284167Y-66952684D01*
X198281773Y-66963946D01*
X198262437Y-67127322D01*
X198262000Y-67134728D01*
X198262000Y-67577885D01*
X191938000Y-67577885D01*
X191938000Y-67148908D01*
X191937734Y-67143119D01*
X191924016Y-66993824D01*
X191921918Y-66982503D01*
X191867287Y-66788797D01*
X191863163Y-66778050D01*
X191774141Y-66597534D01*
X191768131Y-66587727D01*
X191647701Y-66426451D01*
X191640011Y-66417911D01*
X191492206Y-66281280D01*
X191483081Y-66274279D01*
X191312856Y-66166875D01*
X191302609Y-66161654D01*
X191115668Y-66087072D01*
X191104631Y-66083803D01*
X191051770Y-66073288D01*
X191038894Y-66074440D01*
X191034000Y-66089596D01*
X191034000Y-67577885D01*
X190526000Y-67577885D01*
X190526000Y-66086706D01*
X190522194Y-66073744D01*
X190507278Y-66071808D01*
X190484700Y-66075687D01*
X190473583Y-66078666D01*
X190284748Y-66148331D01*
X190274370Y-66153281D01*
X190101394Y-66256191D01*
X190092091Y-66262950D01*
X190004251Y-66339984D01*
X189939847Y-66369861D01*
X189869514Y-66360175D01*
X189815582Y-66314002D01*
X189795175Y-66246002D01*
X189796251Y-66228807D01*
X189810589Y-66119890D01*
X189811109Y-66113212D01*
X189812572Y-66053364D01*
X189812378Y-66046646D01*
X189794781Y-65832604D01*
X189793096Y-65822424D01*
X189741214Y-65615875D01*
X189736227Y-65601226D01*
X189738305Y-65600519D01*
X189730655Y-65539256D01*
X189761342Y-65475234D01*
X189821770Y-65437966D01*
X189855018Y-65433500D01*
X212990500Y-65433500D01*
X213058621Y-65453502D01*
X213105114Y-65507158D01*
X213116500Y-65559500D01*
X213116500Y-68788013D01*
X213096498Y-68856134D01*
X213042842Y-68902627D01*
X212972568Y-68912731D01*
X212907988Y-68883237D01*
X212884706Y-68856450D01*
X212882425Y-68852924D01*
X212876136Y-68844757D01*
X212732806Y-68687240D01*
X212725273Y-68680215D01*
X212558139Y-68548222D01*
X212549552Y-68542517D01*
X212363117Y-68439599D01*
X212353705Y-68435369D01*
X212152959Y-68364280D01*
X212142988Y-68361646D01*
X212071837Y-68348972D01*
X212058540Y-68350432D01*
X212054000Y-68364989D01*
X212054000Y-69808000D01*
X212033998Y-69876121D01*
X211980342Y-69922614D01*
X211928000Y-69934000D01*
X210483225Y-69934000D01*
X210469694Y-69937973D01*
X210468257Y-69947966D01*
X210498565Y-70082446D01*
X210501645Y-70092275D01*
X210581770Y-70289603D01*
X210586413Y-70298794D01*
X210697694Y-70480388D01*
X210703777Y-70488699D01*
X210843213Y-70649667D01*
X210850580Y-70656883D01*
X211014434Y-70792916D01*
X211022881Y-70798831D01*
X211091969Y-70839203D01*
X211140693Y-70890842D01*
X211153764Y-70960625D01*
X211127033Y-71026396D01*
X211086584Y-71059752D01*
X211073607Y-71066507D01*
X211069474Y-71069610D01*
X211069471Y-71069612D01*
X210937072Y-71169020D01*
X210894965Y-71200635D01*
X210891393Y-71204373D01*
X210787950Y-71312620D01*
X210740629Y-71362138D01*
X210737715Y-71366410D01*
X210737714Y-71366411D01*
X210709718Y-71407452D01*
X210614743Y-71546680D01*
X210598040Y-71582664D01*
X210524225Y-71741686D01*
X210520688Y-71749305D01*
X210460989Y-71964570D01*
X210437251Y-72186695D01*
X210437548Y-72191848D01*
X210437548Y-72191851D01*
X210440340Y-72240272D01*
X210450110Y-72409715D01*
X210451247Y-72414761D01*
X210451248Y-72414767D01*
X210471492Y-72504595D01*
X210499222Y-72627639D01*
X210583266Y-72834616D01*
X210585965Y-72839020D01*
X210697291Y-73020688D01*
X210699987Y-73025088D01*
X210846250Y-73193938D01*
X211018126Y-73336632D01*
X211088595Y-73377811D01*
X211091445Y-73379476D01*
X211140169Y-73431114D01*
X211153240Y-73500897D01*
X211126509Y-73566669D01*
X211086055Y-73600027D01*
X211073607Y-73606507D01*
X211069474Y-73609610D01*
X211069471Y-73609612D01*
X210899100Y-73737530D01*
X210894965Y-73740635D01*
X210854452Y-73783029D01*
X210762905Y-73878828D01*
X210740629Y-73902138D01*
X210737715Y-73906410D01*
X210737714Y-73906411D01*
X210708658Y-73949006D01*
X210614743Y-74086680D01*
X210599003Y-74120590D01*
X210527236Y-74275199D01*
X210520688Y-74289305D01*
X210460989Y-74504570D01*
X210437251Y-74726695D01*
X210437548Y-74731848D01*
X210437548Y-74731851D01*
X210443011Y-74826590D01*
X210450110Y-74949715D01*
X210451247Y-74954761D01*
X210451248Y-74954767D01*
X210471119Y-75042939D01*
X210499222Y-75167639D01*
X210583266Y-75374616D01*
X210585965Y-75379020D01*
X210697291Y-75560688D01*
X210699987Y-75565088D01*
X210846250Y-75733938D01*
X211018126Y-75876632D01*
X211088595Y-75917811D01*
X211091445Y-75919476D01*
X211140169Y-75971114D01*
X211153240Y-76040897D01*
X211126509Y-76106669D01*
X211086055Y-76140027D01*
X211073607Y-76146507D01*
X211069474Y-76149610D01*
X211069471Y-76149612D01*
X211045247Y-76167800D01*
X210894965Y-76280635D01*
X210740629Y-76442138D01*
X210737715Y-76446410D01*
X210737714Y-76446411D01*
X210699578Y-76502317D01*
X210614743Y-76626680D01*
X210520688Y-76829305D01*
X210460989Y-77044570D01*
X210437251Y-77266695D01*
X210437548Y-77271848D01*
X210437548Y-77271851D01*
X210443011Y-77366590D01*
X210450110Y-77489715D01*
X210451247Y-77494761D01*
X210451248Y-77494767D01*
X210471119Y-77582939D01*
X210499222Y-77707639D01*
X210583266Y-77914616D01*
X210585965Y-77919020D01*
X210697291Y-78100688D01*
X210699987Y-78105088D01*
X210846250Y-78273938D01*
X211018126Y-78416632D01*
X211088595Y-78457811D01*
X211091445Y-78459476D01*
X211140169Y-78511114D01*
X211153240Y-78580897D01*
X211126509Y-78646669D01*
X211086055Y-78680027D01*
X211073607Y-78686507D01*
X211069474Y-78689610D01*
X211069471Y-78689612D01*
X211045247Y-78707800D01*
X210894965Y-78820635D01*
X210740629Y-78982138D01*
X210737715Y-78986410D01*
X210737714Y-78986411D01*
X210699578Y-79042317D01*
X210614743Y-79166680D01*
X210520688Y-79369305D01*
X210460989Y-79584570D01*
X210437251Y-79806695D01*
X210437548Y-79811848D01*
X210437548Y-79811851D01*
X210443011Y-79906590D01*
X210450110Y-80029715D01*
X210451247Y-80034761D01*
X210451248Y-80034767D01*
X210471119Y-80122939D01*
X210499222Y-80247639D01*
X210583266Y-80454616D01*
X210585965Y-80459020D01*
X210697291Y-80640688D01*
X210699987Y-80645088D01*
X210846250Y-80813938D01*
X211018126Y-80956632D01*
X211088595Y-80997811D01*
X211091445Y-80999476D01*
X211140169Y-81051114D01*
X211153240Y-81120897D01*
X211126509Y-81186669D01*
X211086055Y-81220027D01*
X211073607Y-81226507D01*
X211069474Y-81229610D01*
X211069471Y-81229612D01*
X211045247Y-81247800D01*
X210894965Y-81360635D01*
X210740629Y-81522138D01*
X210737715Y-81526410D01*
X210737714Y-81526411D01*
X210699578Y-81582317D01*
X210614743Y-81706680D01*
X210520688Y-81909305D01*
X210460989Y-82124570D01*
X210437251Y-82346695D01*
X210437548Y-82351848D01*
X210437548Y-82351851D01*
X210443011Y-82446590D01*
X210450110Y-82569715D01*
X210451247Y-82574761D01*
X210451248Y-82574767D01*
X210463968Y-82631206D01*
X210499222Y-82787639D01*
X210583266Y-82994616D01*
X210602063Y-83025290D01*
X210697291Y-83180688D01*
X210699987Y-83185088D01*
X210846250Y-83353938D01*
X211018126Y-83496632D01*
X211088595Y-83537811D01*
X211091445Y-83539476D01*
X211140169Y-83591114D01*
X211153240Y-83660897D01*
X211126509Y-83726669D01*
X211086055Y-83760027D01*
X211073607Y-83766507D01*
X211069474Y-83769610D01*
X211069471Y-83769612D01*
X210926072Y-83877279D01*
X210894965Y-83900635D01*
X210740629Y-84062138D01*
X210737715Y-84066410D01*
X210737714Y-84066411D01*
X210699578Y-84122317D01*
X210614743Y-84246680D01*
X210520688Y-84449305D01*
X210460989Y-84664570D01*
X210437251Y-84886695D01*
X210437548Y-84891848D01*
X210437548Y-84891851D01*
X210443011Y-84986590D01*
X210450110Y-85109715D01*
X210451247Y-85114761D01*
X210451248Y-85114767D01*
X210471119Y-85202939D01*
X210499222Y-85327639D01*
X210583266Y-85534616D01*
X210585965Y-85539020D01*
X210697291Y-85720688D01*
X210699987Y-85725088D01*
X210846250Y-85893938D01*
X211018126Y-86036632D01*
X211088595Y-86077811D01*
X211091445Y-86079476D01*
X211140169Y-86131114D01*
X211153240Y-86200897D01*
X211126509Y-86266669D01*
X211086055Y-86300027D01*
X211073607Y-86306507D01*
X211069474Y-86309610D01*
X211069471Y-86309612D01*
X211045247Y-86327800D01*
X210894965Y-86440635D01*
X210740629Y-86602138D01*
X210737715Y-86606410D01*
X210737714Y-86606411D01*
X210699578Y-86662317D01*
X210614743Y-86786680D01*
X210590046Y-86839885D01*
X210543827Y-86939457D01*
X210520688Y-86989305D01*
X210460989Y-87204570D01*
X210437251Y-87426695D01*
X210437548Y-87431848D01*
X210437548Y-87431851D01*
X210443011Y-87526590D01*
X210450110Y-87649715D01*
X210451247Y-87654761D01*
X210451248Y-87654767D01*
X210471119Y-87742939D01*
X210499222Y-87867639D01*
X210583266Y-88074616D01*
X210585965Y-88079020D01*
X210697291Y-88260688D01*
X210699987Y-88265088D01*
X210846250Y-88433938D01*
X211018126Y-88576632D01*
X211088595Y-88617811D01*
X211091445Y-88619476D01*
X211140169Y-88671114D01*
X211153240Y-88740897D01*
X211126509Y-88806669D01*
X211086055Y-88840027D01*
X211073607Y-88846507D01*
X211069474Y-88849610D01*
X211069471Y-88849612D01*
X211045247Y-88867800D01*
X210894965Y-88980635D01*
X210740629Y-89142138D01*
X210737715Y-89146410D01*
X210737714Y-89146411D01*
X210699578Y-89202317D01*
X210614743Y-89326680D01*
X210520688Y-89529305D01*
X210460989Y-89744570D01*
X210437251Y-89966695D01*
X210437548Y-89971848D01*
X210437548Y-89971851D01*
X210443011Y-90066590D01*
X210450110Y-90189715D01*
X210451247Y-90194761D01*
X210451248Y-90194767D01*
X210472275Y-90288069D01*
X210499222Y-90407639D01*
X210583266Y-90614616D01*
X210585965Y-90619020D01*
X210697291Y-90800688D01*
X210699987Y-90805088D01*
X210846250Y-90973938D01*
X211018126Y-91116632D01*
X211088595Y-91157811D01*
X211091445Y-91159476D01*
X211140169Y-91211114D01*
X211153240Y-91280897D01*
X211126509Y-91346669D01*
X211086055Y-91380027D01*
X211073607Y-91386507D01*
X211069474Y-91389610D01*
X211069471Y-91389612D01*
X211045247Y-91407800D01*
X210894965Y-91520635D01*
X210740629Y-91682138D01*
X210737715Y-91686410D01*
X210737714Y-91686411D01*
X210699578Y-91742317D01*
X210614743Y-91866680D01*
X210599003Y-91900590D01*
X210525716Y-92058474D01*
X210520688Y-92069305D01*
X210460989Y-92284570D01*
X210437251Y-92506695D01*
X210437548Y-92511848D01*
X210437548Y-92511851D01*
X210443011Y-92606590D01*
X210450110Y-92729715D01*
X210451247Y-92734761D01*
X210451248Y-92734767D01*
X210471119Y-92822939D01*
X210499222Y-92947639D01*
X210583266Y-93154616D01*
X210585965Y-93159020D01*
X210697291Y-93340688D01*
X210699987Y-93345088D01*
X210846250Y-93513938D01*
X211018126Y-93656632D01*
X211088595Y-93697811D01*
X211091445Y-93699476D01*
X211140169Y-93751114D01*
X211153240Y-93820897D01*
X211126509Y-93886669D01*
X211086055Y-93920027D01*
X211073607Y-93926507D01*
X211069474Y-93929610D01*
X211069471Y-93929612D01*
X211045247Y-93947800D01*
X210894965Y-94060635D01*
X210740629Y-94222138D01*
X210737715Y-94226410D01*
X210737714Y-94226411D01*
X210699578Y-94282317D01*
X210614743Y-94406680D01*
X210520688Y-94609305D01*
X210460989Y-94824570D01*
X210437251Y-95046695D01*
X210437548Y-95051848D01*
X210437548Y-95051851D01*
X210448139Y-95235532D01*
X210450110Y-95269715D01*
X210451247Y-95274761D01*
X210451248Y-95274767D01*
X210471119Y-95362939D01*
X210499222Y-95487639D01*
X210537083Y-95580880D01*
X210580307Y-95687328D01*
X210583266Y-95694616D01*
X210585965Y-95699020D01*
X210697291Y-95880688D01*
X210699987Y-95885088D01*
X210846250Y-96053938D01*
X211018126Y-96196632D01*
X211088595Y-96237811D01*
X211091445Y-96239476D01*
X211140169Y-96291114D01*
X211153240Y-96360897D01*
X211126509Y-96426669D01*
X211086055Y-96460027D01*
X211081810Y-96462237D01*
X211073607Y-96466507D01*
X211069474Y-96469610D01*
X211069471Y-96469612D01*
X210899100Y-96597530D01*
X210894965Y-96600635D01*
X210740629Y-96762138D01*
X210737715Y-96766410D01*
X210737714Y-96766411D01*
X210699578Y-96822317D01*
X210614743Y-96946680D01*
X210520688Y-97149305D01*
X210460989Y-97364570D01*
X210437251Y-97586695D01*
X210437548Y-97591848D01*
X210437548Y-97591851D01*
X210443011Y-97686590D01*
X210450110Y-97809715D01*
X210451247Y-97814761D01*
X210451248Y-97814767D01*
X210471119Y-97902939D01*
X210499222Y-98027639D01*
X210583266Y-98234616D01*
X210585965Y-98239020D01*
X210697291Y-98420688D01*
X210699987Y-98425088D01*
X210846250Y-98593938D01*
X211018126Y-98736632D01*
X211059038Y-98760539D01*
X211091445Y-98779476D01*
X211140169Y-98831114D01*
X211153240Y-98900897D01*
X211126509Y-98966669D01*
X211086055Y-99000027D01*
X211073607Y-99006507D01*
X211069474Y-99009610D01*
X211069471Y-99009612D01*
X211045247Y-99027800D01*
X210894965Y-99140635D01*
X210740629Y-99302138D01*
X210737715Y-99306410D01*
X210737714Y-99306411D01*
X210699578Y-99362317D01*
X210614743Y-99486680D01*
X210599003Y-99520590D01*
X210547657Y-99631206D01*
X210520688Y-99689305D01*
X210460989Y-99904570D01*
X210437251Y-100126695D01*
X210437548Y-100131848D01*
X210437548Y-100131851D01*
X210445633Y-100272071D01*
X210450110Y-100349715D01*
X210451247Y-100354761D01*
X210451248Y-100354767D01*
X210469780Y-100436996D01*
X210499222Y-100567639D01*
X210583266Y-100774616D01*
X210585965Y-100779020D01*
X210697291Y-100960688D01*
X210699987Y-100965088D01*
X210846250Y-101133938D01*
X211018126Y-101276632D01*
X211042916Y-101291118D01*
X211091445Y-101319476D01*
X211140169Y-101371114D01*
X211153240Y-101440897D01*
X211126509Y-101506669D01*
X211086055Y-101540027D01*
X211073607Y-101546507D01*
X211069474Y-101549610D01*
X211069471Y-101549612D01*
X210992818Y-101607165D01*
X210894965Y-101680635D01*
X210891393Y-101684373D01*
X210748864Y-101833521D01*
X210740629Y-101842138D01*
X210737715Y-101846410D01*
X210737714Y-101846411D01*
X210705849Y-101893124D01*
X210614743Y-102026680D01*
X210520688Y-102229305D01*
X210460989Y-102444570D01*
X210437251Y-102666695D01*
X210437548Y-102671848D01*
X210437548Y-102671851D01*
X210443011Y-102766590D01*
X210450110Y-102889715D01*
X210451247Y-102894761D01*
X210451248Y-102894767D01*
X210471119Y-102982939D01*
X210499222Y-103107639D01*
X210583266Y-103314616D01*
X210585965Y-103319020D01*
X210697291Y-103500688D01*
X210699987Y-103505088D01*
X210846250Y-103673938D01*
X211018126Y-103816632D01*
X211088595Y-103857811D01*
X211091445Y-103859476D01*
X211140169Y-103911114D01*
X211153240Y-103980897D01*
X211126509Y-104046669D01*
X211086055Y-104080027D01*
X211073607Y-104086507D01*
X211069474Y-104089610D01*
X211069471Y-104089612D01*
X210899100Y-104217530D01*
X210894965Y-104220635D01*
X210740629Y-104382138D01*
X210737715Y-104386410D01*
X210737714Y-104386411D01*
X210699578Y-104442317D01*
X210614743Y-104566680D01*
X210520688Y-104769305D01*
X210460989Y-104984570D01*
X210437251Y-105206695D01*
X210437548Y-105211848D01*
X210437548Y-105211851D01*
X210443011Y-105306590D01*
X210450110Y-105429715D01*
X210451247Y-105434761D01*
X210451248Y-105434767D01*
X210471119Y-105522939D01*
X210499222Y-105647639D01*
X210583266Y-105854616D01*
X210585965Y-105859020D01*
X210697291Y-106040688D01*
X210699987Y-106045088D01*
X210846250Y-106213938D01*
X211018126Y-106356632D01*
X211088595Y-106397811D01*
X211091445Y-106399476D01*
X211140169Y-106451114D01*
X211153240Y-106520897D01*
X211126509Y-106586669D01*
X211086055Y-106620027D01*
X211073607Y-106626507D01*
X211069474Y-106629610D01*
X211069471Y-106629612D01*
X211045247Y-106647800D01*
X210894965Y-106760635D01*
X210740629Y-106922138D01*
X210737715Y-106926410D01*
X210737714Y-106926411D01*
X210699578Y-106982317D01*
X210614743Y-107106680D01*
X210520688Y-107309305D01*
X210460989Y-107524570D01*
X210437251Y-107746695D01*
X210437548Y-107751848D01*
X210437548Y-107751851D01*
X210443011Y-107846590D01*
X210450110Y-107969715D01*
X210451247Y-107974761D01*
X210451248Y-107974767D01*
X210471119Y-108062939D01*
X210499222Y-108187639D01*
X210583266Y-108394616D01*
X210585965Y-108399020D01*
X210697291Y-108580688D01*
X210699987Y-108585088D01*
X210846250Y-108753938D01*
X211018126Y-108896632D01*
X211088595Y-108937811D01*
X211091445Y-108939476D01*
X211140169Y-108991114D01*
X211153240Y-109060897D01*
X211126509Y-109126669D01*
X211086055Y-109160027D01*
X211073607Y-109166507D01*
X211069474Y-109169610D01*
X211069471Y-109169612D01*
X210899100Y-109297530D01*
X210894965Y-109300635D01*
X210740629Y-109462138D01*
X210737715Y-109466410D01*
X210737714Y-109466411D01*
X210699578Y-109522317D01*
X210614743Y-109646680D01*
X210613945Y-109648400D01*
X210563589Y-109697088D01*
X210505074Y-109711500D01*
X184624239Y-109711500D01*
X184556118Y-109691498D01*
X184535144Y-109674595D01*
X184145405Y-109284856D01*
X184111379Y-109222544D01*
X184108500Y-109195761D01*
X184108500Y-102504239D01*
X184128502Y-102436118D01*
X184145405Y-102415144D01*
X185415144Y-101145405D01*
X185477456Y-101111379D01*
X185504239Y-101108500D01*
X191169290Y-101108500D01*
X191237411Y-101128502D01*
X191262926Y-101150189D01*
X191288747Y-101178866D01*
X191443248Y-101291118D01*
X191449276Y-101293802D01*
X191449278Y-101293803D01*
X191506941Y-101319476D01*
X191617712Y-101368794D01*
X191711113Y-101388647D01*
X191798056Y-101407128D01*
X191798061Y-101407128D01*
X191804513Y-101408500D01*
X191995487Y-101408500D01*
X192001939Y-101407128D01*
X192001944Y-101407128D01*
X192088888Y-101388647D01*
X192182288Y-101368794D01*
X192293059Y-101319476D01*
X192350722Y-101293803D01*
X192350724Y-101293802D01*
X192356752Y-101291118D01*
X192511253Y-101178866D01*
X192537074Y-101150189D01*
X192634621Y-101041852D01*
X192634622Y-101041851D01*
X192639040Y-101036944D01*
X192734527Y-100871556D01*
X192793542Y-100689928D01*
X192795347Y-100672760D01*
X192812814Y-100506565D01*
X192813504Y-100500000D01*
X192806882Y-100436996D01*
X192794232Y-100316635D01*
X192794232Y-100316633D01*
X192793542Y-100310072D01*
X192734527Y-100128444D01*
X192720282Y-100103770D01*
X192642341Y-99968774D01*
X192639040Y-99963056D01*
X192619798Y-99941685D01*
X192515675Y-99826045D01*
X192515674Y-99826044D01*
X192511253Y-99821134D01*
X192412157Y-99749136D01*
X192362094Y-99712763D01*
X192362093Y-99712762D01*
X192356752Y-99708882D01*
X192350724Y-99706198D01*
X192350722Y-99706197D01*
X192188319Y-99633891D01*
X192188318Y-99633891D01*
X192182288Y-99631206D01*
X192088887Y-99611353D01*
X192001944Y-99592872D01*
X192001939Y-99592872D01*
X191995487Y-99591500D01*
X191804513Y-99591500D01*
X191798061Y-99592872D01*
X191798056Y-99592872D01*
X191711113Y-99611353D01*
X191617712Y-99631206D01*
X191611682Y-99633891D01*
X191611681Y-99633891D01*
X191449278Y-99706197D01*
X191449276Y-99706198D01*
X191443248Y-99708882D01*
X191437907Y-99712762D01*
X191437906Y-99712763D01*
X191310329Y-99805454D01*
X191288747Y-99821134D01*
X191284334Y-99826036D01*
X191284332Y-99826037D01*
X191262926Y-99849811D01*
X191202480Y-99887050D01*
X191169290Y-99891500D01*
X185248136Y-99891500D01*
X185231693Y-99890422D01*
X185200000Y-99886250D01*
X185191811Y-99887328D01*
X185160126Y-99891499D01*
X185160117Y-99891500D01*
X185160115Y-99891500D01*
X185160109Y-99891501D01*
X185160107Y-99891501D01*
X185060838Y-99904570D01*
X185049337Y-99906084D01*
X185049336Y-99906084D01*
X185041149Y-99907162D01*
X184893124Y-99968476D01*
X184886573Y-99973503D01*
X184886571Y-99973504D01*
X184814694Y-100028658D01*
X184797928Y-100041523D01*
X184797925Y-100041526D01*
X184766013Y-100066013D01*
X184760983Y-100072568D01*
X184746548Y-100091379D01*
X184735681Y-100103770D01*
X183103766Y-101735685D01*
X183091375Y-101746552D01*
X183066013Y-101766013D01*
X183041526Y-101797925D01*
X183041523Y-101797928D01*
X183002075Y-101849338D01*
X182984462Y-101872291D01*
X182927124Y-101914158D01*
X182856253Y-101918380D01*
X182794350Y-101883616D01*
X182761069Y-101820903D01*
X182758500Y-101795587D01*
X182758500Y-100724950D01*
X182778502Y-100656829D01*
X182795405Y-100635855D01*
X184635855Y-98795405D01*
X184698167Y-98761379D01*
X184724950Y-98758500D01*
X189217944Y-98758500D01*
X189229800Y-98759059D01*
X189229803Y-98759059D01*
X189237537Y-98760788D01*
X189308369Y-98758562D01*
X189312327Y-98758500D01*
X189341432Y-98758500D01*
X189345832Y-98757944D01*
X189357664Y-98757012D01*
X189403831Y-98755562D01*
X189424421Y-98749580D01*
X189443782Y-98745570D01*
X189450770Y-98744688D01*
X189457204Y-98743875D01*
X189457205Y-98743875D01*
X189465064Y-98742882D01*
X189472429Y-98739966D01*
X189472433Y-98739965D01*
X189508021Y-98725874D01*
X189519231Y-98722035D01*
X189563600Y-98709145D01*
X189582065Y-98698225D01*
X189599805Y-98689534D01*
X189619756Y-98681635D01*
X189657129Y-98654482D01*
X189667048Y-98647967D01*
X189699977Y-98628493D01*
X189699981Y-98628490D01*
X189706807Y-98624453D01*
X189721971Y-98609289D01*
X189737005Y-98596448D01*
X189747943Y-98588501D01*
X189754357Y-98583841D01*
X189783803Y-98548247D01*
X189791792Y-98539468D01*
X191766510Y-96564750D01*
X191828822Y-96530724D01*
X191899637Y-96535789D01*
X191906854Y-96538738D01*
X191918210Y-96543794D01*
X192011610Y-96563647D01*
X192098554Y-96582128D01*
X192098559Y-96582128D01*
X192105011Y-96583500D01*
X192295985Y-96583500D01*
X192302437Y-96582128D01*
X192302442Y-96582128D01*
X192389385Y-96563647D01*
X192482786Y-96543794D01*
X192512142Y-96530724D01*
X192651220Y-96468803D01*
X192651222Y-96468802D01*
X192657250Y-96466118D01*
X192662592Y-96462237D01*
X192756347Y-96394120D01*
X192823215Y-96370261D01*
X192892366Y-96386342D01*
X192941847Y-96437256D01*
X192953928Y-96476999D01*
X192954394Y-96476900D01*
X192955548Y-96482328D01*
X192955718Y-96482888D01*
X192956458Y-96489928D01*
X193015473Y-96671556D01*
X193110960Y-96836944D01*
X193115378Y-96841851D01*
X193115379Y-96841852D01*
X193212926Y-96950189D01*
X193238747Y-96978866D01*
X193393248Y-97091118D01*
X193399276Y-97093802D01*
X193399278Y-97093803D01*
X193535151Y-97154297D01*
X193567712Y-97168794D01*
X193647342Y-97185720D01*
X193748056Y-97207128D01*
X193748061Y-97207128D01*
X193754513Y-97208500D01*
X193945487Y-97208500D01*
X193951939Y-97207128D01*
X193951944Y-97207128D01*
X194052658Y-97185720D01*
X194132288Y-97168794D01*
X194164849Y-97154297D01*
X194300722Y-97093803D01*
X194300724Y-97093802D01*
X194306752Y-97091118D01*
X194461253Y-96978866D01*
X194487074Y-96950189D01*
X194547520Y-96912950D01*
X194580710Y-96908500D01*
X195495761Y-96908500D01*
X195563882Y-96928502D01*
X195584856Y-96945405D01*
X200854595Y-102215144D01*
X200888621Y-102277456D01*
X200891500Y-102304239D01*
X200891500Y-102669710D01*
X200871498Y-102737831D01*
X200859136Y-102754020D01*
X200765379Y-102858148D01*
X200760960Y-102863056D01*
X200742652Y-102894767D01*
X200688784Y-102988069D01*
X200665473Y-103028444D01*
X200606458Y-103210072D01*
X200586496Y-103400000D01*
X200587186Y-103406565D01*
X200597079Y-103500688D01*
X200606458Y-103589928D01*
X200665473Y-103771556D01*
X200668776Y-103777278D01*
X200668777Y-103777279D01*
X200691498Y-103816632D01*
X200760960Y-103936944D01*
X200888747Y-104078866D01*
X201043248Y-104191118D01*
X201049276Y-104193802D01*
X201049278Y-104193803D01*
X201211681Y-104266109D01*
X201217712Y-104268794D01*
X201311112Y-104288647D01*
X201398056Y-104307128D01*
X201398061Y-104307128D01*
X201404513Y-104308500D01*
X201595487Y-104308500D01*
X201601939Y-104307128D01*
X201601944Y-104307128D01*
X201688888Y-104288647D01*
X201782288Y-104268794D01*
X201788319Y-104266109D01*
X201950722Y-104193803D01*
X201950724Y-104193802D01*
X201956752Y-104191118D01*
X202111253Y-104078866D01*
X202239040Y-103936944D01*
X202308502Y-103816632D01*
X202331223Y-103777279D01*
X202331224Y-103777278D01*
X202334527Y-103771556D01*
X202393542Y-103589928D01*
X202402922Y-103500688D01*
X202412814Y-103406565D01*
X202413504Y-103400000D01*
X202393542Y-103210072D01*
X202334527Y-103028444D01*
X202311217Y-102988069D01*
X202257348Y-102894767D01*
X202239040Y-102863056D01*
X202234621Y-102858148D01*
X202140864Y-102754020D01*
X202110146Y-102690013D01*
X202108500Y-102669710D01*
X202108500Y-102048136D01*
X202109578Y-102031690D01*
X202112672Y-102008188D01*
X202113750Y-102000000D01*
X202108500Y-101960122D01*
X202108500Y-101960115D01*
X202103444Y-101921707D01*
X202093916Y-101849338D01*
X202092838Y-101841150D01*
X202031524Y-101693125D01*
X201965562Y-101607162D01*
X201958477Y-101597928D01*
X201958474Y-101597925D01*
X201933987Y-101566013D01*
X201927432Y-101560983D01*
X201908621Y-101546548D01*
X201896230Y-101535681D01*
X196264315Y-95903766D01*
X196253448Y-95891375D01*
X196239013Y-95872563D01*
X196233987Y-95866013D01*
X196202075Y-95841526D01*
X196202072Y-95841523D01*
X196113429Y-95773504D01*
X196113427Y-95773503D01*
X196106876Y-95768476D01*
X195958851Y-95707162D01*
X195950664Y-95706084D01*
X195950663Y-95706084D01*
X195939458Y-95704609D01*
X195908262Y-95700502D01*
X195839885Y-95691500D01*
X195839882Y-95691500D01*
X195839874Y-95691499D01*
X195808189Y-95687328D01*
X195800000Y-95686250D01*
X195768307Y-95690422D01*
X195751864Y-95691500D01*
X194580710Y-95691500D01*
X194512589Y-95671498D01*
X194487074Y-95649811D01*
X194465668Y-95626037D01*
X194465666Y-95626036D01*
X194461253Y-95621134D01*
X194306752Y-95508882D01*
X194300724Y-95506198D01*
X194300722Y-95506197D01*
X194138319Y-95433891D01*
X194138318Y-95433891D01*
X194132288Y-95431206D01*
X194038887Y-95411353D01*
X193951944Y-95392872D01*
X193951939Y-95392872D01*
X193945487Y-95391500D01*
X193754513Y-95391500D01*
X193748061Y-95392872D01*
X193748056Y-95392872D01*
X193661112Y-95411353D01*
X193567712Y-95431206D01*
X193561682Y-95433891D01*
X193561681Y-95433891D01*
X193399278Y-95506197D01*
X193399276Y-95506198D01*
X193393248Y-95508882D01*
X193387907Y-95512762D01*
X193387906Y-95512763D01*
X193294151Y-95580880D01*
X193227283Y-95604739D01*
X193158132Y-95588658D01*
X193108651Y-95537744D01*
X193096570Y-95498001D01*
X193096104Y-95498100D01*
X193094950Y-95492672D01*
X193094780Y-95492112D01*
X193094730Y-95491636D01*
X193094730Y-95491635D01*
X193094040Y-95485072D01*
X193035025Y-95303444D01*
X192939538Y-95138056D01*
X192861434Y-95051312D01*
X192816173Y-95001045D01*
X192816169Y-95001041D01*
X192811751Y-94996134D01*
X192657250Y-94883882D01*
X192651222Y-94881198D01*
X192651220Y-94881197D01*
X192488817Y-94808891D01*
X192488816Y-94808891D01*
X192482786Y-94806206D01*
X192389386Y-94786353D01*
X192302442Y-94767872D01*
X192302437Y-94767872D01*
X192295985Y-94766500D01*
X192105011Y-94766500D01*
X192098559Y-94767872D01*
X192098554Y-94767872D01*
X192011610Y-94786353D01*
X191918210Y-94806206D01*
X191912180Y-94808891D01*
X191912179Y-94808891D01*
X191749776Y-94881197D01*
X191749774Y-94881198D01*
X191743746Y-94883882D01*
X191589245Y-94996134D01*
X191584834Y-95001033D01*
X191584825Y-95001041D01*
X191574907Y-95012057D01*
X191527661Y-95044896D01*
X191516984Y-95049124D01*
X191505769Y-95052965D01*
X191461400Y-95065855D01*
X191442935Y-95076775D01*
X191425195Y-95085466D01*
X191405244Y-95093365D01*
X191367874Y-95120516D01*
X191357952Y-95127033D01*
X191325023Y-95146507D01*
X191325019Y-95146510D01*
X191318193Y-95150547D01*
X191303029Y-95165711D01*
X191287996Y-95178551D01*
X191270643Y-95191159D01*
X191241198Y-95226752D01*
X191233208Y-95235532D01*
X189064145Y-97404595D01*
X189001833Y-97438621D01*
X188975050Y-97441500D01*
X184482056Y-97441500D01*
X184470200Y-97440941D01*
X184470197Y-97440941D01*
X184462463Y-97439212D01*
X184407446Y-97440941D01*
X184391631Y-97441438D01*
X184387673Y-97441500D01*
X184358568Y-97441500D01*
X184354168Y-97442056D01*
X184342336Y-97442988D01*
X184296169Y-97444438D01*
X184275579Y-97450420D01*
X184256218Y-97454430D01*
X184249230Y-97455312D01*
X184242796Y-97456125D01*
X184242795Y-97456125D01*
X184234936Y-97457118D01*
X184227571Y-97460034D01*
X184227567Y-97460035D01*
X184191979Y-97474126D01*
X184180769Y-97477965D01*
X184136400Y-97490855D01*
X184117943Y-97501771D01*
X184100193Y-97510466D01*
X184080244Y-97518365D01*
X184073833Y-97523023D01*
X184073831Y-97523024D01*
X184042864Y-97545523D01*
X184032946Y-97552038D01*
X183993193Y-97575548D01*
X183978032Y-97590709D01*
X183963000Y-97603548D01*
X183945643Y-97616159D01*
X183939682Y-97623365D01*
X183916193Y-97651758D01*
X183908203Y-97660538D01*
X181692395Y-99876345D01*
X181683615Y-99884335D01*
X181683613Y-99884337D01*
X181676920Y-99888584D01*
X181671494Y-99894362D01*
X181671493Y-99894363D01*
X181661908Y-99904570D01*
X181631116Y-99937361D01*
X181628396Y-99940257D01*
X181625641Y-99943099D01*
X181605073Y-99963667D01*
X181602356Y-99967170D01*
X181594648Y-99976195D01*
X181563028Y-100009867D01*
X181559207Y-100016818D01*
X181559206Y-100016819D01*
X181552697Y-100028658D01*
X181541843Y-100045182D01*
X181534018Y-100055271D01*
X181528696Y-100062132D01*
X181525549Y-100069404D01*
X181525548Y-100069406D01*
X181510346Y-100104535D01*
X181505124Y-100115195D01*
X181482876Y-100155663D01*
X181477541Y-100176441D01*
X181471142Y-100195131D01*
X181462620Y-100214824D01*
X181460231Y-100229908D01*
X181455394Y-100260448D01*
X181452987Y-100272071D01*
X181441500Y-100316812D01*
X181441500Y-100338259D01*
X181439949Y-100357969D01*
X181436594Y-100379152D01*
X181437340Y-100387043D01*
X181440941Y-100425138D01*
X181441500Y-100436996D01*
X181441500Y-110217944D01*
X181440941Y-110229800D01*
X181439212Y-110237537D01*
X181439461Y-110245459D01*
X181441438Y-110308369D01*
X181441500Y-110312327D01*
X181441500Y-110341432D01*
X181442056Y-110345832D01*
X181442988Y-110357664D01*
X181444438Y-110403831D01*
X181446650Y-110411444D01*
X181446650Y-110411445D01*
X181450419Y-110424416D01*
X181454430Y-110443782D01*
X181457118Y-110465064D01*
X181460034Y-110472429D01*
X181460035Y-110472433D01*
X181474126Y-110508021D01*
X181477965Y-110519231D01*
X181490855Y-110563600D01*
X181501775Y-110582065D01*
X181510466Y-110599805D01*
X181518365Y-110619756D01*
X181545516Y-110657126D01*
X181552033Y-110667048D01*
X181571507Y-110699977D01*
X181571510Y-110699981D01*
X181575547Y-110706807D01*
X181590711Y-110721971D01*
X181603551Y-110737004D01*
X181616159Y-110754357D01*
X181645315Y-110778477D01*
X181651752Y-110783802D01*
X181660532Y-110791792D01*
X182855145Y-111986405D01*
X182889171Y-112048717D01*
X182884106Y-112119532D01*
X182841559Y-112176368D01*
X182775039Y-112201179D01*
X182766050Y-112201500D01*
X176760632Y-112201500D01*
X176692511Y-112181498D01*
X176654840Y-112143940D01*
X176582822Y-112032617D01*
X176582820Y-112032614D01*
X176580014Y-112028277D01*
X176429670Y-111863051D01*
X176425619Y-111859852D01*
X176425615Y-111859848D01*
X176258414Y-111727800D01*
X176258410Y-111727798D01*
X176254359Y-111724598D01*
X176213053Y-111701796D01*
X176163084Y-111651364D01*
X176148312Y-111581921D01*
X176173428Y-111515516D01*
X176200780Y-111488909D01*
X176244603Y-111457650D01*
X176379860Y-111361173D01*
X176538096Y-111203489D01*
X176585885Y-111136984D01*
X176665435Y-111026277D01*
X176668453Y-111022077D01*
X176712640Y-110932672D01*
X176765136Y-110826453D01*
X176765137Y-110826451D01*
X176767430Y-110821811D01*
X176832370Y-110608069D01*
X176861529Y-110386590D01*
X176862537Y-110345346D01*
X176863074Y-110323365D01*
X176863074Y-110323361D01*
X176863156Y-110320000D01*
X176844852Y-110097361D01*
X176790431Y-109880702D01*
X176701354Y-109675840D01*
X176621116Y-109551811D01*
X176582822Y-109492617D01*
X176582820Y-109492614D01*
X176580014Y-109488277D01*
X176429670Y-109323051D01*
X176425619Y-109319852D01*
X176425615Y-109319848D01*
X176258414Y-109187800D01*
X176258410Y-109187798D01*
X176254359Y-109184598D01*
X176213053Y-109161796D01*
X176163084Y-109111364D01*
X176148312Y-109041921D01*
X176173428Y-108975516D01*
X176200780Y-108948909D01*
X176244603Y-108917650D01*
X176379860Y-108821173D01*
X176538096Y-108663489D01*
X176585885Y-108596984D01*
X176665435Y-108486277D01*
X176668453Y-108482077D01*
X176767430Y-108281811D01*
X176832370Y-108068069D01*
X176861529Y-107846590D01*
X176863156Y-107780000D01*
X176844852Y-107557361D01*
X176790431Y-107340702D01*
X176701354Y-107135840D01*
X176621116Y-107011811D01*
X176582822Y-106952617D01*
X176582820Y-106952614D01*
X176580014Y-106948277D01*
X176429670Y-106783051D01*
X176425619Y-106779852D01*
X176425615Y-106779848D01*
X176258414Y-106647800D01*
X176258410Y-106647798D01*
X176254359Y-106644598D01*
X176213053Y-106621796D01*
X176163084Y-106571364D01*
X176148312Y-106501921D01*
X176173428Y-106435516D01*
X176200780Y-106408909D01*
X176244603Y-106377650D01*
X176379860Y-106281173D01*
X176538096Y-106123489D01*
X176585885Y-106056984D01*
X176665435Y-105946277D01*
X176668453Y-105942077D01*
X176767430Y-105741811D01*
X176832370Y-105528069D01*
X176861529Y-105306590D01*
X176863156Y-105240000D01*
X176844852Y-105017361D01*
X176790431Y-104800702D01*
X176701354Y-104595840D01*
X176621116Y-104471811D01*
X176582822Y-104412617D01*
X176582820Y-104412614D01*
X176580014Y-104408277D01*
X176429670Y-104243051D01*
X176425619Y-104239852D01*
X176425615Y-104239848D01*
X176258414Y-104107800D01*
X176258410Y-104107798D01*
X176254359Y-104104598D01*
X176213053Y-104081796D01*
X176163084Y-104031364D01*
X176148312Y-103961921D01*
X176173428Y-103895516D01*
X176200780Y-103868909D01*
X176244603Y-103837650D01*
X176379860Y-103741173D01*
X176538096Y-103583489D01*
X176585885Y-103516984D01*
X176665435Y-103406277D01*
X176668453Y-103402077D01*
X176767430Y-103201811D01*
X176832370Y-102988069D01*
X176861529Y-102766590D01*
X176862640Y-102721134D01*
X176863074Y-102703365D01*
X176863074Y-102703361D01*
X176863156Y-102700000D01*
X176844852Y-102477361D01*
X176790431Y-102260702D01*
X176701354Y-102055840D01*
X176621116Y-101931811D01*
X176582822Y-101872617D01*
X176582820Y-101872614D01*
X176580014Y-101868277D01*
X176429670Y-101703051D01*
X176425619Y-101699852D01*
X176425615Y-101699848D01*
X176258414Y-101567800D01*
X176258410Y-101567798D01*
X176254359Y-101564598D01*
X176213053Y-101541796D01*
X176163084Y-101491364D01*
X176148312Y-101421921D01*
X176173428Y-101355516D01*
X176200780Y-101328909D01*
X176259202Y-101287237D01*
X176379860Y-101201173D01*
X176398349Y-101182749D01*
X176472857Y-101108500D01*
X176538096Y-101043489D01*
X176585885Y-100976984D01*
X176665435Y-100866277D01*
X176668453Y-100862077D01*
X176756778Y-100683365D01*
X176765136Y-100666453D01*
X176765137Y-100666451D01*
X176767430Y-100661811D01*
X176799900Y-100554940D01*
X176830865Y-100453023D01*
X176830865Y-100453021D01*
X176832370Y-100448069D01*
X176861529Y-100226590D01*
X176861625Y-100222655D01*
X176863074Y-100163365D01*
X176863074Y-100163361D01*
X176863156Y-100160000D01*
X176844852Y-99937361D01*
X176790431Y-99720702D01*
X176701354Y-99515840D01*
X176621116Y-99391811D01*
X176582822Y-99332617D01*
X176582820Y-99332614D01*
X176580014Y-99328277D01*
X176429670Y-99163051D01*
X176425619Y-99159852D01*
X176425615Y-99159848D01*
X176258414Y-99027800D01*
X176258410Y-99027798D01*
X176254359Y-99024598D01*
X176213053Y-99001796D01*
X176163084Y-98951364D01*
X176148312Y-98881921D01*
X176173428Y-98815516D01*
X176200780Y-98788909D01*
X176263915Y-98743875D01*
X176379860Y-98661173D01*
X176386573Y-98654484D01*
X176501991Y-98539468D01*
X176538096Y-98503489D01*
X176585885Y-98436984D01*
X176665435Y-98326277D01*
X176668453Y-98322077D01*
X176767430Y-98121811D01*
X176832370Y-97908069D01*
X176861529Y-97686590D01*
X176863156Y-97620000D01*
X176844852Y-97397361D01*
X176790431Y-97180702D01*
X176701354Y-96975840D01*
X176614673Y-96841852D01*
X176582822Y-96792617D01*
X176582820Y-96792614D01*
X176580014Y-96788277D01*
X176429670Y-96623051D01*
X176425619Y-96619852D01*
X176425615Y-96619848D01*
X176258414Y-96487800D01*
X176258410Y-96487798D01*
X176254359Y-96484598D01*
X176213053Y-96461796D01*
X176163084Y-96411364D01*
X176148312Y-96341921D01*
X176173428Y-96275516D01*
X176200780Y-96248909D01*
X176252603Y-96211944D01*
X176379860Y-96121173D01*
X176538096Y-95963489D01*
X176585885Y-95896984D01*
X176665435Y-95786277D01*
X176668453Y-95782077D01*
X176703917Y-95710322D01*
X176765136Y-95586453D01*
X176765137Y-95586451D01*
X176767430Y-95581811D01*
X176812372Y-95433891D01*
X176830865Y-95373023D01*
X176830865Y-95373021D01*
X176832370Y-95368069D01*
X176861529Y-95146590D01*
X176861738Y-95138056D01*
X176863074Y-95083365D01*
X176863074Y-95083361D01*
X176863156Y-95080000D01*
X176844852Y-94857361D01*
X176790431Y-94640702D01*
X176701354Y-94435840D01*
X176621116Y-94311811D01*
X176582822Y-94252617D01*
X176582820Y-94252614D01*
X176580014Y-94248277D01*
X176429670Y-94083051D01*
X176425619Y-94079852D01*
X176425615Y-94079848D01*
X176258414Y-93947800D01*
X176258410Y-93947798D01*
X176254359Y-93944598D01*
X176213053Y-93921796D01*
X176163084Y-93871364D01*
X176148312Y-93801921D01*
X176173428Y-93735516D01*
X176200780Y-93708909D01*
X176244603Y-93677650D01*
X176379860Y-93581173D01*
X176538096Y-93423489D01*
X176585885Y-93356984D01*
X176665435Y-93246277D01*
X176668453Y-93242077D01*
X176767430Y-93041811D01*
X176832370Y-92828069D01*
X176861529Y-92606590D01*
X176862419Y-92570166D01*
X176863074Y-92543365D01*
X176863074Y-92543361D01*
X176863156Y-92540000D01*
X176844852Y-92317361D01*
X176790431Y-92100702D01*
X176701354Y-91895840D01*
X176621116Y-91771811D01*
X176582822Y-91712617D01*
X176582820Y-91712614D01*
X176580014Y-91708277D01*
X176429670Y-91543051D01*
X176425619Y-91539852D01*
X176425615Y-91539848D01*
X176258414Y-91407800D01*
X176258410Y-91407798D01*
X176254359Y-91404598D01*
X176213053Y-91381796D01*
X176163084Y-91331364D01*
X176148312Y-91261921D01*
X176173428Y-91195516D01*
X176200780Y-91168909D01*
X176244603Y-91137650D01*
X176379860Y-91041173D01*
X176538096Y-90883489D01*
X176551296Y-90865120D01*
X176665435Y-90706277D01*
X176668453Y-90702077D01*
X176673003Y-90692872D01*
X176765136Y-90506453D01*
X176765137Y-90506451D01*
X176767430Y-90501811D01*
X176832370Y-90288069D01*
X176861529Y-90066590D01*
X176863156Y-90000000D01*
X176844852Y-89777361D01*
X176790431Y-89560702D01*
X176701354Y-89355840D01*
X176621116Y-89231811D01*
X176582822Y-89172617D01*
X176582820Y-89172614D01*
X176580014Y-89168277D01*
X176429670Y-89003051D01*
X176425619Y-88999852D01*
X176425615Y-88999848D01*
X176258414Y-88867800D01*
X176258410Y-88867798D01*
X176254359Y-88864598D01*
X176213053Y-88841796D01*
X176163084Y-88791364D01*
X176148312Y-88721921D01*
X176173428Y-88655516D01*
X176200780Y-88628909D01*
X176244603Y-88597650D01*
X176379860Y-88501173D01*
X176538096Y-88343489D01*
X176585885Y-88276984D01*
X176665435Y-88166277D01*
X176668453Y-88162077D01*
X176767430Y-87961811D01*
X176832370Y-87748069D01*
X176861529Y-87526590D01*
X176863156Y-87460000D01*
X176844852Y-87237361D01*
X176790431Y-87020702D01*
X176701354Y-86815840D01*
X176621116Y-86691811D01*
X176582822Y-86632617D01*
X176582820Y-86632614D01*
X176580014Y-86628277D01*
X176429670Y-86463051D01*
X176425619Y-86459852D01*
X176425615Y-86459848D01*
X176258414Y-86327800D01*
X176258410Y-86327798D01*
X176254359Y-86324598D01*
X176213053Y-86301796D01*
X176163084Y-86251364D01*
X176148312Y-86181921D01*
X176173428Y-86115516D01*
X176200780Y-86088909D01*
X176244603Y-86057650D01*
X176379860Y-85961173D01*
X176538096Y-85803489D01*
X176585885Y-85736984D01*
X176665435Y-85626277D01*
X176668453Y-85622077D01*
X176767430Y-85421811D01*
X176832370Y-85208069D01*
X176861529Y-84986590D01*
X176863156Y-84920000D01*
X176844852Y-84697361D01*
X176790431Y-84480702D01*
X176701354Y-84275840D01*
X176617344Y-84145980D01*
X176582822Y-84092617D01*
X176582820Y-84092614D01*
X176580014Y-84088277D01*
X176429670Y-83923051D01*
X176425619Y-83919852D01*
X176425615Y-83919848D01*
X176258414Y-83787800D01*
X176258410Y-83787798D01*
X176254359Y-83784598D01*
X176213053Y-83761796D01*
X176163084Y-83711364D01*
X176148312Y-83641921D01*
X176173428Y-83575516D01*
X176200780Y-83548909D01*
X176269348Y-83500000D01*
X176379860Y-83421173D01*
X176538096Y-83263489D01*
X176585885Y-83196984D01*
X176665435Y-83086277D01*
X176668453Y-83082077D01*
X176720946Y-82975866D01*
X176765136Y-82886453D01*
X176765137Y-82886451D01*
X176767430Y-82881811D01*
X176832370Y-82668069D01*
X176861529Y-82446590D01*
X176863156Y-82380000D01*
X176844852Y-82157361D01*
X176790431Y-81940702D01*
X176701354Y-81735840D01*
X176621116Y-81611811D01*
X176582822Y-81552617D01*
X176582820Y-81552614D01*
X176580014Y-81548277D01*
X176429670Y-81383051D01*
X176425619Y-81379852D01*
X176425615Y-81379848D01*
X176258414Y-81247800D01*
X176258410Y-81247798D01*
X176254359Y-81244598D01*
X176213053Y-81221796D01*
X176163084Y-81171364D01*
X176148312Y-81101921D01*
X176173428Y-81035516D01*
X176200780Y-81008909D01*
X176244603Y-80977650D01*
X176379860Y-80881173D01*
X176538096Y-80723489D01*
X176585885Y-80656984D01*
X176665435Y-80546277D01*
X176668453Y-80542077D01*
X176767430Y-80341811D01*
X176832370Y-80128069D01*
X176861529Y-79906590D01*
X176863156Y-79840000D01*
X176844852Y-79617361D01*
X176790431Y-79400702D01*
X176701354Y-79195840D01*
X176621116Y-79071811D01*
X176582822Y-79012617D01*
X176582820Y-79012614D01*
X176580014Y-79008277D01*
X176429670Y-78843051D01*
X176425619Y-78839852D01*
X176425615Y-78839848D01*
X176258414Y-78707800D01*
X176258410Y-78707798D01*
X176254359Y-78704598D01*
X176213053Y-78681796D01*
X176163084Y-78631364D01*
X176148312Y-78561921D01*
X176173428Y-78495516D01*
X176200780Y-78468909D01*
X176244603Y-78437650D01*
X176379860Y-78341173D01*
X176538096Y-78183489D01*
X176585885Y-78116984D01*
X176665435Y-78006277D01*
X176668453Y-78002077D01*
X176767430Y-77801811D01*
X176832370Y-77588069D01*
X176861529Y-77366590D01*
X176863156Y-77300000D01*
X176844852Y-77077361D01*
X176790431Y-76860702D01*
X176701354Y-76655840D01*
X176621116Y-76531811D01*
X176582822Y-76472617D01*
X176582820Y-76472614D01*
X176580014Y-76468277D01*
X176429670Y-76303051D01*
X176425619Y-76299852D01*
X176425615Y-76299848D01*
X176258414Y-76167800D01*
X176258410Y-76167798D01*
X176254359Y-76164598D01*
X176213053Y-76141796D01*
X176163084Y-76091364D01*
X176148312Y-76021921D01*
X176173428Y-75955516D01*
X176200780Y-75928909D01*
X176244603Y-75897650D01*
X176379860Y-75801173D01*
X176538096Y-75643489D01*
X176585885Y-75576984D01*
X176665435Y-75466277D01*
X176668453Y-75462077D01*
X176767430Y-75261811D01*
X176832370Y-75048069D01*
X176861529Y-74826590D01*
X176863156Y-74760000D01*
X176844852Y-74537361D01*
X176790431Y-74320702D01*
X176701354Y-74115840D01*
X176657334Y-74047796D01*
X176582822Y-73932617D01*
X176582820Y-73932614D01*
X176580014Y-73928277D01*
X176429670Y-73763051D01*
X176425619Y-73759852D01*
X176425615Y-73759848D01*
X176258414Y-73627800D01*
X176258410Y-73627798D01*
X176254359Y-73624598D01*
X176213053Y-73601796D01*
X176163084Y-73551364D01*
X176148312Y-73481921D01*
X176173428Y-73415516D01*
X176200780Y-73388909D01*
X176244603Y-73357650D01*
X176379860Y-73261173D01*
X176427855Y-73213346D01*
X176529510Y-73112045D01*
X176538096Y-73103489D01*
X176549447Y-73087693D01*
X176605442Y-73044046D01*
X176676145Y-73037600D01*
X176740864Y-73072124D01*
X177276345Y-73607604D01*
X177284335Y-73616385D01*
X177288584Y-73623080D01*
X177294362Y-73628506D01*
X177294363Y-73628507D01*
X177340273Y-73671619D01*
X177343115Y-73674374D01*
X177363667Y-73694926D01*
X177366801Y-73697357D01*
X177367163Y-73697638D01*
X177376191Y-73705348D01*
X177409867Y-73736972D01*
X177416818Y-73740793D01*
X177416819Y-73740794D01*
X177428655Y-73747301D01*
X177445183Y-73758157D01*
X177448219Y-73760513D01*
X177455869Y-73766447D01*
X177455871Y-73766448D01*
X177462131Y-73771304D01*
X177504544Y-73789657D01*
X177515181Y-73794868D01*
X177555663Y-73817124D01*
X177563342Y-73819096D01*
X177563343Y-73819096D01*
X177576434Y-73822457D01*
X177595136Y-73828859D01*
X177614823Y-73837379D01*
X177622652Y-73838619D01*
X177660448Y-73844605D01*
X177672074Y-73847013D01*
X177709135Y-73856529D01*
X177709136Y-73856529D01*
X177716812Y-73858500D01*
X177738258Y-73858500D01*
X177757968Y-73860051D01*
X177779151Y-73863406D01*
X177825135Y-73859059D01*
X177836994Y-73858500D01*
X183617944Y-73858500D01*
X183629800Y-73859059D01*
X183629803Y-73859059D01*
X183637537Y-73860788D01*
X183708369Y-73858562D01*
X183712327Y-73858500D01*
X183741432Y-73858500D01*
X183745832Y-73857944D01*
X183757664Y-73857012D01*
X183803831Y-73855562D01*
X183824421Y-73849580D01*
X183843782Y-73845570D01*
X183851424Y-73844605D01*
X183857204Y-73843875D01*
X183857205Y-73843875D01*
X183865064Y-73842882D01*
X183872429Y-73839966D01*
X183872433Y-73839965D01*
X183908021Y-73825874D01*
X183919231Y-73822035D01*
X183963600Y-73809145D01*
X183982065Y-73798225D01*
X183999805Y-73789534D01*
X184019756Y-73781635D01*
X184057129Y-73754482D01*
X184067048Y-73747967D01*
X184099977Y-73728493D01*
X184099981Y-73728490D01*
X184106807Y-73724453D01*
X184121971Y-73709289D01*
X184137005Y-73696448D01*
X184147943Y-73688501D01*
X184154357Y-73683841D01*
X184183803Y-73648247D01*
X184191792Y-73639468D01*
X184535855Y-73295405D01*
X184598167Y-73261379D01*
X184624950Y-73258500D01*
X187219776Y-73258500D01*
X187287897Y-73278502D01*
X187293834Y-73282562D01*
X187443248Y-73391118D01*
X187449276Y-73393802D01*
X187449278Y-73393803D01*
X187611681Y-73466109D01*
X187617712Y-73468794D01*
X187711112Y-73488647D01*
X187798056Y-73507128D01*
X187798061Y-73507128D01*
X187804513Y-73508500D01*
X187825050Y-73508500D01*
X187893171Y-73528502D01*
X187914145Y-73545405D01*
X188809595Y-74440855D01*
X188843621Y-74503167D01*
X188846500Y-74529950D01*
X188846500Y-81620241D01*
X188826498Y-81688362D01*
X188814136Y-81704551D01*
X188765960Y-81758056D01*
X188670473Y-81923444D01*
X188611458Y-82105072D01*
X188591496Y-82295000D01*
X188592186Y-82301565D01*
X188607429Y-82446590D01*
X188611458Y-82484928D01*
X188670473Y-82666556D01*
X188765960Y-82831944D01*
X188770378Y-82836851D01*
X188770379Y-82836852D01*
X188864136Y-82940980D01*
X188894854Y-83004987D01*
X188896500Y-83025290D01*
X188896500Y-90856864D01*
X188895422Y-90873307D01*
X188891250Y-90905000D01*
X188892328Y-90913189D01*
X188896500Y-90944880D01*
X188896500Y-90944885D01*
X188906692Y-91022301D01*
X188910314Y-91049810D01*
X188912162Y-91063851D01*
X188973476Y-91211876D01*
X188978503Y-91218427D01*
X188978504Y-91218429D01*
X189046520Y-91307069D01*
X189046526Y-91307075D01*
X189071013Y-91338987D01*
X189077568Y-91344017D01*
X189096379Y-91358452D01*
X189108770Y-91369319D01*
X189835685Y-92096234D01*
X189846552Y-92108625D01*
X189866013Y-92133987D01*
X189872563Y-92139013D01*
X189897921Y-92158471D01*
X189897937Y-92158485D01*
X189946035Y-92195391D01*
X189993124Y-92231524D01*
X190141149Y-92292838D01*
X190149336Y-92293916D01*
X190149337Y-92293916D01*
X190160542Y-92295391D01*
X190191738Y-92299498D01*
X190260115Y-92308500D01*
X190260118Y-92308500D01*
X190260126Y-92308501D01*
X190291811Y-92312672D01*
X190300000Y-92313750D01*
X190331693Y-92309578D01*
X190348136Y-92308500D01*
X191769290Y-92308500D01*
X191837411Y-92328502D01*
X191862926Y-92350189D01*
X191888747Y-92378866D01*
X192043248Y-92491118D01*
X192049276Y-92493802D01*
X192049278Y-92493803D01*
X192089815Y-92511851D01*
X192217712Y-92568794D01*
X192311112Y-92588647D01*
X192398056Y-92607128D01*
X192398061Y-92607128D01*
X192404513Y-92608500D01*
X192595487Y-92608500D01*
X192601939Y-92607128D01*
X192601944Y-92607128D01*
X192688888Y-92588647D01*
X192782288Y-92568794D01*
X192910185Y-92511851D01*
X192950722Y-92493803D01*
X192950724Y-92493802D01*
X192956752Y-92491118D01*
X193111253Y-92378866D01*
X193137074Y-92350189D01*
X193197520Y-92312950D01*
X193230710Y-92308500D01*
X194388595Y-92308500D01*
X194456716Y-92328502D01*
X194462656Y-92332564D01*
X194531724Y-92382745D01*
X194543248Y-92391118D01*
X194549276Y-92393802D01*
X194549278Y-92393803D01*
X194711681Y-92466109D01*
X194717712Y-92468794D01*
X194804479Y-92487237D01*
X194898056Y-92507128D01*
X194898061Y-92507128D01*
X194904513Y-92508500D01*
X195095487Y-92508500D01*
X195101939Y-92507128D01*
X195101944Y-92507128D01*
X195195521Y-92487237D01*
X195282288Y-92468794D01*
X195288319Y-92466109D01*
X195450722Y-92393803D01*
X195450724Y-92393802D01*
X195456752Y-92391118D01*
X195468277Y-92382745D01*
X195605914Y-92282745D01*
X195611253Y-92278866D01*
X195637074Y-92250189D01*
X195697520Y-92212950D01*
X195730710Y-92208500D01*
X196851864Y-92208500D01*
X196868307Y-92209578D01*
X196900000Y-92213750D01*
X196908189Y-92212672D01*
X196939874Y-92208501D01*
X196939884Y-92208500D01*
X196939885Y-92208500D01*
X197039457Y-92195391D01*
X197050664Y-92193916D01*
X197050666Y-92193915D01*
X197058851Y-92192838D01*
X197206876Y-92131524D01*
X197236719Y-92108625D01*
X197302072Y-92058477D01*
X197302075Y-92058474D01*
X197327437Y-92039013D01*
X197333987Y-92033987D01*
X197353458Y-92008613D01*
X197364316Y-91996233D01*
X197752644Y-91607905D01*
X197814956Y-91573879D01*
X197841739Y-91571000D01*
X197932987Y-91571000D01*
X197939439Y-91569628D01*
X197939444Y-91569628D01*
X198046509Y-91546870D01*
X198119788Y-91531294D01*
X198150703Y-91517530D01*
X198288222Y-91456303D01*
X198288224Y-91456302D01*
X198294252Y-91453618D01*
X198448753Y-91341366D01*
X198453175Y-91336455D01*
X198572121Y-91204352D01*
X198572122Y-91204351D01*
X198576540Y-91199444D01*
X198662931Y-91049811D01*
X198668723Y-91039779D01*
X198668724Y-91039778D01*
X198672027Y-91034056D01*
X198731042Y-90852428D01*
X198733273Y-90831206D01*
X198750314Y-90669065D01*
X198751004Y-90662500D01*
X198750816Y-90660714D01*
X198770316Y-90594304D01*
X198787219Y-90573330D01*
X202096234Y-87264315D01*
X202108625Y-87253448D01*
X202127437Y-87239013D01*
X202133987Y-87233987D01*
X202158474Y-87202075D01*
X202158478Y-87202071D01*
X202231524Y-87106876D01*
X202292838Y-86958851D01*
X202295391Y-86939457D01*
X202308500Y-86839885D01*
X202308500Y-86839880D01*
X202313750Y-86800000D01*
X202309578Y-86768307D01*
X202308500Y-86751864D01*
X202308500Y-84230290D01*
X202328502Y-84162169D01*
X202340864Y-84145980D01*
X202434621Y-84041852D01*
X202434622Y-84041851D01*
X202439040Y-84036944D01*
X202534527Y-83871556D01*
X202593542Y-83689928D01*
X202597826Y-83649174D01*
X202612814Y-83506565D01*
X202613504Y-83500000D01*
X202604836Y-83417529D01*
X202594232Y-83316635D01*
X202594232Y-83316633D01*
X202593542Y-83310072D01*
X202534527Y-83128444D01*
X202439040Y-82963056D01*
X202433740Y-82957169D01*
X202315675Y-82826045D01*
X202315674Y-82826044D01*
X202311253Y-82821134D01*
X202156752Y-82708882D01*
X202150724Y-82706198D01*
X202150722Y-82706197D01*
X201988319Y-82633891D01*
X201988318Y-82633891D01*
X201982288Y-82631206D01*
X201888887Y-82611353D01*
X201801944Y-82592872D01*
X201801939Y-82592872D01*
X201795487Y-82591500D01*
X201604513Y-82591500D01*
X201598061Y-82592872D01*
X201598056Y-82592872D01*
X201511113Y-82611353D01*
X201417712Y-82631206D01*
X201411682Y-82633891D01*
X201411681Y-82633891D01*
X201249278Y-82706197D01*
X201249276Y-82706198D01*
X201243248Y-82708882D01*
X201088747Y-82821134D01*
X201084326Y-82826044D01*
X201084325Y-82826045D01*
X200966261Y-82957169D01*
X200960960Y-82963056D01*
X200865473Y-83128444D01*
X200806458Y-83310072D01*
X200805768Y-83316633D01*
X200805768Y-83316635D01*
X200795164Y-83417529D01*
X200786496Y-83500000D01*
X200787186Y-83506565D01*
X200802175Y-83649174D01*
X200806458Y-83689928D01*
X200865473Y-83871556D01*
X200960960Y-84036944D01*
X200965378Y-84041851D01*
X200965379Y-84041852D01*
X201059136Y-84145980D01*
X201089854Y-84209987D01*
X201091500Y-84230290D01*
X201091500Y-86495761D01*
X201071498Y-86563882D01*
X201054595Y-86584856D01*
X197922356Y-89717095D01*
X197860044Y-89751121D01*
X197833261Y-89754000D01*
X197742013Y-89754000D01*
X197735561Y-89755372D01*
X197735556Y-89755372D01*
X197655721Y-89772342D01*
X197555212Y-89793706D01*
X197549182Y-89796391D01*
X197549181Y-89796391D01*
X197386778Y-89868697D01*
X197386776Y-89868698D01*
X197380748Y-89871382D01*
X197226247Y-89983634D01*
X197221826Y-89988544D01*
X197221825Y-89988545D01*
X197148566Y-90069908D01*
X197098460Y-90125556D01*
X197002973Y-90290944D01*
X196943958Y-90472572D01*
X196943268Y-90479133D01*
X196943268Y-90479135D01*
X196940885Y-90501811D01*
X196923996Y-90662500D01*
X196924184Y-90664286D01*
X196904684Y-90730696D01*
X196887781Y-90751670D01*
X196684856Y-90954595D01*
X196622544Y-90988621D01*
X196595761Y-90991500D01*
X195730710Y-90991500D01*
X195662589Y-90971498D01*
X195637074Y-90949811D01*
X195615668Y-90926037D01*
X195615666Y-90926036D01*
X195611253Y-90921134D01*
X195485590Y-90829834D01*
X195462094Y-90812763D01*
X195462093Y-90812762D01*
X195456752Y-90808882D01*
X195450724Y-90806198D01*
X195450722Y-90806197D01*
X195288319Y-90733891D01*
X195288318Y-90733891D01*
X195282288Y-90731206D01*
X195188887Y-90711353D01*
X195101944Y-90692872D01*
X195101939Y-90692872D01*
X195095487Y-90691500D01*
X194904513Y-90691500D01*
X194898061Y-90692872D01*
X194898056Y-90692872D01*
X194811113Y-90711353D01*
X194717712Y-90731206D01*
X194711682Y-90733891D01*
X194711681Y-90733891D01*
X194549278Y-90806197D01*
X194549276Y-90806198D01*
X194543248Y-90808882D01*
X194537907Y-90812762D01*
X194537906Y-90812763D01*
X194514410Y-90829834D01*
X194388747Y-90921134D01*
X194384326Y-90926044D01*
X194384325Y-90926045D01*
X194362926Y-90949811D01*
X194302200Y-91017255D01*
X194272887Y-91049810D01*
X194212441Y-91087050D01*
X194179251Y-91091500D01*
X193230710Y-91091500D01*
X193162589Y-91071498D01*
X193137074Y-91049811D01*
X193115668Y-91026037D01*
X193115666Y-91026036D01*
X193111253Y-91021134D01*
X193089671Y-91005454D01*
X192962094Y-90912763D01*
X192962093Y-90912762D01*
X192956752Y-90908882D01*
X192950724Y-90906198D01*
X192950722Y-90906197D01*
X192788319Y-90833891D01*
X192788318Y-90833891D01*
X192782288Y-90831206D01*
X192677771Y-90808990D01*
X192601944Y-90792872D01*
X192601939Y-90792872D01*
X192595487Y-90791500D01*
X192404513Y-90791500D01*
X192398061Y-90792872D01*
X192398056Y-90792872D01*
X192322229Y-90808990D01*
X192217712Y-90831206D01*
X192211682Y-90833891D01*
X192211681Y-90833891D01*
X192049278Y-90906197D01*
X192049276Y-90906198D01*
X192043248Y-90908882D01*
X192037907Y-90912762D01*
X192037906Y-90912763D01*
X191910329Y-91005454D01*
X191888747Y-91021134D01*
X191884334Y-91026036D01*
X191884332Y-91026037D01*
X191862926Y-91049811D01*
X191802480Y-91087050D01*
X191769290Y-91091500D01*
X190604239Y-91091500D01*
X190536118Y-91071498D01*
X190515144Y-91054595D01*
X190150405Y-90689856D01*
X190116379Y-90627544D01*
X190113500Y-90600761D01*
X190113500Y-83025290D01*
X190133502Y-82957169D01*
X190145864Y-82940980D01*
X190239621Y-82836852D01*
X190239622Y-82836851D01*
X190244040Y-82831944D01*
X190339527Y-82666556D01*
X190398542Y-82484928D01*
X190402572Y-82446590D01*
X190417814Y-82301565D01*
X190418504Y-82295000D01*
X190398542Y-82105072D01*
X190339527Y-81923444D01*
X190244040Y-81758056D01*
X190195864Y-81704551D01*
X190165146Y-81640544D01*
X190163500Y-81620241D01*
X190163500Y-74287059D01*
X190164059Y-74275203D01*
X190165789Y-74267463D01*
X190163562Y-74196611D01*
X190163500Y-74192653D01*
X190163500Y-74163568D01*
X190162946Y-74159179D01*
X190162013Y-74147337D01*
X190161173Y-74120590D01*
X190160562Y-74101169D01*
X190154580Y-74080579D01*
X190150570Y-74061216D01*
X190148875Y-74047796D01*
X190148875Y-74047795D01*
X190147882Y-74039936D01*
X190144966Y-74032571D01*
X190144965Y-74032567D01*
X190130874Y-73996979D01*
X190127035Y-73985769D01*
X190114145Y-73941400D01*
X190103225Y-73922935D01*
X190094534Y-73905195D01*
X190086635Y-73885244D01*
X190059482Y-73847871D01*
X190052967Y-73837952D01*
X190033493Y-73805023D01*
X190033490Y-73805019D01*
X190029453Y-73798193D01*
X190014289Y-73783029D01*
X190001448Y-73767995D01*
X189993501Y-73757057D01*
X189988841Y-73750643D01*
X189953247Y-73721197D01*
X189944468Y-73713208D01*
X188842970Y-72611710D01*
X188808944Y-72549398D01*
X188806755Y-72535786D01*
X188794232Y-72416636D01*
X188794232Y-72416635D01*
X188793542Y-72410072D01*
X188787832Y-72392497D01*
X188759766Y-72306120D01*
X188734527Y-72228444D01*
X188733169Y-72226092D01*
X189622000Y-72226092D01*
X189622266Y-72231881D01*
X189635984Y-72381176D01*
X189638082Y-72392497D01*
X189692713Y-72586203D01*
X189696837Y-72596950D01*
X189785859Y-72777466D01*
X189791869Y-72787273D01*
X189912299Y-72948549D01*
X189919989Y-72957089D01*
X190067794Y-73093720D01*
X190076919Y-73100721D01*
X190247144Y-73208125D01*
X190257391Y-73213346D01*
X190444332Y-73287928D01*
X190455369Y-73291197D01*
X190508230Y-73301712D01*
X190521106Y-73300560D01*
X190525067Y-73288294D01*
X191034000Y-73288294D01*
X191037806Y-73301256D01*
X191052722Y-73303192D01*
X191075300Y-73299313D01*
X191086417Y-73296334D01*
X191275252Y-73226669D01*
X191285630Y-73221719D01*
X191458606Y-73118809D01*
X191467915Y-73112045D01*
X191619243Y-72979335D01*
X191627153Y-72971000D01*
X191751764Y-72812931D01*
X191758032Y-72803280D01*
X191851743Y-72625164D01*
X191856152Y-72614521D01*
X191915833Y-72422316D01*
X191918227Y-72411054D01*
X191937563Y-72247678D01*
X191938000Y-72240272D01*
X191938000Y-71884500D01*
X191958002Y-71816379D01*
X192011658Y-71769886D01*
X192064000Y-71758500D01*
X192270610Y-71758500D01*
X192405255Y-71743397D01*
X192440263Y-71731206D01*
X192569894Y-71686064D01*
X192569897Y-71686062D01*
X192576552Y-71683745D01*
X192584522Y-71678765D01*
X192724402Y-71591359D01*
X192730376Y-71587626D01*
X192760874Y-71557340D01*
X192854085Y-71464778D01*
X192854088Y-71464774D01*
X192859082Y-71459815D01*
X192864162Y-71451811D01*
X192918358Y-71366411D01*
X192956273Y-71306666D01*
X192984687Y-71226870D01*
X193014757Y-71142425D01*
X193014758Y-71142420D01*
X193017119Y-71135790D01*
X193023224Y-71084598D01*
X193032632Y-71005698D01*
X193038596Y-70955680D01*
X193037402Y-70944320D01*
X197286404Y-70944320D01*
X197287140Y-70951323D01*
X197287140Y-70951324D01*
X197299276Y-71066784D01*
X197305364Y-71124712D01*
X197363818Y-71296421D01*
X197367512Y-71302425D01*
X197454484Y-71443795D01*
X197458862Y-71450912D01*
X197463793Y-71455947D01*
X197463795Y-71455950D01*
X197567158Y-71561500D01*
X197585771Y-71580507D01*
X197738238Y-71678765D01*
X197744858Y-71681174D01*
X197744861Y-71681176D01*
X197902066Y-71738394D01*
X197908685Y-71740803D01*
X198048769Y-71758500D01*
X198136000Y-71758500D01*
X198204121Y-71778502D01*
X198250614Y-71832158D01*
X198262000Y-71884500D01*
X198262000Y-72226092D01*
X198262266Y-72231881D01*
X198275984Y-72381176D01*
X198278082Y-72392497D01*
X198332713Y-72586203D01*
X198336837Y-72596950D01*
X198425859Y-72777466D01*
X198431869Y-72787273D01*
X198552299Y-72948549D01*
X198559989Y-72957089D01*
X198707794Y-73093720D01*
X198716919Y-73100721D01*
X198887144Y-73208125D01*
X198897391Y-73213346D01*
X199084332Y-73287928D01*
X199095369Y-73291197D01*
X199148230Y-73301712D01*
X199161106Y-73300560D01*
X199165067Y-73288294D01*
X199674000Y-73288294D01*
X199677806Y-73301256D01*
X199692722Y-73303192D01*
X199715300Y-73299313D01*
X199726417Y-73296334D01*
X199915252Y-73226669D01*
X199925630Y-73221719D01*
X200098606Y-73118809D01*
X200107915Y-73112045D01*
X200259243Y-72979335D01*
X200267153Y-72971000D01*
X200391764Y-72812931D01*
X200398032Y-72803280D01*
X200491743Y-72625164D01*
X200496152Y-72614521D01*
X200555833Y-72422316D01*
X200558227Y-72411054D01*
X200577563Y-72247678D01*
X200578000Y-72240272D01*
X200578000Y-71947115D01*
X200573525Y-71931876D01*
X200572135Y-71930671D01*
X200564452Y-71929000D01*
X199692115Y-71929000D01*
X199676876Y-71933475D01*
X199675671Y-71934865D01*
X199674000Y-71942548D01*
X199674000Y-73288294D01*
X199165067Y-73288294D01*
X199166000Y-73285404D01*
X199166000Y-71402885D01*
X199674000Y-71402885D01*
X199678475Y-71418124D01*
X199679865Y-71419329D01*
X199687548Y-71421000D01*
X200559885Y-71421000D01*
X200575124Y-71416525D01*
X200576329Y-71415135D01*
X200578000Y-71407452D01*
X200578000Y-71123908D01*
X200577734Y-71118119D01*
X200564016Y-70968824D01*
X200561918Y-70957503D01*
X200507287Y-70763797D01*
X200503163Y-70753050D01*
X200414141Y-70572534D01*
X200408131Y-70562727D01*
X200287701Y-70401451D01*
X200280011Y-70392911D01*
X200132206Y-70256280D01*
X200123081Y-70249279D01*
X199952856Y-70141875D01*
X199942609Y-70136654D01*
X199755668Y-70062072D01*
X199744631Y-70058803D01*
X199691770Y-70048288D01*
X199678894Y-70049440D01*
X199674000Y-70064596D01*
X199674000Y-71402885D01*
X199166000Y-71402885D01*
X199166000Y-70061706D01*
X199162194Y-70048744D01*
X199147278Y-70046808D01*
X199124700Y-70050687D01*
X199113583Y-70053666D01*
X198924748Y-70123331D01*
X198914370Y-70128281D01*
X198741394Y-70231191D01*
X198732091Y-70237950D01*
X198700019Y-70266076D01*
X198635614Y-70295952D01*
X198565281Y-70286265D01*
X198548695Y-70277259D01*
X198461762Y-70221235D01*
X198455142Y-70218826D01*
X198455139Y-70218824D01*
X198297934Y-70161606D01*
X198297933Y-70161606D01*
X198291315Y-70159197D01*
X198151231Y-70141500D01*
X198054390Y-70141500D01*
X197919745Y-70156603D01*
X197913092Y-70158920D01*
X197913091Y-70158920D01*
X197755106Y-70213936D01*
X197755103Y-70213938D01*
X197748448Y-70216255D01*
X197742469Y-70219991D01*
X197631066Y-70289603D01*
X197594624Y-70312374D01*
X197589628Y-70317335D01*
X197589627Y-70317336D01*
X197470915Y-70435222D01*
X197470912Y-70435226D01*
X197465918Y-70440185D01*
X197368727Y-70593334D01*
X197366362Y-70599976D01*
X197310243Y-70757575D01*
X197310242Y-70757580D01*
X197307881Y-70764210D01*
X197307048Y-70771198D01*
X197307047Y-70771201D01*
X197294640Y-70875248D01*
X197286404Y-70944320D01*
X193037402Y-70944320D01*
X193036667Y-70937327D01*
X193020372Y-70782288D01*
X193020371Y-70782286D01*
X193019636Y-70775288D01*
X192961182Y-70603579D01*
X192907730Y-70516695D01*
X192869834Y-70455095D01*
X192869832Y-70455092D01*
X192866138Y-70449088D01*
X192861207Y-70444053D01*
X192861205Y-70444050D01*
X192744157Y-70324525D01*
X192744156Y-70324524D01*
X192739229Y-70319493D01*
X192586762Y-70221235D01*
X192580142Y-70218826D01*
X192580139Y-70218824D01*
X192422934Y-70161606D01*
X192422933Y-70161606D01*
X192416315Y-70159197D01*
X192276231Y-70141500D01*
X191929390Y-70141500D01*
X191794745Y-70156603D01*
X191788092Y-70158920D01*
X191788091Y-70158920D01*
X191630106Y-70213936D01*
X191630103Y-70213938D01*
X191623448Y-70216255D01*
X191593720Y-70234831D01*
X191525354Y-70253966D01*
X191459718Y-70234538D01*
X191312856Y-70141875D01*
X191302609Y-70136654D01*
X191115668Y-70062072D01*
X191104631Y-70058803D01*
X191051770Y-70048288D01*
X191038894Y-70049440D01*
X191034000Y-70064596D01*
X191034000Y-73288294D01*
X190525067Y-73288294D01*
X190526000Y-73285404D01*
X190526000Y-71947115D01*
X190521525Y-71931876D01*
X190520135Y-71930671D01*
X190512452Y-71929000D01*
X189640115Y-71929000D01*
X189624876Y-71933475D01*
X189623671Y-71934865D01*
X189622000Y-71942548D01*
X189622000Y-72226092D01*
X188733169Y-72226092D01*
X188643442Y-72070680D01*
X188626704Y-72001686D01*
X188649924Y-71934594D01*
X188705731Y-71890707D01*
X188726363Y-71884435D01*
X188728298Y-71884024D01*
X188733416Y-71883368D01*
X188826513Y-71855437D01*
X188942429Y-71820661D01*
X188942434Y-71820659D01*
X188947384Y-71819174D01*
X189147994Y-71720896D01*
X189329860Y-71591173D01*
X189339688Y-71581380D01*
X189477754Y-71443795D01*
X189540126Y-71409879D01*
X189596117Y-71413981D01*
X189596441Y-71412493D01*
X189606923Y-71414773D01*
X189610933Y-71415067D01*
X189612468Y-71415979D01*
X189635548Y-71421000D01*
X190507885Y-71421000D01*
X190523124Y-71416525D01*
X190524329Y-71415135D01*
X190526000Y-71407452D01*
X190526000Y-70061706D01*
X190522194Y-70048744D01*
X190507278Y-70046808D01*
X190484700Y-70050687D01*
X190473583Y-70053666D01*
X190284748Y-70123331D01*
X190274370Y-70128281D01*
X190101394Y-70231191D01*
X190092085Y-70237955D01*
X189985147Y-70331736D01*
X189920743Y-70361613D01*
X189850410Y-70351927D01*
X189796479Y-70305754D01*
X189779866Y-70267699D01*
X189768195Y-70221235D01*
X189740431Y-70110702D01*
X189651354Y-69905840D01*
X189611906Y-69844862D01*
X189532822Y-69722617D01*
X189532820Y-69722614D01*
X189530014Y-69718277D01*
X189379670Y-69553051D01*
X189375619Y-69549852D01*
X189375615Y-69549848D01*
X189208414Y-69417800D01*
X189208410Y-69417798D01*
X189204359Y-69414598D01*
X189192199Y-69407885D01*
X189152136Y-69385769D01*
X189008789Y-69306638D01*
X189003920Y-69304914D01*
X189003916Y-69304912D01*
X188803087Y-69233795D01*
X188803083Y-69233794D01*
X188798212Y-69232069D01*
X188793119Y-69231162D01*
X188793116Y-69231161D01*
X188583373Y-69193800D01*
X188583367Y-69193799D01*
X188578284Y-69192894D01*
X188504452Y-69191992D01*
X188360081Y-69190228D01*
X188360079Y-69190228D01*
X188354911Y-69190165D01*
X188134091Y-69223955D01*
X187921756Y-69293357D01*
X187723607Y-69396507D01*
X187719474Y-69399610D01*
X187719471Y-69399612D01*
X187549100Y-69527530D01*
X187544965Y-69530635D01*
X187390629Y-69692138D01*
X187264743Y-69876680D01*
X187236801Y-69936876D01*
X187177516Y-70064596D01*
X187170688Y-70079305D01*
X187110989Y-70294570D01*
X187087251Y-70516695D01*
X187087548Y-70521848D01*
X187087548Y-70521851D01*
X187094799Y-70647606D01*
X187100110Y-70739715D01*
X187101247Y-70744761D01*
X187101248Y-70744767D01*
X187121119Y-70832939D01*
X187149222Y-70957639D01*
X187233266Y-71164616D01*
X187256600Y-71202694D01*
X187332832Y-71327093D01*
X187349987Y-71355088D01*
X187496250Y-71523938D01*
X187545107Y-71564500D01*
X187584740Y-71623400D01*
X187586238Y-71694381D01*
X187549124Y-71754904D01*
X187515869Y-71776549D01*
X187449278Y-71806197D01*
X187449276Y-71806198D01*
X187443248Y-71808882D01*
X187437907Y-71812762D01*
X187437906Y-71812763D01*
X187293837Y-71917436D01*
X187226969Y-71941294D01*
X187219776Y-71941500D01*
X184382056Y-71941500D01*
X184370200Y-71940941D01*
X184370197Y-71940941D01*
X184362463Y-71939212D01*
X184307446Y-71940941D01*
X184291631Y-71941438D01*
X184287673Y-71941500D01*
X184258568Y-71941500D01*
X184254168Y-71942056D01*
X184242336Y-71942988D01*
X184196169Y-71944438D01*
X184175579Y-71950420D01*
X184156218Y-71954430D01*
X184149230Y-71955312D01*
X184142796Y-71956125D01*
X184142795Y-71956125D01*
X184134936Y-71957118D01*
X184127571Y-71960034D01*
X184127567Y-71960035D01*
X184091979Y-71974126D01*
X184080769Y-71977965D01*
X184036400Y-71990855D01*
X184017935Y-72001775D01*
X184000195Y-72010466D01*
X183980244Y-72018365D01*
X183942874Y-72045516D01*
X183932952Y-72052033D01*
X183900023Y-72071507D01*
X183900019Y-72071510D01*
X183893193Y-72075547D01*
X183878029Y-72090711D01*
X183862996Y-72103551D01*
X183845643Y-72116159D01*
X183816198Y-72151752D01*
X183808208Y-72160532D01*
X183464145Y-72504595D01*
X183401833Y-72538621D01*
X183375050Y-72541500D01*
X178124950Y-72541500D01*
X178056829Y-72521498D01*
X178035854Y-72504595D01*
X177691792Y-72160532D01*
X177343651Y-71812391D01*
X177335663Y-71803612D01*
X177331416Y-71796920D01*
X177279741Y-71748394D01*
X177276900Y-71745640D01*
X177256333Y-71725073D01*
X177252826Y-71722353D01*
X177243804Y-71714647D01*
X177215913Y-71688456D01*
X177210133Y-71683028D01*
X177203181Y-71679206D01*
X177191342Y-71672697D01*
X177174818Y-71661843D01*
X177164132Y-71653555D01*
X177157868Y-71648696D01*
X177150596Y-71645549D01*
X177150594Y-71645548D01*
X177115465Y-71630346D01*
X177104805Y-71625124D01*
X177071284Y-71606695D01*
X177071282Y-71606694D01*
X177064337Y-71602876D01*
X177043559Y-71597541D01*
X177024869Y-71591142D01*
X177005176Y-71582620D01*
X176959552Y-71575394D01*
X176947929Y-71572987D01*
X176919928Y-71565798D01*
X176903188Y-71561500D01*
X176881741Y-71561500D01*
X176862031Y-71559949D01*
X176848677Y-71557834D01*
X176840848Y-71556594D01*
X176794859Y-71560941D01*
X176783004Y-71561500D01*
X176760632Y-71561500D01*
X176692511Y-71541498D01*
X176654840Y-71503940D01*
X176582822Y-71392617D01*
X176582820Y-71392614D01*
X176580014Y-71388277D01*
X176576538Y-71384457D01*
X176576533Y-71384450D01*
X176432435Y-71226088D01*
X176401383Y-71162242D01*
X176409779Y-71091744D01*
X176454956Y-71036976D01*
X176481400Y-71023307D01*
X176588052Y-70983325D01*
X176603649Y-70974786D01*
X176705724Y-70898285D01*
X176718285Y-70885724D01*
X176794786Y-70783649D01*
X176803324Y-70768054D01*
X176848478Y-70647606D01*
X176852105Y-70632351D01*
X176857631Y-70581486D01*
X176858000Y-70574672D01*
X176858000Y-70516695D01*
X180587251Y-70516695D01*
X180587548Y-70521848D01*
X180587548Y-70521851D01*
X180594799Y-70647606D01*
X180600110Y-70739715D01*
X180601247Y-70744761D01*
X180601248Y-70744767D01*
X180621119Y-70832939D01*
X180649222Y-70957639D01*
X180733266Y-71164616D01*
X180756600Y-71202694D01*
X180832832Y-71327093D01*
X180849987Y-71355088D01*
X180996250Y-71523938D01*
X181168126Y-71666632D01*
X181361000Y-71779338D01*
X181365825Y-71781180D01*
X181365826Y-71781181D01*
X181438368Y-71808882D01*
X181569692Y-71859030D01*
X181574760Y-71860061D01*
X181574763Y-71860062D01*
X181682017Y-71881883D01*
X181788597Y-71903567D01*
X181793772Y-71903757D01*
X181793774Y-71903757D01*
X182006673Y-71911564D01*
X182006677Y-71911564D01*
X182011837Y-71911753D01*
X182016957Y-71911097D01*
X182016959Y-71911097D01*
X182228288Y-71884025D01*
X182228289Y-71884025D01*
X182233416Y-71883368D01*
X182238366Y-71881883D01*
X182442429Y-71820661D01*
X182442434Y-71820659D01*
X182447384Y-71819174D01*
X182647994Y-71720896D01*
X182829860Y-71591173D01*
X182839688Y-71581380D01*
X182965556Y-71455950D01*
X182988096Y-71433489D01*
X183001334Y-71415067D01*
X183115435Y-71256277D01*
X183118453Y-71252077D01*
X183131298Y-71226088D01*
X183215136Y-71056453D01*
X183215137Y-71056451D01*
X183217430Y-71051811D01*
X183264075Y-70898285D01*
X183280865Y-70843023D01*
X183280865Y-70843021D01*
X183282370Y-70838069D01*
X183311529Y-70616590D01*
X183312553Y-70574672D01*
X183313074Y-70553365D01*
X183313074Y-70553361D01*
X183313156Y-70550000D01*
X183294852Y-70327361D01*
X183240431Y-70110702D01*
X183151354Y-69905840D01*
X183111906Y-69844862D01*
X183032822Y-69722617D01*
X183032820Y-69722614D01*
X183030014Y-69718277D01*
X182879670Y-69553051D01*
X182875619Y-69549852D01*
X182875615Y-69549848D01*
X182708414Y-69417800D01*
X182708410Y-69417798D01*
X182704359Y-69414598D01*
X182692199Y-69407885D01*
X182652136Y-69385769D01*
X182508789Y-69306638D01*
X182503920Y-69304914D01*
X182503916Y-69304912D01*
X182303087Y-69233795D01*
X182303083Y-69233794D01*
X182298212Y-69232069D01*
X182293119Y-69231162D01*
X182293116Y-69231161D01*
X182083373Y-69193800D01*
X182083367Y-69193799D01*
X182078284Y-69192894D01*
X182004452Y-69191992D01*
X181860081Y-69190228D01*
X181860079Y-69190228D01*
X181854911Y-69190165D01*
X181634091Y-69223955D01*
X181421756Y-69293357D01*
X181223607Y-69396507D01*
X181219474Y-69399610D01*
X181219471Y-69399612D01*
X181049100Y-69527530D01*
X181044965Y-69530635D01*
X180890629Y-69692138D01*
X180764743Y-69876680D01*
X180736801Y-69936876D01*
X180677516Y-70064596D01*
X180670688Y-70079305D01*
X180610989Y-70294570D01*
X180587251Y-70516695D01*
X176858000Y-70516695D01*
X176858000Y-69952115D01*
X176853525Y-69936876D01*
X176852135Y-69935671D01*
X176844452Y-69934000D01*
X175372000Y-69934000D01*
X175303879Y-69913998D01*
X175257386Y-69860342D01*
X175246000Y-69808000D01*
X175246000Y-69407885D01*
X175754000Y-69407885D01*
X175758475Y-69423124D01*
X175759865Y-69424329D01*
X175767548Y-69426000D01*
X176839884Y-69426000D01*
X176855123Y-69421525D01*
X176856328Y-69420135D01*
X176857999Y-69412452D01*
X176857999Y-68785331D01*
X176857629Y-68778510D01*
X176852105Y-68727648D01*
X176848479Y-68712396D01*
X176803324Y-68591946D01*
X176794786Y-68576351D01*
X176775849Y-68551084D01*
X189622000Y-68551084D01*
X189622266Y-68556881D01*
X189635984Y-68706176D01*
X189638082Y-68717497D01*
X189692713Y-68911203D01*
X189696837Y-68921950D01*
X189785859Y-69102466D01*
X189791869Y-69112273D01*
X189912299Y-69273549D01*
X189919989Y-69282089D01*
X190067794Y-69418720D01*
X190076919Y-69425721D01*
X190247144Y-69533125D01*
X190257391Y-69538346D01*
X190444332Y-69612928D01*
X190455369Y-69616197D01*
X190508230Y-69626712D01*
X190521106Y-69625560D01*
X190525067Y-69613294D01*
X191034000Y-69613294D01*
X191037806Y-69626256D01*
X191052722Y-69628192D01*
X191075300Y-69624313D01*
X191086417Y-69621334D01*
X191275252Y-69551669D01*
X191285630Y-69546719D01*
X191458606Y-69443809D01*
X191467915Y-69437045D01*
X191619243Y-69304335D01*
X191627153Y-69296000D01*
X191751764Y-69137931D01*
X191758032Y-69128280D01*
X191851743Y-68950164D01*
X191856152Y-68939521D01*
X191915833Y-68747316D01*
X191918227Y-68736054D01*
X191937563Y-68572678D01*
X191938000Y-68565272D01*
X191938000Y-68551084D01*
X198262000Y-68551084D01*
X198262266Y-68556881D01*
X198275984Y-68706176D01*
X198278082Y-68717497D01*
X198332713Y-68911203D01*
X198336837Y-68921950D01*
X198425859Y-69102466D01*
X198431869Y-69112273D01*
X198552299Y-69273549D01*
X198559989Y-69282089D01*
X198707794Y-69418720D01*
X198716919Y-69425721D01*
X198887144Y-69533125D01*
X198897391Y-69538346D01*
X199084332Y-69612928D01*
X199095369Y-69616197D01*
X199148230Y-69626712D01*
X199161106Y-69625560D01*
X199165067Y-69613294D01*
X199674000Y-69613294D01*
X199677806Y-69626256D01*
X199692722Y-69628192D01*
X199715300Y-69624313D01*
X199726417Y-69621334D01*
X199915252Y-69551669D01*
X199925630Y-69546719D01*
X200098606Y-69443809D01*
X200107915Y-69437045D01*
X200133984Y-69414183D01*
X210464389Y-69414183D01*
X210465912Y-69422607D01*
X210478292Y-69426000D01*
X211527885Y-69426000D01*
X211543124Y-69421525D01*
X211544329Y-69420135D01*
X211546000Y-69412452D01*
X211546000Y-68363102D01*
X211542082Y-68349758D01*
X211527806Y-68347771D01*
X211489324Y-68353660D01*
X211479288Y-68356051D01*
X211276868Y-68422212D01*
X211267359Y-68426209D01*
X211078463Y-68524542D01*
X211069738Y-68530036D01*
X210899433Y-68657905D01*
X210891726Y-68664748D01*
X210744590Y-68818717D01*
X210738104Y-68826727D01*
X210618098Y-69002649D01*
X210613000Y-69011623D01*
X210523338Y-69204783D01*
X210519775Y-69214470D01*
X210464389Y-69414183D01*
X200133984Y-69414183D01*
X200259243Y-69304335D01*
X200267153Y-69296000D01*
X200391764Y-69137931D01*
X200398032Y-69128280D01*
X200491743Y-68950164D01*
X200496152Y-68939521D01*
X200555833Y-68747316D01*
X200558227Y-68736054D01*
X200577563Y-68572678D01*
X200578000Y-68565272D01*
X200578000Y-68122115D01*
X200573525Y-68106876D01*
X200572135Y-68105671D01*
X200564452Y-68104000D01*
X199692115Y-68104000D01*
X199676876Y-68108475D01*
X199675671Y-68109865D01*
X199674000Y-68117548D01*
X199674000Y-69613294D01*
X199165067Y-69613294D01*
X199166000Y-69610404D01*
X199166000Y-68122115D01*
X199161525Y-68106876D01*
X199160135Y-68105671D01*
X199152452Y-68104000D01*
X198280115Y-68104000D01*
X198264876Y-68108475D01*
X198263671Y-68109865D01*
X198262000Y-68117548D01*
X198262000Y-68551084D01*
X191938000Y-68551084D01*
X191938000Y-68122115D01*
X191933525Y-68106876D01*
X191932135Y-68105671D01*
X191924452Y-68104000D01*
X191052115Y-68104000D01*
X191036876Y-68108475D01*
X191035671Y-68109865D01*
X191034000Y-68117548D01*
X191034000Y-69613294D01*
X190525067Y-69613294D01*
X190526000Y-69610404D01*
X190526000Y-68122115D01*
X190521525Y-68106876D01*
X190520135Y-68105671D01*
X190512452Y-68104000D01*
X189640115Y-68104000D01*
X189624876Y-68108475D01*
X189623671Y-68109865D01*
X189622000Y-68117548D01*
X189622000Y-68551084D01*
X176775849Y-68551084D01*
X176718285Y-68474276D01*
X176705724Y-68461715D01*
X176603649Y-68385214D01*
X176588054Y-68376676D01*
X176467606Y-68331522D01*
X176452351Y-68327895D01*
X176401486Y-68322369D01*
X176394672Y-68322000D01*
X175772115Y-68322000D01*
X175756876Y-68326475D01*
X175755671Y-68327865D01*
X175754000Y-68335548D01*
X175754000Y-69407885D01*
X175246000Y-69407885D01*
X175246000Y-68340116D01*
X175241525Y-68324877D01*
X175240135Y-68323672D01*
X175232452Y-68322001D01*
X174605331Y-68322001D01*
X174598510Y-68322371D01*
X174547648Y-68327895D01*
X174532396Y-68331521D01*
X174411946Y-68376676D01*
X174396352Y-68385213D01*
X174335064Y-68431146D01*
X174268558Y-68455993D01*
X174199175Y-68440940D01*
X174148946Y-68390765D01*
X174133500Y-68330319D01*
X174133500Y-66944669D01*
X180592001Y-66944669D01*
X180592371Y-66951490D01*
X180597895Y-67002352D01*
X180601521Y-67017604D01*
X180646676Y-67138054D01*
X180655214Y-67153649D01*
X180731715Y-67255724D01*
X180744276Y-67268285D01*
X180846351Y-67344786D01*
X180861946Y-67353324D01*
X180982394Y-67398478D01*
X180997649Y-67402105D01*
X181048514Y-67407631D01*
X181055328Y-67408000D01*
X181677885Y-67408000D01*
X181693124Y-67403525D01*
X181694329Y-67402135D01*
X181696000Y-67394452D01*
X181696000Y-67389884D01*
X182204000Y-67389884D01*
X182208475Y-67405123D01*
X182209865Y-67406328D01*
X182217548Y-67407999D01*
X182844669Y-67407999D01*
X182851490Y-67407629D01*
X182902352Y-67402105D01*
X182917604Y-67398479D01*
X183038054Y-67353324D01*
X183053649Y-67344786D01*
X183155724Y-67268285D01*
X183168285Y-67255724D01*
X183228894Y-67174853D01*
X187689977Y-67174853D01*
X187695258Y-67181907D01*
X187856756Y-67276279D01*
X187866042Y-67280729D01*
X188065001Y-67356703D01*
X188074899Y-67359579D01*
X188283595Y-67402038D01*
X188293823Y-67403257D01*
X188506650Y-67411062D01*
X188516936Y-67410595D01*
X188728185Y-67383534D01*
X188738262Y-67381392D01*
X188942255Y-67320191D01*
X188951842Y-67316433D01*
X189143098Y-67222738D01*
X189151944Y-67217465D01*
X189199247Y-67183723D01*
X189207648Y-67173023D01*
X189200660Y-67159870D01*
X188462812Y-66422022D01*
X188448868Y-66414408D01*
X188447035Y-66414539D01*
X188440420Y-66418790D01*
X187696737Y-67162473D01*
X187689977Y-67174853D01*
X183228894Y-67174853D01*
X183244786Y-67153649D01*
X183253324Y-67138054D01*
X183298478Y-67017606D01*
X183302105Y-67002351D01*
X183307631Y-66951486D01*
X183308000Y-66944672D01*
X183308000Y-66322115D01*
X183303525Y-66306876D01*
X183302135Y-66305671D01*
X183294452Y-66304000D01*
X182222115Y-66304000D01*
X182206876Y-66308475D01*
X182205671Y-66309865D01*
X182204000Y-66317548D01*
X182204000Y-67389884D01*
X181696000Y-67389884D01*
X181696000Y-66322115D01*
X181691525Y-66306876D01*
X181690135Y-66305671D01*
X181682452Y-66304000D01*
X180610116Y-66304000D01*
X180594877Y-66308475D01*
X180593672Y-66309865D01*
X180592001Y-66317548D01*
X180592001Y-66944669D01*
X174133500Y-66944669D01*
X174133500Y-65559500D01*
X174153502Y-65491379D01*
X174207158Y-65444886D01*
X174259500Y-65433500D01*
X180466000Y-65433500D01*
X180534121Y-65453502D01*
G37*
%TD.AperFunction*%
%TD*%
M02*
