%TF.GenerationSoftware,KiCad,Pcbnew,(6.0.7)*%
%TF.CreationDate,2023-07-30T21:01:36+08:00*%
%TF.ProjectId,RP2040 basic dev board,52503230-3430-4206-9261-736963206465,rev?*%
%TF.SameCoordinates,Original*%
%TF.FileFunction,Legend,Bot*%
%TF.FilePolarity,Positive*%
%FSLAX46Y46*%
G04 Gerber Fmt 4.6, Leading zero omitted, Abs format (unit mm)*
G04 Created by KiCad (PCBNEW (6.0.7)) date 2023-07-30 21:01:36*
%MOMM*%
%LPD*%
G01*
G04 APERTURE LIST*
%ADD10R,1.700000X1.700000*%
%ADD11O,1.700000X1.700000*%
%ADD12C,1.700000*%
%ADD13O,0.850000X0.600000*%
%ADD14C,0.600000*%
%ADD15O,1.300000X2.300000*%
%ADD16O,1.300000X2.600000*%
G04 APERTURE END LIST*
%LPC*%
D10*
%TO.C,J1*%
X198175000Y-115375000D03*
D11*
X200715000Y-115375000D03*
X203255000Y-115375000D03*
%TD*%
D10*
%TO.C,J3*%
X211800000Y-115400000D03*
D11*
X211800000Y-112860000D03*
X211800000Y-110320000D03*
X211800000Y-107780000D03*
X211800000Y-105240000D03*
X211800000Y-102700000D03*
X211800000Y-100160000D03*
X211800000Y-97620000D03*
X211800000Y-95080000D03*
X211800000Y-92540000D03*
X211800000Y-90000000D03*
X211800000Y-87460000D03*
X211800000Y-84920000D03*
X211800000Y-82380000D03*
X211800000Y-79840000D03*
X211800000Y-77300000D03*
X211800000Y-74760000D03*
X211800000Y-72220000D03*
X211800000Y-69680000D03*
%TD*%
D12*
%TO.C,SW1*%
X188450000Y-66050000D03*
D10*
X181950000Y-66050000D03*
D12*
X181950000Y-70550000D03*
X188450000Y-70550000D03*
%TD*%
D10*
%TO.C,J2*%
X175500000Y-69680000D03*
D11*
X175500000Y-72220000D03*
X175500000Y-74760000D03*
X175500000Y-77300000D03*
X175500000Y-79840000D03*
X175500000Y-82380000D03*
X175500000Y-84920000D03*
X175500000Y-87460000D03*
X175500000Y-90000000D03*
X175500000Y-92540000D03*
X175500000Y-95080000D03*
X175500000Y-97620000D03*
X175500000Y-100160000D03*
X175500000Y-102700000D03*
X175500000Y-105240000D03*
X175500000Y-107780000D03*
X175500000Y-110320000D03*
X175500000Y-112860000D03*
X175500000Y-115400000D03*
%TD*%
D13*
%TO.C,J4*%
X192100000Y-70950000D03*
D14*
X198100000Y-70950000D03*
D15*
X190780000Y-71675000D03*
X199420000Y-71675000D03*
D16*
X190780000Y-67850000D03*
X199420000Y-67850000D03*
%TD*%
M02*
