%TF.GenerationSoftware,KiCad,Pcbnew,(6.0.7)*%
%TF.CreationDate,2023-07-30T21:01:36+08:00*%
%TF.ProjectId,RP2040 basic dev board,52503230-3430-4206-9261-736963206465,rev?*%
%TF.SameCoordinates,Original*%
%TF.FileFunction,Legend,Top*%
%TF.FilePolarity,Positive*%
%FSLAX46Y46*%
G04 Gerber Fmt 4.6, Leading zero omitted, Abs format (unit mm)*
G04 Created by KiCad (PCBNEW (6.0.7)) date 2023-07-30 21:01:36*
%MOMM*%
%LPD*%
G01*
G04 APERTURE LIST*
G04 Aperture macros list*
%AMRoundRect*
0 Rectangle with rounded corners*
0 $1 Rounding radius*
0 $2 $3 $4 $5 $6 $7 $8 $9 X,Y pos of 4 corners*
0 Add a 4 corners polygon primitive as box body*
4,1,4,$2,$3,$4,$5,$6,$7,$8,$9,$2,$3,0*
0 Add four circle primitives for the rounded corners*
1,1,$1+$1,$2,$3*
1,1,$1+$1,$4,$5*
1,1,$1+$1,$6,$7*
1,1,$1+$1,$8,$9*
0 Add four rect primitives between the rounded corners*
20,1,$1+$1,$2,$3,$4,$5,0*
20,1,$1+$1,$4,$5,$6,$7,0*
20,1,$1+$1,$6,$7,$8,$9,0*
20,1,$1+$1,$8,$9,$2,$3,0*%
G04 Aperture macros list end*
%ADD10C,0.150000*%
%ADD11C,0.120000*%
%ADD12R,1.700000X1.700000*%
%ADD13O,1.700000X1.700000*%
%ADD14RoundRect,0.225000X-0.225000X-0.250000X0.225000X-0.250000X0.225000X0.250000X-0.225000X0.250000X0*%
%ADD15RoundRect,0.225000X0.250000X-0.225000X0.250000X0.225000X-0.250000X0.225000X-0.250000X-0.225000X0*%
%ADD16RoundRect,0.200000X0.275000X-0.200000X0.275000X0.200000X-0.275000X0.200000X-0.275000X-0.200000X0*%
%ADD17RoundRect,0.225000X0.225000X0.250000X-0.225000X0.250000X-0.225000X-0.250000X0.225000X-0.250000X0*%
%ADD18R,2.100000X1.800000*%
%ADD19C,1.700000*%
%ADD20RoundRect,0.200000X-0.275000X0.200000X-0.275000X-0.200000X0.275000X-0.200000X0.275000X0.200000X0*%
%ADD21RoundRect,0.200000X-0.200000X-0.275000X0.200000X-0.275000X0.200000X0.275000X-0.200000X0.275000X0*%
%ADD22RoundRect,0.050000X-0.387500X-0.050000X0.387500X-0.050000X0.387500X0.050000X-0.387500X0.050000X0*%
%ADD23RoundRect,0.050000X-0.050000X-0.387500X0.050000X-0.387500X0.050000X0.387500X-0.050000X0.387500X0*%
%ADD24R,3.200000X3.200000*%
%ADD25RoundRect,0.225000X-0.250000X0.225000X-0.250000X-0.225000X0.250000X-0.225000X0.250000X0.225000X0*%
%ADD26RoundRect,0.218750X0.218750X0.256250X-0.218750X0.256250X-0.218750X-0.256250X0.218750X-0.256250X0*%
%ADD27RoundRect,0.150000X-0.150000X0.650000X-0.150000X-0.650000X0.150000X-0.650000X0.150000X0.650000X0*%
%ADD28O,0.850000X0.600000*%
%ADD29C,0.600000*%
%ADD30R,1.000000X2.000000*%
%ADD31R,0.520000X1.000000*%
%ADD32R,0.270000X1.000000*%
%ADD33O,1.300000X2.300000*%
%ADD34O,1.300000X2.600000*%
%ADD35R,1.500000X2.000000*%
%ADD36R,3.800000X2.000000*%
G04 APERTURE END LIST*
D10*
%TO.C,J1*%
X195071666Y-114827380D02*
X195071666Y-115541666D01*
X195024047Y-115684523D01*
X194928809Y-115779761D01*
X194785952Y-115827380D01*
X194690714Y-115827380D01*
X196071666Y-115827380D02*
X195500238Y-115827380D01*
X195785952Y-115827380D02*
X195785952Y-114827380D01*
X195690714Y-114970238D01*
X195595476Y-115065476D01*
X195500238Y-115113095D01*
%TO.C,C11*%
X203807142Y-90632142D02*
X203759523Y-90679761D01*
X203616666Y-90727380D01*
X203521428Y-90727380D01*
X203378571Y-90679761D01*
X203283333Y-90584523D01*
X203235714Y-90489285D01*
X203188095Y-90298809D01*
X203188095Y-90155952D01*
X203235714Y-89965476D01*
X203283333Y-89870238D01*
X203378571Y-89775000D01*
X203521428Y-89727380D01*
X203616666Y-89727380D01*
X203759523Y-89775000D01*
X203807142Y-89822619D01*
X204759523Y-90727380D02*
X204188095Y-90727380D01*
X204473809Y-90727380D02*
X204473809Y-89727380D01*
X204378571Y-89870238D01*
X204283333Y-89965476D01*
X204188095Y-90013095D01*
X205711904Y-90727380D02*
X205140476Y-90727380D01*
X205426190Y-90727380D02*
X205426190Y-89727380D01*
X205330952Y-89870238D01*
X205235714Y-89965476D01*
X205140476Y-90013095D01*
%TO.C,C8*%
X191857142Y-86766666D02*
X191904761Y-86814285D01*
X191952380Y-86957142D01*
X191952380Y-87052380D01*
X191904761Y-87195238D01*
X191809523Y-87290476D01*
X191714285Y-87338095D01*
X191523809Y-87385714D01*
X191380952Y-87385714D01*
X191190476Y-87338095D01*
X191095238Y-87290476D01*
X191000000Y-87195238D01*
X190952380Y-87052380D01*
X190952380Y-86957142D01*
X191000000Y-86814285D01*
X191047619Y-86766666D01*
X191380952Y-86195238D02*
X191333333Y-86290476D01*
X191285714Y-86338095D01*
X191190476Y-86385714D01*
X191142857Y-86385714D01*
X191047619Y-86338095D01*
X191000000Y-86290476D01*
X190952380Y-86195238D01*
X190952380Y-86004761D01*
X191000000Y-85909523D01*
X191047619Y-85861904D01*
X191142857Y-85814285D01*
X191190476Y-85814285D01*
X191285714Y-85861904D01*
X191333333Y-85909523D01*
X191380952Y-86004761D01*
X191380952Y-86195238D01*
X191428571Y-86290476D01*
X191476190Y-86338095D01*
X191571428Y-86385714D01*
X191761904Y-86385714D01*
X191857142Y-86338095D01*
X191904761Y-86290476D01*
X191952380Y-86195238D01*
X191952380Y-86004761D01*
X191904761Y-85909523D01*
X191857142Y-85861904D01*
X191761904Y-85814285D01*
X191571428Y-85814285D01*
X191476190Y-85861904D01*
X191428571Y-85909523D01*
X191380952Y-86004761D01*
%TO.C,C4*%
X191333333Y-83257142D02*
X191285714Y-83304761D01*
X191142857Y-83352380D01*
X191047619Y-83352380D01*
X190904761Y-83304761D01*
X190809523Y-83209523D01*
X190761904Y-83114285D01*
X190714285Y-82923809D01*
X190714285Y-82780952D01*
X190761904Y-82590476D01*
X190809523Y-82495238D01*
X190904761Y-82400000D01*
X191047619Y-82352380D01*
X191142857Y-82352380D01*
X191285714Y-82400000D01*
X191333333Y-82447619D01*
X192190476Y-82685714D02*
X192190476Y-83352380D01*
X191952380Y-82304761D02*
X191714285Y-83019047D01*
X192333333Y-83019047D01*
%TO.C,J3*%
X208866666Y-116052380D02*
X208866666Y-116766666D01*
X208819047Y-116909523D01*
X208723809Y-117004761D01*
X208580952Y-117052380D01*
X208485714Y-117052380D01*
X209247619Y-116052380D02*
X209866666Y-116052380D01*
X209533333Y-116433333D01*
X209676190Y-116433333D01*
X209771428Y-116480952D01*
X209819047Y-116528571D01*
X209866666Y-116623809D01*
X209866666Y-116861904D01*
X209819047Y-116957142D01*
X209771428Y-117004761D01*
X209676190Y-117052380D01*
X209390476Y-117052380D01*
X209295238Y-117004761D01*
X209247619Y-116957142D01*
%TO.C,C1*%
X202333333Y-70957142D02*
X202285714Y-71004761D01*
X202142857Y-71052380D01*
X202047619Y-71052380D01*
X201904761Y-71004761D01*
X201809523Y-70909523D01*
X201761904Y-70814285D01*
X201714285Y-70623809D01*
X201714285Y-70480952D01*
X201761904Y-70290476D01*
X201809523Y-70195238D01*
X201904761Y-70100000D01*
X202047619Y-70052380D01*
X202142857Y-70052380D01*
X202285714Y-70100000D01*
X202333333Y-70147619D01*
X203285714Y-71052380D02*
X202714285Y-71052380D01*
X203000000Y-71052380D02*
X203000000Y-70052380D01*
X202904761Y-70195238D01*
X202809523Y-70290476D01*
X202714285Y-70338095D01*
%TO.C,R6*%
X195252380Y-80551666D02*
X194776190Y-80885000D01*
X195252380Y-81123095D02*
X194252380Y-81123095D01*
X194252380Y-80742142D01*
X194300000Y-80646904D01*
X194347619Y-80599285D01*
X194442857Y-80551666D01*
X194585714Y-80551666D01*
X194680952Y-80599285D01*
X194728571Y-80646904D01*
X194776190Y-80742142D01*
X194776190Y-81123095D01*
X194252380Y-79694523D02*
X194252380Y-79885000D01*
X194300000Y-79980238D01*
X194347619Y-80027857D01*
X194490476Y-80123095D01*
X194680952Y-80170714D01*
X195061904Y-80170714D01*
X195157142Y-80123095D01*
X195204761Y-80075476D01*
X195252380Y-79980238D01*
X195252380Y-79789761D01*
X195204761Y-79694523D01*
X195157142Y-79646904D01*
X195061904Y-79599285D01*
X194823809Y-79599285D01*
X194728571Y-79646904D01*
X194680952Y-79694523D01*
X194633333Y-79789761D01*
X194633333Y-79980238D01*
X194680952Y-80075476D01*
X194728571Y-80123095D01*
X194823809Y-80170714D01*
%TO.C,C5*%
X194582142Y-105816666D02*
X194629761Y-105864285D01*
X194677380Y-106007142D01*
X194677380Y-106102380D01*
X194629761Y-106245238D01*
X194534523Y-106340476D01*
X194439285Y-106388095D01*
X194248809Y-106435714D01*
X194105952Y-106435714D01*
X193915476Y-106388095D01*
X193820238Y-106340476D01*
X193725000Y-106245238D01*
X193677380Y-106102380D01*
X193677380Y-106007142D01*
X193725000Y-105864285D01*
X193772619Y-105816666D01*
X193677380Y-104911904D02*
X193677380Y-105388095D01*
X194153571Y-105435714D01*
X194105952Y-105388095D01*
X194058333Y-105292857D01*
X194058333Y-105054761D01*
X194105952Y-104959523D01*
X194153571Y-104911904D01*
X194248809Y-104864285D01*
X194486904Y-104864285D01*
X194582142Y-104911904D01*
X194629761Y-104959523D01*
X194677380Y-105054761D01*
X194677380Y-105292857D01*
X194629761Y-105388095D01*
X194582142Y-105435714D01*
%TO.C,C13*%
X186457142Y-97157142D02*
X186409523Y-97204761D01*
X186266666Y-97252380D01*
X186171428Y-97252380D01*
X186028571Y-97204761D01*
X185933333Y-97109523D01*
X185885714Y-97014285D01*
X185838095Y-96823809D01*
X185838095Y-96680952D01*
X185885714Y-96490476D01*
X185933333Y-96395238D01*
X186028571Y-96300000D01*
X186171428Y-96252380D01*
X186266666Y-96252380D01*
X186409523Y-96300000D01*
X186457142Y-96347619D01*
X187409523Y-97252380D02*
X186838095Y-97252380D01*
X187123809Y-97252380D02*
X187123809Y-96252380D01*
X187028571Y-96395238D01*
X186933333Y-96490476D01*
X186838095Y-96538095D01*
X187742857Y-96252380D02*
X188361904Y-96252380D01*
X188028571Y-96633333D01*
X188171428Y-96633333D01*
X188266666Y-96680952D01*
X188314285Y-96728571D01*
X188361904Y-96823809D01*
X188361904Y-97061904D01*
X188314285Y-97157142D01*
X188266666Y-97204761D01*
X188171428Y-97252380D01*
X187885714Y-97252380D01*
X187790476Y-97204761D01*
X187742857Y-97157142D01*
%TO.C,Y1*%
X186648809Y-107026190D02*
X186648809Y-107502380D01*
X186315476Y-106502380D02*
X186648809Y-107026190D01*
X186982142Y-106502380D01*
X187839285Y-107502380D02*
X187267857Y-107502380D01*
X187553571Y-107502380D02*
X187553571Y-106502380D01*
X187458333Y-106645238D01*
X187363095Y-106740476D01*
X187267857Y-106788095D01*
%TO.C,SW1*%
X178041666Y-66479761D02*
X178184523Y-66527380D01*
X178422619Y-66527380D01*
X178517857Y-66479761D01*
X178565476Y-66432142D01*
X178613095Y-66336904D01*
X178613095Y-66241666D01*
X178565476Y-66146428D01*
X178517857Y-66098809D01*
X178422619Y-66051190D01*
X178232142Y-66003571D01*
X178136904Y-65955952D01*
X178089285Y-65908333D01*
X178041666Y-65813095D01*
X178041666Y-65717857D01*
X178089285Y-65622619D01*
X178136904Y-65575000D01*
X178232142Y-65527380D01*
X178470238Y-65527380D01*
X178613095Y-65575000D01*
X178946428Y-65527380D02*
X179184523Y-66527380D01*
X179375000Y-65813095D01*
X179565476Y-66527380D01*
X179803571Y-65527380D01*
X180708333Y-66527380D02*
X180136904Y-66527380D01*
X180422619Y-66527380D02*
X180422619Y-65527380D01*
X180327380Y-65670238D01*
X180232142Y-65765476D01*
X180136904Y-65813095D01*
%TO.C,R1*%
X182277380Y-73266666D02*
X181801190Y-73600000D01*
X182277380Y-73838095D02*
X181277380Y-73838095D01*
X181277380Y-73457142D01*
X181325000Y-73361904D01*
X181372619Y-73314285D01*
X181467857Y-73266666D01*
X181610714Y-73266666D01*
X181705952Y-73314285D01*
X181753571Y-73361904D01*
X181801190Y-73457142D01*
X181801190Y-73838095D01*
X182277380Y-72314285D02*
X182277380Y-72885714D01*
X182277380Y-72600000D02*
X181277380Y-72600000D01*
X181420238Y-72695238D01*
X181515476Y-72790476D01*
X181563095Y-72885714D01*
%TO.C,R5*%
X203382380Y-101566666D02*
X202906190Y-101900000D01*
X203382380Y-102138095D02*
X202382380Y-102138095D01*
X202382380Y-101757142D01*
X202430000Y-101661904D01*
X202477619Y-101614285D01*
X202572857Y-101566666D01*
X202715714Y-101566666D01*
X202810952Y-101614285D01*
X202858571Y-101661904D01*
X202906190Y-101757142D01*
X202906190Y-102138095D01*
X202382380Y-100661904D02*
X202382380Y-101138095D01*
X202858571Y-101185714D01*
X202810952Y-101138095D01*
X202763333Y-101042857D01*
X202763333Y-100804761D01*
X202810952Y-100709523D01*
X202858571Y-100661904D01*
X202953809Y-100614285D01*
X203191904Y-100614285D01*
X203287142Y-100661904D01*
X203334761Y-100709523D01*
X203382380Y-100804761D01*
X203382380Y-101042857D01*
X203334761Y-101138095D01*
X203287142Y-101185714D01*
%TO.C,C17*%
X186057142Y-92757142D02*
X186009523Y-92804761D01*
X185866666Y-92852380D01*
X185771428Y-92852380D01*
X185628571Y-92804761D01*
X185533333Y-92709523D01*
X185485714Y-92614285D01*
X185438095Y-92423809D01*
X185438095Y-92280952D01*
X185485714Y-92090476D01*
X185533333Y-91995238D01*
X185628571Y-91900000D01*
X185771428Y-91852380D01*
X185866666Y-91852380D01*
X186009523Y-91900000D01*
X186057142Y-91947619D01*
X187009523Y-92852380D02*
X186438095Y-92852380D01*
X186723809Y-92852380D02*
X186723809Y-91852380D01*
X186628571Y-91995238D01*
X186533333Y-92090476D01*
X186438095Y-92138095D01*
X187342857Y-91852380D02*
X188009523Y-91852380D01*
X187580952Y-92852380D01*
%TO.C,C3*%
X187708333Y-102707142D02*
X187660714Y-102754761D01*
X187517857Y-102802380D01*
X187422619Y-102802380D01*
X187279761Y-102754761D01*
X187184523Y-102659523D01*
X187136904Y-102564285D01*
X187089285Y-102373809D01*
X187089285Y-102230952D01*
X187136904Y-102040476D01*
X187184523Y-101945238D01*
X187279761Y-101850000D01*
X187422619Y-101802380D01*
X187517857Y-101802380D01*
X187660714Y-101850000D01*
X187708333Y-101897619D01*
X188041666Y-101802380D02*
X188660714Y-101802380D01*
X188327380Y-102183333D01*
X188470238Y-102183333D01*
X188565476Y-102230952D01*
X188613095Y-102278571D01*
X188660714Y-102373809D01*
X188660714Y-102611904D01*
X188613095Y-102707142D01*
X188565476Y-102754761D01*
X188470238Y-102802380D01*
X188184523Y-102802380D01*
X188089285Y-102754761D01*
X188041666Y-102707142D01*
%TO.C,R7*%
X196902380Y-80451666D02*
X196426190Y-80785000D01*
X196902380Y-81023095D02*
X195902380Y-81023095D01*
X195902380Y-80642142D01*
X195950000Y-80546904D01*
X195997619Y-80499285D01*
X196092857Y-80451666D01*
X196235714Y-80451666D01*
X196330952Y-80499285D01*
X196378571Y-80546904D01*
X196426190Y-80642142D01*
X196426190Y-81023095D01*
X195902380Y-80118333D02*
X195902380Y-79451666D01*
X196902380Y-79880238D01*
%TO.C,R4*%
X204133333Y-85552380D02*
X203800000Y-85076190D01*
X203561904Y-85552380D02*
X203561904Y-84552380D01*
X203942857Y-84552380D01*
X204038095Y-84600000D01*
X204085714Y-84647619D01*
X204133333Y-84742857D01*
X204133333Y-84885714D01*
X204085714Y-84980952D01*
X204038095Y-85028571D01*
X203942857Y-85076190D01*
X203561904Y-85076190D01*
X204990476Y-84885714D02*
X204990476Y-85552380D01*
X204752380Y-84504761D02*
X204514285Y-85219047D01*
X205133333Y-85219047D01*
%TO.C,U3*%
X190363095Y-88852380D02*
X190363095Y-89661904D01*
X190410714Y-89757142D01*
X190458333Y-89804761D01*
X190553571Y-89852380D01*
X190744047Y-89852380D01*
X190839285Y-89804761D01*
X190886904Y-89757142D01*
X190934523Y-89661904D01*
X190934523Y-88852380D01*
X191315476Y-88852380D02*
X191934523Y-88852380D01*
X191601190Y-89233333D01*
X191744047Y-89233333D01*
X191839285Y-89280952D01*
X191886904Y-89328571D01*
X191934523Y-89423809D01*
X191934523Y-89661904D01*
X191886904Y-89757142D01*
X191839285Y-89804761D01*
X191744047Y-89852380D01*
X191458333Y-89852380D01*
X191363095Y-89804761D01*
X191315476Y-89757142D01*
%TO.C,J2*%
X177766666Y-116032380D02*
X177766666Y-116746666D01*
X177719047Y-116889523D01*
X177623809Y-116984761D01*
X177480952Y-117032380D01*
X177385714Y-117032380D01*
X178195238Y-116127619D02*
X178242857Y-116080000D01*
X178338095Y-116032380D01*
X178576190Y-116032380D01*
X178671428Y-116080000D01*
X178719047Y-116127619D01*
X178766666Y-116222857D01*
X178766666Y-116318095D01*
X178719047Y-116460952D01*
X178147619Y-117032380D01*
X178766666Y-117032380D01*
%TO.C,C7*%
X198557142Y-101566666D02*
X198604761Y-101614285D01*
X198652380Y-101757142D01*
X198652380Y-101852380D01*
X198604761Y-101995238D01*
X198509523Y-102090476D01*
X198414285Y-102138095D01*
X198223809Y-102185714D01*
X198080952Y-102185714D01*
X197890476Y-102138095D01*
X197795238Y-102090476D01*
X197700000Y-101995238D01*
X197652380Y-101852380D01*
X197652380Y-101757142D01*
X197700000Y-101614285D01*
X197747619Y-101566666D01*
X197652380Y-101233333D02*
X197652380Y-100566666D01*
X198652380Y-100995238D01*
%TO.C,D1*%
X203561904Y-87152380D02*
X203561904Y-86152380D01*
X203800000Y-86152380D01*
X203942857Y-86200000D01*
X204038095Y-86295238D01*
X204085714Y-86390476D01*
X204133333Y-86580952D01*
X204133333Y-86723809D01*
X204085714Y-86914285D01*
X204038095Y-87009523D01*
X203942857Y-87104761D01*
X203800000Y-87152380D01*
X203561904Y-87152380D01*
X205085714Y-87152380D02*
X204514285Y-87152380D01*
X204800000Y-87152380D02*
X204800000Y-86152380D01*
X204704761Y-86295238D01*
X204609523Y-86390476D01*
X204514285Y-86438095D01*
%TO.C,C12*%
X199157142Y-84542857D02*
X199204761Y-84590476D01*
X199252380Y-84733333D01*
X199252380Y-84828571D01*
X199204761Y-84971428D01*
X199109523Y-85066666D01*
X199014285Y-85114285D01*
X198823809Y-85161904D01*
X198680952Y-85161904D01*
X198490476Y-85114285D01*
X198395238Y-85066666D01*
X198300000Y-84971428D01*
X198252380Y-84828571D01*
X198252380Y-84733333D01*
X198300000Y-84590476D01*
X198347619Y-84542857D01*
X199252380Y-83590476D02*
X199252380Y-84161904D01*
X199252380Y-83876190D02*
X198252380Y-83876190D01*
X198395238Y-83971428D01*
X198490476Y-84066666D01*
X198538095Y-84161904D01*
X198347619Y-83209523D02*
X198300000Y-83161904D01*
X198252380Y-83066666D01*
X198252380Y-82828571D01*
X198300000Y-82733333D01*
X198347619Y-82685714D01*
X198442857Y-82638095D01*
X198538095Y-82638095D01*
X198680952Y-82685714D01*
X199252380Y-83257142D01*
X199252380Y-82638095D01*
%TO.C,U2*%
X190738095Y-77552380D02*
X190738095Y-78361904D01*
X190785714Y-78457142D01*
X190833333Y-78504761D01*
X190928571Y-78552380D01*
X191119047Y-78552380D01*
X191214285Y-78504761D01*
X191261904Y-78457142D01*
X191309523Y-78361904D01*
X191309523Y-77552380D01*
X191738095Y-77647619D02*
X191785714Y-77600000D01*
X191880952Y-77552380D01*
X192119047Y-77552380D01*
X192214285Y-77600000D01*
X192261904Y-77647619D01*
X192309523Y-77742857D01*
X192309523Y-77838095D01*
X192261904Y-77980952D01*
X191690476Y-78552380D01*
X192309523Y-78552380D01*
%TO.C,C10*%
X203932142Y-89157142D02*
X203884523Y-89204761D01*
X203741666Y-89252380D01*
X203646428Y-89252380D01*
X203503571Y-89204761D01*
X203408333Y-89109523D01*
X203360714Y-89014285D01*
X203313095Y-88823809D01*
X203313095Y-88680952D01*
X203360714Y-88490476D01*
X203408333Y-88395238D01*
X203503571Y-88300000D01*
X203646428Y-88252380D01*
X203741666Y-88252380D01*
X203884523Y-88300000D01*
X203932142Y-88347619D01*
X204884523Y-89252380D02*
X204313095Y-89252380D01*
X204598809Y-89252380D02*
X204598809Y-88252380D01*
X204503571Y-88395238D01*
X204408333Y-88490476D01*
X204313095Y-88538095D01*
X205503571Y-88252380D02*
X205598809Y-88252380D01*
X205694047Y-88300000D01*
X205741666Y-88347619D01*
X205789285Y-88442857D01*
X205836904Y-88633333D01*
X205836904Y-88871428D01*
X205789285Y-89061904D01*
X205741666Y-89157142D01*
X205694047Y-89204761D01*
X205598809Y-89252380D01*
X205503571Y-89252380D01*
X205408333Y-89204761D01*
X205360714Y-89157142D01*
X205313095Y-89061904D01*
X205265476Y-88871428D01*
X205265476Y-88633333D01*
X205313095Y-88442857D01*
X205360714Y-88347619D01*
X205408333Y-88300000D01*
X205503571Y-88252380D01*
%TO.C,C16*%
X200657142Y-94027142D02*
X200609523Y-94074761D01*
X200466666Y-94122380D01*
X200371428Y-94122380D01*
X200228571Y-94074761D01*
X200133333Y-93979523D01*
X200085714Y-93884285D01*
X200038095Y-93693809D01*
X200038095Y-93550952D01*
X200085714Y-93360476D01*
X200133333Y-93265238D01*
X200228571Y-93170000D01*
X200371428Y-93122380D01*
X200466666Y-93122380D01*
X200609523Y-93170000D01*
X200657142Y-93217619D01*
X201609523Y-94122380D02*
X201038095Y-94122380D01*
X201323809Y-94122380D02*
X201323809Y-93122380D01*
X201228571Y-93265238D01*
X201133333Y-93360476D01*
X201038095Y-93408095D01*
X202466666Y-93122380D02*
X202276190Y-93122380D01*
X202180952Y-93170000D01*
X202133333Y-93217619D01*
X202038095Y-93360476D01*
X201990476Y-93550952D01*
X201990476Y-93931904D01*
X202038095Y-94027142D01*
X202085714Y-94074761D01*
X202180952Y-94122380D01*
X202371428Y-94122380D01*
X202466666Y-94074761D01*
X202514285Y-94027142D01*
X202561904Y-93931904D01*
X202561904Y-93693809D01*
X202514285Y-93598571D01*
X202466666Y-93550952D01*
X202371428Y-93503333D01*
X202180952Y-93503333D01*
X202085714Y-93550952D01*
X202038095Y-93598571D01*
X201990476Y-93693809D01*
%TO.C,C2*%
X202333333Y-75157142D02*
X202285714Y-75204761D01*
X202142857Y-75252380D01*
X202047619Y-75252380D01*
X201904761Y-75204761D01*
X201809523Y-75109523D01*
X201761904Y-75014285D01*
X201714285Y-74823809D01*
X201714285Y-74680952D01*
X201761904Y-74490476D01*
X201809523Y-74395238D01*
X201904761Y-74300000D01*
X202047619Y-74252380D01*
X202142857Y-74252380D01*
X202285714Y-74300000D01*
X202333333Y-74347619D01*
X202714285Y-74347619D02*
X202761904Y-74300000D01*
X202857142Y-74252380D01*
X203095238Y-74252380D01*
X203190476Y-74300000D01*
X203238095Y-74347619D01*
X203285714Y-74442857D01*
X203285714Y-74538095D01*
X203238095Y-74680952D01*
X202666666Y-75252380D01*
X203285714Y-75252380D01*
%TO.C,R3*%
X189608333Y-102802380D02*
X189275000Y-102326190D01*
X189036904Y-102802380D02*
X189036904Y-101802380D01*
X189417857Y-101802380D01*
X189513095Y-101850000D01*
X189560714Y-101897619D01*
X189608333Y-101992857D01*
X189608333Y-102135714D01*
X189560714Y-102230952D01*
X189513095Y-102278571D01*
X189417857Y-102326190D01*
X189036904Y-102326190D01*
X189941666Y-101802380D02*
X190560714Y-101802380D01*
X190227380Y-102183333D01*
X190370238Y-102183333D01*
X190465476Y-102230952D01*
X190513095Y-102278571D01*
X190560714Y-102373809D01*
X190560714Y-102611904D01*
X190513095Y-102707142D01*
X190465476Y-102754761D01*
X190370238Y-102802380D01*
X190084523Y-102802380D01*
X189989285Y-102754761D01*
X189941666Y-102707142D01*
%TO.C,C9*%
X197657142Y-85266666D02*
X197704761Y-85314285D01*
X197752380Y-85457142D01*
X197752380Y-85552380D01*
X197704761Y-85695238D01*
X197609523Y-85790476D01*
X197514285Y-85838095D01*
X197323809Y-85885714D01*
X197180952Y-85885714D01*
X196990476Y-85838095D01*
X196895238Y-85790476D01*
X196800000Y-85695238D01*
X196752380Y-85552380D01*
X196752380Y-85457142D01*
X196800000Y-85314285D01*
X196847619Y-85266666D01*
X197752380Y-84790476D02*
X197752380Y-84600000D01*
X197704761Y-84504761D01*
X197657142Y-84457142D01*
X197514285Y-84361904D01*
X197323809Y-84314285D01*
X196942857Y-84314285D01*
X196847619Y-84361904D01*
X196800000Y-84409523D01*
X196752380Y-84504761D01*
X196752380Y-84695238D01*
X196800000Y-84790476D01*
X196847619Y-84838095D01*
X196942857Y-84885714D01*
X197180952Y-84885714D01*
X197276190Y-84838095D01*
X197323809Y-84790476D01*
X197371428Y-84695238D01*
X197371428Y-84504761D01*
X197323809Y-84409523D01*
X197276190Y-84361904D01*
X197180952Y-84314285D01*
%TO.C,J4*%
X199366666Y-73752380D02*
X199366666Y-74466666D01*
X199319047Y-74609523D01*
X199223809Y-74704761D01*
X199080952Y-74752380D01*
X198985714Y-74752380D01*
X200271428Y-74085714D02*
X200271428Y-74752380D01*
X200033333Y-73704761D02*
X199795238Y-74419047D01*
X200414285Y-74419047D01*
%TO.C,R2*%
X185533333Y-74552380D02*
X185200000Y-74076190D01*
X184961904Y-74552380D02*
X184961904Y-73552380D01*
X185342857Y-73552380D01*
X185438095Y-73600000D01*
X185485714Y-73647619D01*
X185533333Y-73742857D01*
X185533333Y-73885714D01*
X185485714Y-73980952D01*
X185438095Y-74028571D01*
X185342857Y-74076190D01*
X184961904Y-74076190D01*
X185914285Y-73647619D02*
X185961904Y-73600000D01*
X186057142Y-73552380D01*
X186295238Y-73552380D01*
X186390476Y-73600000D01*
X186438095Y-73647619D01*
X186485714Y-73742857D01*
X186485714Y-73838095D01*
X186438095Y-73980952D01*
X185866666Y-74552380D01*
X186485714Y-74552380D01*
%TO.C,C6*%
X206133333Y-75157142D02*
X206085714Y-75204761D01*
X205942857Y-75252380D01*
X205847619Y-75252380D01*
X205704761Y-75204761D01*
X205609523Y-75109523D01*
X205561904Y-75014285D01*
X205514285Y-74823809D01*
X205514285Y-74680952D01*
X205561904Y-74490476D01*
X205609523Y-74395238D01*
X205704761Y-74300000D01*
X205847619Y-74252380D01*
X205942857Y-74252380D01*
X206085714Y-74300000D01*
X206133333Y-74347619D01*
X206990476Y-74252380D02*
X206800000Y-74252380D01*
X206704761Y-74300000D01*
X206657142Y-74347619D01*
X206561904Y-74490476D01*
X206514285Y-74680952D01*
X206514285Y-75061904D01*
X206561904Y-75157142D01*
X206609523Y-75204761D01*
X206704761Y-75252380D01*
X206895238Y-75252380D01*
X206990476Y-75204761D01*
X207038095Y-75157142D01*
X207085714Y-75061904D01*
X207085714Y-74823809D01*
X207038095Y-74728571D01*
X206990476Y-74680952D01*
X206895238Y-74633333D01*
X206704761Y-74633333D01*
X206609523Y-74680952D01*
X206561904Y-74728571D01*
X206514285Y-74823809D01*
%TO.C,C14*%
X196057142Y-87142857D02*
X196104761Y-87190476D01*
X196152380Y-87333333D01*
X196152380Y-87428571D01*
X196104761Y-87571428D01*
X196009523Y-87666666D01*
X195914285Y-87714285D01*
X195723809Y-87761904D01*
X195580952Y-87761904D01*
X195390476Y-87714285D01*
X195295238Y-87666666D01*
X195200000Y-87571428D01*
X195152380Y-87428571D01*
X195152380Y-87333333D01*
X195200000Y-87190476D01*
X195247619Y-87142857D01*
X196152380Y-86190476D02*
X196152380Y-86761904D01*
X196152380Y-86476190D02*
X195152380Y-86476190D01*
X195295238Y-86571428D01*
X195390476Y-86666666D01*
X195438095Y-86761904D01*
X195485714Y-85333333D02*
X196152380Y-85333333D01*
X195104761Y-85571428D02*
X195819047Y-85809523D01*
X195819047Y-85190476D01*
%TO.C,C15*%
X196057142Y-105542857D02*
X196104761Y-105590476D01*
X196152380Y-105733333D01*
X196152380Y-105828571D01*
X196104761Y-105971428D01*
X196009523Y-106066666D01*
X195914285Y-106114285D01*
X195723809Y-106161904D01*
X195580952Y-106161904D01*
X195390476Y-106114285D01*
X195295238Y-106066666D01*
X195200000Y-105971428D01*
X195152380Y-105828571D01*
X195152380Y-105733333D01*
X195200000Y-105590476D01*
X195247619Y-105542857D01*
X196152380Y-104590476D02*
X196152380Y-105161904D01*
X196152380Y-104876190D02*
X195152380Y-104876190D01*
X195295238Y-104971428D01*
X195390476Y-105066666D01*
X195438095Y-105161904D01*
X195152380Y-103685714D02*
X195152380Y-104161904D01*
X195628571Y-104209523D01*
X195580952Y-104161904D01*
X195533333Y-104066666D01*
X195533333Y-103828571D01*
X195580952Y-103733333D01*
X195628571Y-103685714D01*
X195723809Y-103638095D01*
X195961904Y-103638095D01*
X196057142Y-103685714D01*
X196104761Y-103733333D01*
X196152380Y-103828571D01*
X196152380Y-104066666D01*
X196104761Y-104161904D01*
X196057142Y-104209523D01*
%TO.C,U1*%
X206938095Y-78952380D02*
X206938095Y-79761904D01*
X206985714Y-79857142D01*
X207033333Y-79904761D01*
X207128571Y-79952380D01*
X207319047Y-79952380D01*
X207414285Y-79904761D01*
X207461904Y-79857142D01*
X207509523Y-79761904D01*
X207509523Y-78952380D01*
X208509523Y-79952380D02*
X207938095Y-79952380D01*
X208223809Y-79952380D02*
X208223809Y-78952380D01*
X208128571Y-79095238D01*
X208033333Y-79190476D01*
X207938095Y-79238095D01*
D11*
%TO.C,J1*%
X199445000Y-116705000D02*
X199445000Y-114045000D01*
X204585000Y-116705000D02*
X204585000Y-114045000D01*
X199445000Y-114045000D02*
X204585000Y-114045000D01*
X196845000Y-114045000D02*
X198175000Y-114045000D01*
X196845000Y-115375000D02*
X196845000Y-114045000D01*
X199445000Y-116705000D02*
X204585000Y-116705000D01*
%TO.C,C11*%
X200759420Y-90910000D02*
X201040580Y-90910000D01*
X200759420Y-89890000D02*
X201040580Y-89890000D01*
%TO.C,C8*%
X192290000Y-86640580D02*
X192290000Y-86359420D01*
X193310000Y-86640580D02*
X193310000Y-86359420D01*
%TO.C,C4*%
X191859420Y-83690000D02*
X192140580Y-83690000D01*
X191859420Y-84710000D02*
X192140580Y-84710000D01*
%TO.C,J3*%
X210470000Y-114130000D02*
X210470000Y-68350000D01*
X213130000Y-68350000D02*
X210470000Y-68350000D01*
X211800000Y-116730000D02*
X210470000Y-116730000D01*
X210470000Y-116730000D02*
X210470000Y-115400000D01*
X213130000Y-114130000D02*
X213130000Y-68350000D01*
X213130000Y-114130000D02*
X210470000Y-114130000D01*
%TO.C,C1*%
X203059420Y-72410000D02*
X203340580Y-72410000D01*
X203059420Y-71390000D02*
X203340580Y-71390000D01*
%TO.C,R6*%
X195372500Y-82922258D02*
X195372500Y-82447742D01*
X194327500Y-82922258D02*
X194327500Y-82447742D01*
%TO.C,C5*%
X192084420Y-104260000D02*
X192365580Y-104260000D01*
X192084420Y-103240000D02*
X192365580Y-103240000D01*
%TO.C,C13*%
X187340580Y-94890000D02*
X187059420Y-94890000D01*
X187340580Y-95910000D02*
X187059420Y-95910000D01*
%TO.C,Y1*%
X187925000Y-104800000D02*
X187925000Y-109300000D01*
X187925000Y-109300000D02*
X193325000Y-109300000D01*
%TO.C,SW1*%
X182550000Y-71420000D02*
X187750000Y-71420000D01*
X183150000Y-65180000D02*
X187550000Y-65180000D01*
X182080000Y-69450000D02*
X182080000Y-67250000D01*
X188320000Y-67250000D02*
X188320000Y-69450000D01*
X186614214Y-68300000D02*
G75*
G03*
X186614214Y-68300000I-1414214J0D01*
G01*
%TO.C,R1*%
X183722500Y-72962742D02*
X183722500Y-73437258D01*
X182677500Y-72962742D02*
X182677500Y-73437258D01*
%TO.C,R5*%
X202022500Y-101162742D02*
X202022500Y-101637258D01*
X200977500Y-101162742D02*
X200977500Y-101637258D01*
%TO.C,C17*%
X186940580Y-91510000D02*
X186659420Y-91510000D01*
X186940580Y-90490000D02*
X186659420Y-90490000D01*
%TO.C,C3*%
X189365580Y-104260000D02*
X189084420Y-104260000D01*
X189365580Y-103240000D02*
X189084420Y-103240000D01*
%TO.C,R7*%
X196872500Y-82922258D02*
X196872500Y-82447742D01*
X195827500Y-82922258D02*
X195827500Y-82447742D01*
%TO.C,R4*%
X201562742Y-85522500D02*
X202037258Y-85522500D01*
X201562742Y-84477500D02*
X202037258Y-84477500D01*
%TO.C,U3*%
X191440000Y-97710000D02*
X190790000Y-97710000D01*
X197360000Y-90490000D02*
X198010000Y-90490000D01*
X191440000Y-90490000D02*
X190790000Y-90490000D01*
X190790000Y-97710000D02*
X190790000Y-97060000D01*
X197360000Y-97710000D02*
X198010000Y-97710000D01*
X198010000Y-90490000D02*
X198010000Y-91140000D01*
X198010000Y-97710000D02*
X198010000Y-97060000D01*
%TO.C,J2*%
X176830000Y-68350000D02*
X176830000Y-69680000D01*
X174170000Y-70950000D02*
X176830000Y-70950000D01*
X175500000Y-68350000D02*
X176830000Y-68350000D01*
X174170000Y-70950000D02*
X174170000Y-116730000D01*
X176830000Y-70950000D02*
X176830000Y-116730000D01*
X174170000Y-116730000D02*
X176830000Y-116730000D01*
%TO.C,C7*%
X196290000Y-101159420D02*
X196290000Y-101440580D01*
X197310000Y-101159420D02*
X197310000Y-101440580D01*
%TO.C,D1*%
X203285000Y-85865000D02*
X201000000Y-85865000D01*
X201000000Y-87335000D02*
X203285000Y-87335000D01*
X203285000Y-87335000D02*
X203285000Y-85865000D01*
%TO.C,C12*%
X198190000Y-87640580D02*
X198190000Y-87359420D01*
X199210000Y-87640580D02*
X199210000Y-87359420D01*
%TO.C,U2*%
X184875000Y-77575000D02*
X185135000Y-77575000D01*
X190325000Y-77575000D02*
X190065000Y-77575000D01*
X184875000Y-80300000D02*
X184875000Y-77575000D01*
X190325000Y-80300000D02*
X190325000Y-77575000D01*
X184875000Y-80300000D02*
X184875000Y-83025000D01*
X190325000Y-83025000D02*
X190065000Y-83025000D01*
X190065000Y-77575000D02*
X190065000Y-75900000D01*
X190325000Y-80300000D02*
X190325000Y-83025000D01*
X184875000Y-83025000D02*
X185135000Y-83025000D01*
%TO.C,C10*%
X200759420Y-89410000D02*
X201040580Y-89410000D01*
X200759420Y-88390000D02*
X201040580Y-88390000D01*
%TO.C,C16*%
X201159420Y-95610000D02*
X201440580Y-95610000D01*
X201159420Y-94590000D02*
X201440580Y-94590000D01*
%TO.C,C2*%
X203059420Y-73910000D02*
X203340580Y-73910000D01*
X203059420Y-72890000D02*
X203340580Y-72890000D01*
%TO.C,R3*%
X191987742Y-101727500D02*
X192462258Y-101727500D01*
X191987742Y-102772500D02*
X192462258Y-102772500D01*
%TO.C,C9*%
X196690000Y-87640580D02*
X196690000Y-87359420D01*
X197710000Y-87640580D02*
X197710000Y-87359420D01*
%TO.C,J4*%
X199680000Y-66240000D02*
X199680000Y-65290000D01*
X199680000Y-70215000D02*
X199680000Y-69360000D01*
X190520000Y-70215000D02*
X190520000Y-69360000D01*
X199680000Y-65290000D02*
X190520000Y-65290000D01*
X190520000Y-66240000D02*
X190520000Y-65290000D01*
%TO.C,R2*%
X185462742Y-72077500D02*
X185937258Y-72077500D01*
X185462742Y-73122500D02*
X185937258Y-73122500D01*
%TO.C,C6*%
X206059420Y-72890000D02*
X206340580Y-72890000D01*
X206059420Y-73910000D02*
X206340580Y-73910000D01*
%TO.C,C14*%
X194810000Y-86640580D02*
X194810000Y-86359420D01*
X193790000Y-86640580D02*
X193790000Y-86359420D01*
%TO.C,C15*%
X194790000Y-101159420D02*
X194790000Y-101440580D01*
X195810000Y-101159420D02*
X195810000Y-101440580D01*
%TO.C,U1*%
X199690000Y-77950000D02*
X199690000Y-81710000D01*
X206510000Y-75700000D02*
X206510000Y-81710000D01*
X206510000Y-81710000D02*
X205250000Y-81710000D01*
X199690000Y-81710000D02*
X200950000Y-81710000D01*
%TD*%
%LPC*%
D12*
%TO.C,J1*%
X198175000Y-115375000D03*
D13*
X200715000Y-115375000D03*
X203255000Y-115375000D03*
%TD*%
D14*
%TO.C,C11*%
X200125000Y-90400000D03*
X201675000Y-90400000D03*
%TD*%
D15*
%TO.C,C8*%
X192800000Y-87275000D03*
X192800000Y-85725000D03*
%TD*%
D14*
%TO.C,C4*%
X191225000Y-84200000D03*
X192775000Y-84200000D03*
%TD*%
D12*
%TO.C,J3*%
X211800000Y-115400000D03*
D13*
X211800000Y-112860000D03*
X211800000Y-110320000D03*
X211800000Y-107780000D03*
X211800000Y-105240000D03*
X211800000Y-102700000D03*
X211800000Y-100160000D03*
X211800000Y-97620000D03*
X211800000Y-95080000D03*
X211800000Y-92540000D03*
X211800000Y-90000000D03*
X211800000Y-87460000D03*
X211800000Y-84920000D03*
X211800000Y-82380000D03*
X211800000Y-79840000D03*
X211800000Y-77300000D03*
X211800000Y-74760000D03*
X211800000Y-72220000D03*
X211800000Y-69680000D03*
%TD*%
D14*
%TO.C,C1*%
X202425000Y-71900000D03*
X203975000Y-71900000D03*
%TD*%
D16*
%TO.C,R6*%
X194850000Y-83510000D03*
X194850000Y-81860000D03*
%TD*%
D14*
%TO.C,C5*%
X191450000Y-103750000D03*
X193000000Y-103750000D03*
%TD*%
D17*
%TO.C,C13*%
X187975000Y-95400000D03*
X186425000Y-95400000D03*
%TD*%
D18*
%TO.C,Y1*%
X189175000Y-108200000D03*
X192075000Y-108200000D03*
X192075000Y-105900000D03*
X189175000Y-105900000D03*
%TD*%
D19*
%TO.C,SW1*%
X188450000Y-66050000D03*
D12*
X181950000Y-66050000D03*
D19*
X181950000Y-70550000D03*
X188450000Y-70550000D03*
%TD*%
D20*
%TO.C,R1*%
X183200000Y-72375000D03*
X183200000Y-74025000D03*
%TD*%
%TO.C,R5*%
X201500000Y-100575000D03*
X201500000Y-102225000D03*
%TD*%
D17*
%TO.C,C17*%
X187575000Y-91000000D03*
X186025000Y-91000000D03*
%TD*%
%TO.C,C3*%
X190000000Y-103750000D03*
X188450000Y-103750000D03*
%TD*%
D16*
%TO.C,R7*%
X196350000Y-83510000D03*
X196350000Y-81860000D03*
%TD*%
D21*
%TO.C,R4*%
X200975000Y-85000000D03*
X202625000Y-85000000D03*
%TD*%
D22*
%TO.C,U3*%
X190962500Y-91500000D03*
X190962500Y-91900000D03*
X190962500Y-92300000D03*
X190962500Y-92700000D03*
X190962500Y-93100000D03*
X190962500Y-93500000D03*
X190962500Y-93900000D03*
X190962500Y-94300000D03*
X190962500Y-94700000D03*
X190962500Y-95100000D03*
X190962500Y-95500000D03*
X190962500Y-95900000D03*
X190962500Y-96300000D03*
X190962500Y-96700000D03*
D23*
X191800000Y-97537500D03*
X192200000Y-97537500D03*
X192600000Y-97537500D03*
X193000000Y-97537500D03*
X193400000Y-97537500D03*
X193800000Y-97537500D03*
X194200000Y-97537500D03*
X194600000Y-97537500D03*
X195000000Y-97537500D03*
X195400000Y-97537500D03*
X195800000Y-97537500D03*
X196200000Y-97537500D03*
X196600000Y-97537500D03*
X197000000Y-97537500D03*
D22*
X197837500Y-96700000D03*
X197837500Y-96300000D03*
X197837500Y-95900000D03*
X197837500Y-95500000D03*
X197837500Y-95100000D03*
X197837500Y-94700000D03*
X197837500Y-94300000D03*
X197837500Y-93900000D03*
X197837500Y-93500000D03*
X197837500Y-93100000D03*
X197837500Y-92700000D03*
X197837500Y-92300000D03*
X197837500Y-91900000D03*
X197837500Y-91500000D03*
D23*
X197000000Y-90662500D03*
X196600000Y-90662500D03*
X196200000Y-90662500D03*
X195800000Y-90662500D03*
X195400000Y-90662500D03*
X195000000Y-90662500D03*
X194600000Y-90662500D03*
X194200000Y-90662500D03*
X193800000Y-90662500D03*
X193400000Y-90662500D03*
X193000000Y-90662500D03*
X192600000Y-90662500D03*
X192200000Y-90662500D03*
X191800000Y-90662500D03*
D24*
X194400000Y-94100000D03*
%TD*%
D12*
%TO.C,J2*%
X175500000Y-69680000D03*
D13*
X175500000Y-72220000D03*
X175500000Y-74760000D03*
X175500000Y-77300000D03*
X175500000Y-79840000D03*
X175500000Y-82380000D03*
X175500000Y-84920000D03*
X175500000Y-87460000D03*
X175500000Y-90000000D03*
X175500000Y-92540000D03*
X175500000Y-95080000D03*
X175500000Y-97620000D03*
X175500000Y-100160000D03*
X175500000Y-102700000D03*
X175500000Y-105240000D03*
X175500000Y-107780000D03*
X175500000Y-110320000D03*
X175500000Y-112860000D03*
X175500000Y-115400000D03*
%TD*%
D25*
%TO.C,C7*%
X196800000Y-100525000D03*
X196800000Y-102075000D03*
%TD*%
D26*
%TO.C,D1*%
X202587500Y-86600000D03*
X201012500Y-86600000D03*
%TD*%
D15*
%TO.C,C12*%
X198700000Y-88275000D03*
X198700000Y-86725000D03*
%TD*%
D27*
%TO.C,U2*%
X189505000Y-76700000D03*
X188235000Y-76700000D03*
X186965000Y-76700000D03*
X185695000Y-76700000D03*
X185695000Y-83900000D03*
X186965000Y-83900000D03*
X188235000Y-83900000D03*
X189505000Y-83900000D03*
%TD*%
D14*
%TO.C,C10*%
X200125000Y-88900000D03*
X201675000Y-88900000D03*
%TD*%
%TO.C,C16*%
X200525000Y-95100000D03*
X202075000Y-95100000D03*
%TD*%
%TO.C,C2*%
X202425000Y-73400000D03*
X203975000Y-73400000D03*
%TD*%
D21*
%TO.C,R3*%
X191400000Y-102250000D03*
X193050000Y-102250000D03*
%TD*%
D15*
%TO.C,C9*%
X197200000Y-88275000D03*
X197200000Y-86725000D03*
%TD*%
D28*
%TO.C,J4*%
X192100000Y-70950000D03*
D29*
X198100000Y-70950000D03*
D30*
X196500000Y-67850000D03*
X193700000Y-67850000D03*
D31*
X198200000Y-72050000D03*
X197450000Y-72050000D03*
D32*
X196850000Y-72050000D03*
X195350000Y-72050000D03*
X194350000Y-72050000D03*
X193350000Y-72050000D03*
D31*
X192750000Y-72050000D03*
X192000000Y-72050000D03*
X192000000Y-72050000D03*
X192750000Y-72050000D03*
D32*
X193850000Y-72050000D03*
X194850000Y-72050000D03*
X195850000Y-72050000D03*
X196350000Y-72050000D03*
D31*
X197450000Y-72050000D03*
X198200000Y-72050000D03*
D33*
X190780000Y-71675000D03*
X199420000Y-71675000D03*
D34*
X190780000Y-67850000D03*
X199420000Y-67850000D03*
%TD*%
D21*
%TO.C,R2*%
X184875000Y-72600000D03*
X186525000Y-72600000D03*
%TD*%
D14*
%TO.C,C6*%
X205425000Y-73400000D03*
X206975000Y-73400000D03*
%TD*%
D15*
%TO.C,C14*%
X194300000Y-87275000D03*
X194300000Y-85725000D03*
%TD*%
D25*
%TO.C,C15*%
X195300000Y-100525000D03*
X195300000Y-102075000D03*
%TD*%
D35*
%TO.C,U1*%
X205400000Y-76650000D03*
X203100000Y-76650000D03*
D36*
X203100000Y-82950000D03*
D35*
X200800000Y-76650000D03*
%TD*%
M02*
