%TF.GenerationSoftware,KiCad,Pcbnew,(6.0.7)*%
%TF.CreationDate,2023-07-30T21:01:36+08:00*%
%TF.ProjectId,RP2040 basic dev board,52503230-3430-4206-9261-736963206465,rev?*%
%TF.SameCoordinates,Original*%
%TF.FileFunction,Soldermask,Top*%
%TF.FilePolarity,Negative*%
%FSLAX46Y46*%
G04 Gerber Fmt 4.6, Leading zero omitted, Abs format (unit mm)*
G04 Created by KiCad (PCBNEW (6.0.7)) date 2023-07-30 21:01:36*
%MOMM*%
%LPD*%
G01*
G04 APERTURE LIST*
G04 Aperture macros list*
%AMRoundRect*
0 Rectangle with rounded corners*
0 $1 Rounding radius*
0 $2 $3 $4 $5 $6 $7 $8 $9 X,Y pos of 4 corners*
0 Add a 4 corners polygon primitive as box body*
4,1,4,$2,$3,$4,$5,$6,$7,$8,$9,$2,$3,0*
0 Add four circle primitives for the rounded corners*
1,1,$1+$1,$2,$3*
1,1,$1+$1,$4,$5*
1,1,$1+$1,$6,$7*
1,1,$1+$1,$8,$9*
0 Add four rect primitives between the rounded corners*
20,1,$1+$1,$2,$3,$4,$5,0*
20,1,$1+$1,$4,$5,$6,$7,0*
20,1,$1+$1,$6,$7,$8,$9,0*
20,1,$1+$1,$8,$9,$2,$3,0*%
G04 Aperture macros list end*
%ADD10R,1.700000X1.700000*%
%ADD11O,1.700000X1.700000*%
%ADD12RoundRect,0.225000X-0.225000X-0.250000X0.225000X-0.250000X0.225000X0.250000X-0.225000X0.250000X0*%
%ADD13RoundRect,0.225000X0.250000X-0.225000X0.250000X0.225000X-0.250000X0.225000X-0.250000X-0.225000X0*%
%ADD14RoundRect,0.200000X0.275000X-0.200000X0.275000X0.200000X-0.275000X0.200000X-0.275000X-0.200000X0*%
%ADD15RoundRect,0.225000X0.225000X0.250000X-0.225000X0.250000X-0.225000X-0.250000X0.225000X-0.250000X0*%
%ADD16R,2.100000X1.800000*%
%ADD17C,1.700000*%
%ADD18RoundRect,0.200000X-0.275000X0.200000X-0.275000X-0.200000X0.275000X-0.200000X0.275000X0.200000X0*%
%ADD19RoundRect,0.200000X-0.200000X-0.275000X0.200000X-0.275000X0.200000X0.275000X-0.200000X0.275000X0*%
%ADD20RoundRect,0.050000X-0.387500X-0.050000X0.387500X-0.050000X0.387500X0.050000X-0.387500X0.050000X0*%
%ADD21RoundRect,0.050000X-0.050000X-0.387500X0.050000X-0.387500X0.050000X0.387500X-0.050000X0.387500X0*%
%ADD22R,3.200000X3.200000*%
%ADD23RoundRect,0.225000X-0.250000X0.225000X-0.250000X-0.225000X0.250000X-0.225000X0.250000X0.225000X0*%
%ADD24RoundRect,0.218750X0.218750X0.256250X-0.218750X0.256250X-0.218750X-0.256250X0.218750X-0.256250X0*%
%ADD25RoundRect,0.150000X-0.150000X0.650000X-0.150000X-0.650000X0.150000X-0.650000X0.150000X0.650000X0*%
%ADD26O,0.850000X0.600000*%
%ADD27C,0.600000*%
%ADD28R,1.000000X2.000000*%
%ADD29R,0.520000X1.000000*%
%ADD30R,0.270000X1.000000*%
%ADD31O,1.300000X2.300000*%
%ADD32O,1.300000X2.600000*%
%ADD33R,1.500000X2.000000*%
%ADD34R,3.800000X2.000000*%
G04 APERTURE END LIST*
D10*
%TO.C,J1*%
X198175000Y-115375000D03*
D11*
X200715000Y-115375000D03*
X203255000Y-115375000D03*
%TD*%
D12*
%TO.C,C11*%
X200125000Y-90400000D03*
X201675000Y-90400000D03*
%TD*%
D13*
%TO.C,C8*%
X192800000Y-87275000D03*
X192800000Y-85725000D03*
%TD*%
D12*
%TO.C,C4*%
X191225000Y-84200000D03*
X192775000Y-84200000D03*
%TD*%
D10*
%TO.C,J3*%
X211800000Y-115400000D03*
D11*
X211800000Y-112860000D03*
X211800000Y-110320000D03*
X211800000Y-107780000D03*
X211800000Y-105240000D03*
X211800000Y-102700000D03*
X211800000Y-100160000D03*
X211800000Y-97620000D03*
X211800000Y-95080000D03*
X211800000Y-92540000D03*
X211800000Y-90000000D03*
X211800000Y-87460000D03*
X211800000Y-84920000D03*
X211800000Y-82380000D03*
X211800000Y-79840000D03*
X211800000Y-77300000D03*
X211800000Y-74760000D03*
X211800000Y-72220000D03*
X211800000Y-69680000D03*
%TD*%
D12*
%TO.C,C1*%
X202425000Y-71900000D03*
X203975000Y-71900000D03*
%TD*%
D14*
%TO.C,R6*%
X194850000Y-83510000D03*
X194850000Y-81860000D03*
%TD*%
D12*
%TO.C,C5*%
X191450000Y-103750000D03*
X193000000Y-103750000D03*
%TD*%
D15*
%TO.C,C13*%
X187975000Y-95400000D03*
X186425000Y-95400000D03*
%TD*%
D16*
%TO.C,Y1*%
X189175000Y-108200000D03*
X192075000Y-108200000D03*
X192075000Y-105900000D03*
X189175000Y-105900000D03*
%TD*%
D17*
%TO.C,SW1*%
X188450000Y-66050000D03*
D10*
X181950000Y-66050000D03*
D17*
X181950000Y-70550000D03*
X188450000Y-70550000D03*
%TD*%
D18*
%TO.C,R1*%
X183200000Y-72375000D03*
X183200000Y-74025000D03*
%TD*%
%TO.C,R5*%
X201500000Y-100575000D03*
X201500000Y-102225000D03*
%TD*%
D15*
%TO.C,C17*%
X187575000Y-91000000D03*
X186025000Y-91000000D03*
%TD*%
%TO.C,C3*%
X190000000Y-103750000D03*
X188450000Y-103750000D03*
%TD*%
D14*
%TO.C,R7*%
X196350000Y-83510000D03*
X196350000Y-81860000D03*
%TD*%
D19*
%TO.C,R4*%
X200975000Y-85000000D03*
X202625000Y-85000000D03*
%TD*%
D20*
%TO.C,U3*%
X190962500Y-91500000D03*
X190962500Y-91900000D03*
X190962500Y-92300000D03*
X190962500Y-92700000D03*
X190962500Y-93100000D03*
X190962500Y-93500000D03*
X190962500Y-93900000D03*
X190962500Y-94300000D03*
X190962500Y-94700000D03*
X190962500Y-95100000D03*
X190962500Y-95500000D03*
X190962500Y-95900000D03*
X190962500Y-96300000D03*
X190962500Y-96700000D03*
D21*
X191800000Y-97537500D03*
X192200000Y-97537500D03*
X192600000Y-97537500D03*
X193000000Y-97537500D03*
X193400000Y-97537500D03*
X193800000Y-97537500D03*
X194200000Y-97537500D03*
X194600000Y-97537500D03*
X195000000Y-97537500D03*
X195400000Y-97537500D03*
X195800000Y-97537500D03*
X196200000Y-97537500D03*
X196600000Y-97537500D03*
X197000000Y-97537500D03*
D20*
X197837500Y-96700000D03*
X197837500Y-96300000D03*
X197837500Y-95900000D03*
X197837500Y-95500000D03*
X197837500Y-95100000D03*
X197837500Y-94700000D03*
X197837500Y-94300000D03*
X197837500Y-93900000D03*
X197837500Y-93500000D03*
X197837500Y-93100000D03*
X197837500Y-92700000D03*
X197837500Y-92300000D03*
X197837500Y-91900000D03*
X197837500Y-91500000D03*
D21*
X197000000Y-90662500D03*
X196600000Y-90662500D03*
X196200000Y-90662500D03*
X195800000Y-90662500D03*
X195400000Y-90662500D03*
X195000000Y-90662500D03*
X194600000Y-90662500D03*
X194200000Y-90662500D03*
X193800000Y-90662500D03*
X193400000Y-90662500D03*
X193000000Y-90662500D03*
X192600000Y-90662500D03*
X192200000Y-90662500D03*
X191800000Y-90662500D03*
D22*
X194400000Y-94100000D03*
%TD*%
D10*
%TO.C,J2*%
X175500000Y-69680000D03*
D11*
X175500000Y-72220000D03*
X175500000Y-74760000D03*
X175500000Y-77300000D03*
X175500000Y-79840000D03*
X175500000Y-82380000D03*
X175500000Y-84920000D03*
X175500000Y-87460000D03*
X175500000Y-90000000D03*
X175500000Y-92540000D03*
X175500000Y-95080000D03*
X175500000Y-97620000D03*
X175500000Y-100160000D03*
X175500000Y-102700000D03*
X175500000Y-105240000D03*
X175500000Y-107780000D03*
X175500000Y-110320000D03*
X175500000Y-112860000D03*
X175500000Y-115400000D03*
%TD*%
D23*
%TO.C,C7*%
X196800000Y-100525000D03*
X196800000Y-102075000D03*
%TD*%
D24*
%TO.C,D1*%
X202587500Y-86600000D03*
X201012500Y-86600000D03*
%TD*%
D13*
%TO.C,C12*%
X198700000Y-88275000D03*
X198700000Y-86725000D03*
%TD*%
D25*
%TO.C,U2*%
X189505000Y-76700000D03*
X188235000Y-76700000D03*
X186965000Y-76700000D03*
X185695000Y-76700000D03*
X185695000Y-83900000D03*
X186965000Y-83900000D03*
X188235000Y-83900000D03*
X189505000Y-83900000D03*
%TD*%
D12*
%TO.C,C10*%
X200125000Y-88900000D03*
X201675000Y-88900000D03*
%TD*%
%TO.C,C16*%
X200525000Y-95100000D03*
X202075000Y-95100000D03*
%TD*%
%TO.C,C2*%
X202425000Y-73400000D03*
X203975000Y-73400000D03*
%TD*%
D19*
%TO.C,R3*%
X191400000Y-102250000D03*
X193050000Y-102250000D03*
%TD*%
D13*
%TO.C,C9*%
X197200000Y-88275000D03*
X197200000Y-86725000D03*
%TD*%
D26*
%TO.C,J4*%
X192100000Y-70950000D03*
D27*
X198100000Y-70950000D03*
D28*
X196500000Y-67850000D03*
X193700000Y-67850000D03*
D29*
X198200000Y-72050000D03*
X197450000Y-72050000D03*
D30*
X196850000Y-72050000D03*
X195350000Y-72050000D03*
X194350000Y-72050000D03*
X193350000Y-72050000D03*
D29*
X192750000Y-72050000D03*
X192000000Y-72050000D03*
X192000000Y-72050000D03*
X192750000Y-72050000D03*
D30*
X193850000Y-72050000D03*
X194850000Y-72050000D03*
X195850000Y-72050000D03*
X196350000Y-72050000D03*
D29*
X197450000Y-72050000D03*
X198200000Y-72050000D03*
D31*
X190780000Y-71675000D03*
X199420000Y-71675000D03*
D32*
X190780000Y-67850000D03*
X199420000Y-67850000D03*
%TD*%
D19*
%TO.C,R2*%
X184875000Y-72600000D03*
X186525000Y-72600000D03*
%TD*%
D12*
%TO.C,C6*%
X205425000Y-73400000D03*
X206975000Y-73400000D03*
%TD*%
D13*
%TO.C,C14*%
X194300000Y-87275000D03*
X194300000Y-85725000D03*
%TD*%
D23*
%TO.C,C15*%
X195300000Y-100525000D03*
X195300000Y-102075000D03*
%TD*%
D33*
%TO.C,U1*%
X205400000Y-76650000D03*
X203100000Y-76650000D03*
D34*
X203100000Y-82950000D03*
D33*
X200800000Y-76650000D03*
%TD*%
M02*
